/* XPM */
static char *result[] = {
/* columns rows colors chars-per-pixel */
"80 80 50 1 ",
"  c DimGray",
". c #6A6A6A",
"X c gray42",
"o c #6C6C6C",
"O c #6D6D6D",
"+ c gray43",
"@ c #6F6F6F",
"# c gray44",
"$ c #717171",
"% c #727272",
"& c gray45",
"* c #747473",
"= c #747474",
"- c gray46",
"; c #767676",
": c #777777",
"> c gray47",
", c #797979",
"< c gray48",
"1 c #7B7B7B",
"2 c #7C7C7C",
"3 c gray49",
"4 c #7E7E7E",
"5 c #7F7E7E",
"6 c #7F7F7E",
"7 c gray50",
"8 c #808080",
"9 c #818180",
"0 c #818181",
"q c #828281",
"w c gray51",
"e c #838383",
"r c #848484",
"t c gray52",
"y c #868686",
"u c gray53",
"i c #888888",
"p c #898989",
"a c gray54",
"s c #8B8B8B",
"d c gray55",
"f c #8D8D8D",
"g c #8E8E8E",
"h c gray56",
"j c #909090",
"k c gray57",
"l c #929292",
"z c #939393",
"x c gray58",
"c c #959595",
/* pixels */
"q6644666667888899980;#$$#,7477666542>>>>176763>>>>:====&$$$#*98880eeeeeeeeee0888",
"31111111112333333334%XooX-211111111>====:2111,====&####@oooX@3333488888888884333",
"41111111112333333334%XooX-211111111>====:2111,====&####@oooX@3333488888888884333",
"41111111112333333334%XooX-211111111>====:2111,====&####@XXXX@3333488888888884333",
"72221211113333333334&XooX;211111111,====:2111>&===&####@oooX+3333408888888884333",
"iyyyydfffffgggg8>,,<$Xooo@%$$$&-----====:3333374447tttrrrrrt0@@@@@%%%%%%%%%%----",
"aiiiijkkkkkkkkl0:>>,$Xooo+###@%========&:433348888epppppppparXXXXo@@@@@@@@@@====",
"aiiiihjjjjjjjjk0:>>,$Xooo+###@%========&:433348888wpiiiiiiipeooooO##########====",
"aiiiihjjjjjjjjk0:>>,$Xooo+###@%========&:433348888wpiiiiiiipeooooO##########====",
"sppipkkkkllkkkzw:>>,$Xooo+#@@@$&&&&&&&&%:333348888wppppipppatXXXXo#@@@@@@@@@&&&&",
"<;;::>:::>;----%@@@@OoooX<rwww4<<<<<,,,,<222224444444473===&=1<<<122221::::;,1<<",
"&@@@@++++@o....XXXXXoooo.7sppar23332111111111233333<<<<:XXX.+0000000008<,,,>2333",
"=#########+ooooooooooooo.4aiipe233321111111112333331111>oooX@8888888887,>>>>2333",
"=#########+ooooooooooooo.4aiipe233321111111112333331111>oooX@8888888887,>>>>2333",
"&@@@@@@+@+o....XXXXXoooX.7daasr244431111212222444442222,oooX@7777788887>::::2433",
"3<<<<7788743334<;::>%++++&::::----;-====;::::;----=%%%%$oooX$aaaap88888333333333",
"r0000paappaaaase3447;####O....O@@@@@@@@@$====%+@@@+XXXXXoooX$kkkkh88888000004333",
"e8888uiiiiiiiipw2334-####+oooo+#########$====%@###@ooooooooX$hjjjg88888888884333",
"e8888uiiiiiiiip02334-####+oooo+#########$====%@###@ooooooooX$hjjjg88888888884333",
"r0088ippppppppaw3447-####O....o++@@@@@@@#%%%%#+@++O....XoooX$jkkkh88888888884444",
"83333000000000w>%&&&&&&%%,433347777777770yttye4777433341oooX@rrrte44444888881<<<",
"411112333333334$.XX.$-==&0saaaapaaaaaaapfzllzgpaappaaastoooo@212223333388888,>>>",
"411113333333334&XooX$====8piiiiiiiiiiiiuskjjjfiiiiiiiiproooX@333333333388888,>>>",
"411113333333334&XooX$-===8piiiiiiiiiiiiuskjjjfiiiiiiiiproooX@333333333388888,>>>",
"722224333344447&XooX$;===wsppapiiiiiiiiudlllzgpppppppparXXX.@444444444400000,>>>",
">====:::::&%%%&@Xooo+@@@@;<,,>8piipyeeeeerrrre0000000007&&==&%%%%%-----;;;;;-;;;",
"&@@@@&====+XXXXooooooooooO@@@O2aiipt88884222222333333332>>>,:XXXXo#####@@@@@&===",
"=###$=====+Xooooooooooooo+###+2aiiit88887333333333333343>>>>;ooooO##########====",
"=###$=====+Xooooooooooooo+###+2aiiit88887333333333333343>>>>;ooooO##########====",
"&@@@@&====OXXXXXooooXXXXXO#@@O2saaay88887222234333444443>>>,:XXXXo++++++++++&=&&",
",----::::>-====#++++&;---:>>>:<222248888744473<111,::::;%%%%&----:2111111111,>>>",
"722221111134447;@##@1w0000000e>o@@o-0888888803>>>>;@@@@+XXX.@0000wappppppppp8444",
"411111111123334-@##@<08888888w>+##+;0888888803>>>>;####@oooX@88880piiiiiiiii7333",
"411111111123333-@##@<08888888w>+##+;0888888803>>>>;####@oooX@88880piiiiiiiii7333",
"3<<<<<<<<,34444=O++O,077774778:+##+;w000800004>,,,;+@+@O... O77778uuuuuiiiii4122",
"yeeeeeeeer1>,,><22220reeetyyyu1+##@-433321<<<>=----,,,,<,,,,1uyyyusssssiiiiiw0ww",
"zkkkkkkkkl>+@@Otxllzdippphlkkz0O##@&>>>>=@@@@@###+;saapslllllkkkkkkkkkjpiiiipppp",
"ljjjjjjjjk>@##+rljjksuiiigkjjl8O##@&,>>>-########@;piiipjjjjjjjjjjjjjjjpiiiiiiii",
"ljjjjjjjjk>@##+rljjksuiiifkjjl8O##@&,>>>-########@;piiipkkjjjjjjjjjjjjjpiiiiiiii",
"xllllllllz,@##+tzkkldippihzllc0O###=<,,,-@#######@;piiipkkjjkkkkkkkkkkkpiiiipaaa",
"urrrrrrrrt=+@@O7spppyrrrreewwr>O@@@$=&&==&&&&$@##@;piiipffffdpppppiiiiuttttt4344",
"%+++++++++OoooX;322223233#   .XooooXXXX.#,>>,-###@;piiiiiiiiy222221<<<<77777O ..",
"=#########+oooX:433333334%XooooooooooooX#>>>>-###@;piiiiiiiiy333332111188888@Xoo",
"=#########+oooX:433333334%XooooooooooooX#>>>>-###@;piiiiiiiiy333332111188888@Xoo",
"&@@@@@@@@@+oooX:433333334%XoooX....XXXX.@>>>>=@@@+;saaaaaaaau444443222200000@.XX",
">====-----@O++O>433344447&XooX$:;;;=####=1111,;;;;>4443477774>>>>>>::::>,,,>%%%%",
"7222244444=@###,433370000&Xoo.<daaae:>>>100000000w<.X..X+++@@@@@@##@@@@XXXXX,222",
"4111133333&@##@>433378880=XooX<aiipw:>>:10888888801XoooO##############@ooooo,211",
"4111133333&@##@>433378880=XooX<aiipw:>>:10888888801XoooO##############@ooooo,211",
"3<<<<34444%O@@+:322247878& XX ,sppaw;::;,088888880<.XX.X@@@@@@@@@@@@@@+XXXXX,211",
"w7774<,<<,,:>>:3wwwwrrrrt,%&&&<w00w822214ewwwwwwwe4$$%$%===&=:::::::::;$$$$$1322",
"spppi&+##+pzkklkjjjjkkkkkdppps2O@@+<apppppppppppppu8000044437pppppppppi733337888",
"aiiii=@##@iljjjjjjjjjjjjksuiia2+##+,aiiiiiiiiiiiipy8888833337iiiiiiiiiu433337888",
"aiiii=@##@iljjjjjjjjjjjjksuiia2+##+,aiiiiiiiiiiiipy8888833337iiiiiiiiiu433337888",
"aiiii=@##+uljjkkjjjjkkkkksiiia2+##+,aiiiiiiiiiiiipy0008833324iiiiiiiiii323337888",
"puuuu&@##+ujhhhhgfffgffffaiiia2+##+,aiiiiuuuuuuuuut7774433324uuuuuuuuuy444447888",
"e8888%@###wpiiie788873321rpiia2+##+,aiiit888873333211111111113333488888888888888",
"e8888%@###wpiiie700073332rpiia2+##+,aiiit888873333211111111113333488888888888888",
"e8888%@###wpiipe788843332rpiia2+##+,aiiit888873333311111111113333488888888888888",
"e8888%@##@eappar800044443tapps2+##+,apppt888873333311111222124444400008888888888",
"e8888&#$$$8reer83444211118rret1#$$#,utttr888874333311121,,,>,1111244444888888788",
"83333,>>>>@XooX+#########+oooX%,>>>>>>>:1088888888723331ooooO#########$888884333",
"83333,>>>>@XooX+#########+oooX%,>>>>>>>:1088888888723331ooooO#########$888884333",
"83333,>>>>@XooX+#########+oooX%,>>>>>>>:1088888888723331ooooO#########$888884333",
"83333,>>>>@.XX.O@@@@#####OXXX.%,>>>>>>>:1w00080000833341ooooO@@@@@####$800084333",
"04444<,,,<%+@@@#%%%%%%%%%@@@@+&,,,,,,,,>174444444432112,ooooO=====%$$$%344441111",
"e888888888433333333311111111121111133333<&===%##########oooX#iiiiy>>>>>=====$###",
"e888888888433333333321111111111111123333<&===%@########@oooX#ipiit>>>>:=====$###",
"e888888888433333333321111111111111123333<&===%@########@oooX#ipiit>>>>:=====$###",
"e888888888433333333321111111111111123333<%===%@########@oooX#ipiit>>>>:=====$@@@",
"w7777777773222222222221111<<<<<111<12222<-;;;=$%%%%%%%%$oooX$ipiiy<<<<,-;;;-%$$$",
"-$$$$$$$$$====-$OOOo:4324&OOOo@#####$$$@2jgggsyyyyyyyyur###@=hjjjhgggggiuuuydggg",
"=#########=====@XooX;4334%XooX+########+2zkkkfippppppppt###@-hjjjjkjjjjaiiiihkkk",
"=#########=====@XooX;4334%Xooo+########+2ljjjfiiiiiiiiit###@-hjjjjjjjjjpiiiihjjj",
"=#########=====@XooX;4334%Xooo+########+2ljjjfiiiiiiiiit###@;hjkkjjjjjjpiiiihjjj",
"=#########=====@XooX;4334%Xooo+########+2ljjjfiiiiiiiiit###@;hjkkjjjjjjpiiiihjjj",
"gdddsyrrrt71222,;;;;%+@@@&:;;=3trry4%&&%2sppaiiiiiy000w8::::;;-==;88888iiiiipppp",
"zkkkkapppp82444<>,,<$.oo.&,,,:8appa0&==&1piiiiiiiiy88884>>>>:@@@@$22223uiiiiuiii",
"ljjjjpiiii82333<>>>,$XooX&,>>:8piip8&==&1piiiiiiipy88884>>>>:####%33333iiiiiiiii",
"kjjjjpiiii82333<>>>,$XooX&,>>:8piip8&==&1piiiiiiipy88884>>>>:####%33333iiiiiiiii"
};
