/* XPM */
static char *result[] = {
/* columns rows colors chars-per-pixel */
"80 80 235 2 ",
"   c #0E0705",
".  c #0E0B0A",
"X  c #120D0D",
"o  c #1B0A08",
"O  c #0D0E10",
"+  c #140F11",
"@  c #131013",
"#  c #1B1518",
"$  c #1B161B",
"%  c #270C0A",
"&  c #350603",
"*  c #281718",
"=  c #231D1D",
"-  c #331110",
";  c #381716",
":  c #2B201E",
">  c #37211F",
",  c #1A1B22",
"<  c #231D23",
"1  c #271F24",
"2  c #252124",
"3  c #2B2323",
"4  c #272529",
"5  c #2B252A",
"6  c #2E2A2D",
"7  c #342523",
"8  c #3A2626",
"9  c #352C2C",
"0  c #3B2C2B",
"q  c #3A312F",
"w  c #2F2B31",
"e  c #312D33",
"r  c #392F30",
"t  c #353135",
"y  c #3B3333",
"u  c #353339",
"i  c #3B363B",
"p  c #363A3B",
"a  c #3D393D",
"s  c #500F07",
"d  c #41130C",
"f  c #6E0F00",
"g  c #452C2B",
"h  c #52322B",
"j  c #443737",
"k  c #433B3E",
"l  c #533A36",
"z  c #56433F",
"x  c #3E3C41",
"c  c #423D42",
"v  c #483C41",
"b  c #623456",
"n  c #484348",
"m  c #554749",
"M  c #4E4A50",
"N  c #544D52",
"B  c #5A4F56",
"V  c #575459",
"C  c #6E5953",
"Z  c #67635D",
"A  c #5C5B61",
"S  c #645D65",
"D  c #6B4D71",
"F  c #4D6F6B",
"G  c #686468",
"H  c #6D6D6D",
"J  c #726B67",
"K  c #76736A",
"L  c #6F6B72",
"P  c #727272",
"I  c #7A7878",
"U  c #7C7C7C",
"Y  c #A61A1A",
"T  c #8C2C2A",
"R  c #9A292C",
"E  c #9A3839",
"W  c #B62B2A",
"Q  c #A83D33",
"!  c #B83932",
"~  c #CA1815",
"^  c #DD251B",
"/  c #E9281D",
"(  c #F82B1B",
")  c #C52925",
"_  c #D62C25",
"`  c #C8322E",
"'  c #EC3126",
"]  c #F43427",
"[  c #9D4439",
"{  c #B45626",
"}  c #B24D3E",
"|  c #F3600F",
" . c #CB4738",
".. c #F54939",
"X. c #AE3D42",
"o. c #CD3E48",
"O. c #944B4D",
"+. c #AF4D50",
"@. c #8E6457",
"#. c #B76C50",
"$. c #945074",
"%. c #AB5668",
"&. c #996A70",
"*. c #867C79",
"=. c #AC746D",
"-. c #BD7574",
";. c #C5474B",
":. c #D1534C",
">. c #EA5349",
",. c #D0724D",
"<. c #C87971",
"1. c #7E9858",
"2. c #6C9170",
"3. c #7EA466",
"4. c #A2981D",
"5. c #958C35",
"6. c #A69B31",
"7. c #9AA73B",
"8. c #B4AD30",
"9. c #D1BC0F",
"0. c #C6BF32",
"q. c #D8C607",
"w. c #CEC319",
"e. c #D8C819",
"r. c #E2CB01",
"t. c #E5C904",
"y. c #E6D704",
"u. c #F4EB06",
"i. c #F0E908",
"p. c #F7F106",
"a. c #CDC52A",
"s. c #D7C925",
"d. c #D6C834",
"f. c #D5D135",
"g. c #E3D42B",
"h. c #EDE92D",
"j. c #8D914C",
"k. c #AF885E",
"l. c #A59B5D",
"z. c #96A848",
"x. c #8FAD51",
"c. c #96AA59",
"v. c #AFB04C",
"b. c #B7B748",
"n. c #A6B258",
"m. c #89827F",
"M. c #9C967A",
"N. c #A89076",
"B. c #8FB16F",
"V. c #A6B373",
"C. c #C6964E",
"Z. c #C6B652",
"A. c #C2817B",
"S. c #C9BD6F",
"D. c #BFC056",
"F. c #AAC46F",
"G. c #CDD24D",
"H. c #D9DC44",
"J. c #E1DB5D",
"K. c #EFE74D",
"L. c #303F80",
"P. c #185C9E",
"I. c #347499",
"U. c #0E55B0",
"Y. c #0758B7",
"T. c #3356A4",
"R. c #186BB1",
"E. c #2C7CB5",
"W. c #4D599B",
"Q. c #705986",
"!. c #526B92",
"~. c #776B84",
"^. c #7A7883",
"/. c #4A6CAD",
"(. c #096AC6",
"). c #106ECC",
"_. c #1973C8",
"`. c #0E77D6",
"'. c #167BD5",
"]. c #2879CE",
"[. c #0979E3",
"{. c #857083",
"}. c #AE7287",
"|. c #3381A7",
" X c #3486B6",
".X c #528A8E",
"XX c #689687",
"oX c #70968F",
"OX c #73AC90",
"+X c #5B9AA9",
"@X c #4892B2",
"#X c #5EAABD",
"$X c #69A7B3",
"%X c #76AAB7",
"&X c #1D83DC",
"*X c #2A82C4",
"=X c #3586C8",
"-X c #2786DC",
";X c #378FD3",
":X c #1C84E4",
">X c #2990EA",
",X c #3A97E7",
"<X c #4799CE",
"1X c #5496C7",
"2X c #6791C6",
"3X c #828282",
"4X c #8C8685",
"5X c #8A8987",
"6X c #898989",
"7X c #978786",
"8X c #938E8D",
"9X c #908D92",
"0X c #919191",
"qX c #9C9D9C",
"wX c #B68785",
"eX c #A5978B",
"rX c #8FAD87",
"tX c #B2AB90",
"yX c #97B2AB",
"uX c #AEAFAE",
"iX c #D0958F",
"pX c #CAA78C",
"aX c #A2C49E",
"sX c #B2C591",
"dX c #CDC78B",
"fX c #D2CBA0",
"gX c #C8CAC7",
"hX c #CCD1CD",
"jX c #D4D5CC",
"kX c #CED3D3",
"lX c #D3D7D6",
"zX c #DADEDB",
"xX c #DCE0DD",
"cX c #E1E1DD",
"vX c #E4E7E4",
/* pixels */
"3XU m.U U 2.{.m.U oX{.2.{.3X3X3X{.4X3XoXK J P H P I *.^.XX*.I *.^.m.U U I I I I U ^.2.^.m.U I I I U I P P P P P P P H H P {.3X3X3X3X3X3X3X5X{.3X3X3X3X3X3X3Xm.oX",
"U U U U U U ^.U I *.U U 3X3XU U 2.^.^.m.L L H H H P {.2.U I I ^.U U U I P P P P I U {.*.U I P I P P P H H P P P H H H H P 2.m.^.{.3X3X3X{.2.*.*.3X3X3X3X3X3XU U ",
"^.I U I I U U U I I *.U 2.m.U U 3X*.{.2.P H H H H I *.U U U U U U U I I P P P P I U I U U I P P P P P P P H H P H H H G L 2.U 2.2.{.2.3X3X3X3XoX3X3X3X3X2.{.2.{.",
"2.U U U U U U U I I U ^.{.{.{.2.{.2.{.^.P H H G H P U U I U I U I U U I I P P I P U U U U I P P P I P H P H P H G H H H L *.^.{.3X{.{.m.3X3X3X3X{.3X{.2.{.3X{.{.",
"{.{.2.*.^.U U U U U U U ^.U U U ^.U U U P G H H G P I U I U U U U *.*.V.n.Z.Z.b.M.oX*.I U U P P I P P P H P P P L J H H L *.U U U *.oX{.{.2.^.m.3X3X3X2.{.3X^.2.",
"6X6X6X3X5X6X6X6X6X6X0X0X0X0X6X3XI I I U P H H G H P P P H P P I I P 7Xt.q.9.t.t.a.I *.I U U ^.*.I XXm.5X3X3X3X3X3X*.oX5X4XL P L H H J P I P P P P P P P P I P I ",
"6X6X6X6X5X9X9X0X0X0X0X0X0X0X0X3XP I I I P G H H H H P P P H P P P P eXt.t.t.t.t.d.m.U 3XU U *.*.{.oX*.5X6X6X6X6X4X6X6X6X3XH H H H H H H L P P H P H P H P I P P ",
"6X6X6X6X5X9X0X0X0X0X0X0X0X0X0X3XI I I 2.P H H H H H P H H P P P P P tX0.9.9.9.g.Z.3XU {.2.{.oX*.3X3X{.5X6X6X6X6X5X5X6X6X3XH G H H H P P H P H P P H P H P I P P ",
"6X3X6X5X6X6X0X0X0X0X0X0X0X0X0X3XI I I I L H H H H H H P P H L P I P 6XdXdXS.dXfXtX2.{.m.U m.oX^.3X3X3X6X6X6X6X6X5X5X6X6XoXH H J H H H P H P P H P P H P P P P L ",
"6X6X6X5X6X0X0X0X0X0X0X0X0X0X0X3X2.P I I L H H H H H P P H H P I P P 6XcXzXgXhXlXhXm.U U U ^.*.*.2.3X3X6X6X6X6X6X6X6X6X6X{.H H H H H L P H H P H H H L H P I P I ",
"U I P U I U I I U I P P P P P P H H P H H H H G H I 5X3X3X3X3XU U U 0XxXlXkXkXkXjXuXU U *.U *.oX{.{.^.U 2.{.{.^.P P P L L I I I U U *.3XU *.I I I I P U U U U U ",
"P P P H H H H H H P H H H H H H H H H G H H H H L 2.6X6X6X6X3XU U 3XkXlXkXkXhXhXgXzX6XU I I I *.2.3XU U U *.2.P H H H H H *.oXm.3X3X3X{.oX*.^.I I I U P U U {.2.",
"P P H P P P H H H P H H H H H H H H H H H H H H G ^.6X6X6X6X3X{.U gXzXkXkXkXkXkXhXhXhXU I U ^.U {.{.3XU U I U I H H H H P 3X3X{.3XoX*.2.{.*.{.U P P U U U U U U ",
"P P H P L L P P P H H H H H H H H H H H H H H H L *.6X6X6X6X3X2.gXzXlXkXkXkXkXkXhXgXhXuXU U U U {.2.*.U U U U P H H G H H *.{.2.5X{.*.{.2.*.oXI U I U P U U ^.m.",
"P H H P G J L H H H H H H H G H G H H G H H H G H ^.6X6X6X6Xm.uXcXzXkXkXkXkXkXkXhXhXgXkX0XU U U U {.^.2.U U U I H H H H P 3X3X3X2.{.3X3X{.3X{.U I I P U U 3X2.{.",
"^.U I I *.oX*.*.*.oXU U U U U I I P I I P H H P H P I I I P U cXzXlXkXkXkXkXkXkXkXkXhXgXgXI I P P I I L P P P P H G H H P 6X6X6X6X6X3X3X3X3X2.^.U {.2.U U 3X{.{.",
"3X3X3X3X3X6X6X6X6X6X6X6X6X6X6X3XU 3X3XoXK L L P P H H G H G uXvXxXxXzXzXzXzXzXzXzXzXlXjXgXqXH H P H H H G H H G H H H H H 0X0X0X0X6X3X{.2.{.3X3X3X3X3X3XU U U 2.",
"*.oX3X{.3X6X6X6X6X6X6X6X6X6X6X3XU U {.{.I J H P P H H H H H qXm.I I I P Z Z J J J Z Z P Z *.P P P P H H H H H H H H H H P 0X0X0X0X9X3X3X3X5X3X3X{.3X{.2.I *.U {.",
"3Xm.{.2.^.5X6X6X6X3X6X6X6X6X6X3XU 2.{.2.P P P H P H H L H H V y q y y =         # 9 k m m l U P H P L H H H H H H H G G P 6X0X0X0X0X3X3X3X*.{.3X3X3X3X3XoX*.I *.",
"3X3X3Xm.m.6X6X6X6X6X6X6X6X6X6X3XU {.3X3XI H P P L H G G H H k y p z i $ .     X 4 N S S m h m.H H H H H H G H H H H H H P 0X0X0X0X9X3X{.oX*.2.{.3X3X3X3XU U {.XX",
"oXU U U 2.{.oX*.oX*.*.3X5X{.3XP P P P P P P P P P U 2.I 2.U y 9 q i i # . . . X 4 M G S m l 4Xm.m.2.^.U 2.{.^.U H H H H H 4X3X3X{.3Xm.2.^.I *.oX{.2.*.U U I ^.U ",
"*.U U I ^.*.U *.m.{.U U oX2.{.I G H H G P P P P I {.9X9X9Xm.y q 9 u p # . . . + 9 A L G B m *.5X9X9X6X6X6X9X6X5XH H G H H 2.2.{.I *.U U U *.I m.3X{.*.oXI I P I ",
"I I U U U U U U 2.{.U *.*.*.{.P H H H H P P I P I 2.6X6X{.3Xq 9 y i i # . . O O w A P G N l J 6X{.6X5X5X6X5X6X3XH H H H L *.{.{.*.oX{.{.*.U U 3X3X3X3Xm.I P I I ",
"{.I U U U U *.^.^.U U ^.I I 2.P G H H H P I P P P {.6X6X6XU q 9 t i a # . . + O w V L G N l C 6X6X6X5X5X6X5X6X3XG H H H H I *.oX3X{.2.2.^.U U 3X3X3X3X3XI I I I ",
"2.U U U U U U U U U U oX2.{.{.P H H H G P P P P P oX4X4X6XU q q y a a $ X X X X 5 N S G M j C 6X6X6X6X6X5X5X4X*.H H H H H 2.{.oXU U U oX*.*.U 3XoX{.*.oXI I I U ",
"{.I L I P I I I I I L J P H I P H H H H H H P H P I I I I U y q q a x 2 X X X + 5 n N g g > *.3X3X3X3X{.3X3X{.oXP P P P P P P J P P P I I L P I K I P I P I P P ",
"P P H P P P P P P P H H H H H H H G H H H H H H H H L H K 3Xj q 9 x n 2 . X X + 6 M A N k > 4X^.2.{.U U oX*.U U I I P I I H L J H H P H H P P H J L H P P P P I ",
"P H P H P P I P P I J H G H H H H H H H H H H H H H H P P m.j 9 9 a k = . . o # e N S B k 8 4X*.U 3XU U I *.U m.P U U I P H G L H H H P H L H P P L H P P I P P ",
"P P P H P P P I I P H H H H H H H H H H H H H G H H H L P 3Xj y i k p : . . X # w M L L m > 4XU *.{.{.2.^.^.m.^.P I U P P H H H H H H P H P P P P P H P P P P I ",
"P H H P P P P P P P H H H H H H H H H H H H H H H H P L H 4Xj j k x a 2 . . o + 4 M G G n g 7XU ^.2.3X{.{.2.2.{.I I I I I H G H H H H H H H H H H H H H L I P P ",
"U P U P P P U P I I P P P I L L H H H H H U P I I I I P I 0Xj q q p x 2 . . X @ w M V N k h 7XU U U U U I I I P P P P P P P P P P U U U U U U U U U *.U U I I I ",
"U U U U U U U U U U ^.U U 2.{.U H K P H 2.{.3X3X3X*.oX*.3X5Xk k a p x 6 O O @ @ 4 x A V M i H I I U P H H P H H H H H H P 3X3X3X3X3X6X6X6X6X6X6X3X6X6X6X3X{.2.^.",
"U U U U U U I I U U 2.{.U *.oXP P H P H U 4X{.*.*.*.{.3X3XI a p p u j 1 . . X o 1 n G G V m z *.*.I P P H P H P H H H H H *.U 2.2.{.8X6X6X6X3X6X6X6X6X3XU U ^.U ",
"U U U U U *.I I U *.{.{.U I *.P H P H P U {.2.*.^.oX5X{.3X=.` ) ) ! D B Y Y R E X.;.>.>.>...;.*.P I I H P P P H H H H H H oX{.{.m.{.6X6X3X5X6X6X6X6X6X6X*.I *.U ",
"U U U U U I I I U I U 2.U ^.^.P H H P H U ^.3XoXm.U m.2.U -.] ( ( }.E.E.T.T.T..XI.].2XwX......oXU U I H L H H H G G H G L 2.3X3XoX*.6X6X6X5X5X5X6X6X6X6XoX*.U U ",
"5X3X3X3X3X^.oX6X3X3XU I I U I I U U U U 3X3X3X3X3X3X3X4X3X-.] ( _ W.@X1.R.Y.U.7..X[.,X#Xl./.:.{.P P P I P U U U U I I I {.6X5X6X3X5X6X6X9X6X6X6X6X3X6X6X3X3X3X^.",
"0X0X0X0X0X0X0X0X0X0XU H H P H 6X0X0X0XqX6X6X6X6X6X0X0X0X9X<.' | D _.;Xx.F Y.Y.z..X[.>XB.OX:X}.H H H P 5X6X6X5X6X0X0X0X0X0X0X0X0X0X0X0X0X0X0X0X6X6X6X6X6X6X6X6X6X",
"0X0X0X0X0X0X0X0X0X0XI P P H H 3X0X0X0X0X6X6X6X6X6X0X0X0X9XiX;.k.l.R.).2.j.(.P.6.c.<X,XF.@X,X=.P P P U 6X6X6X5X6X0X0X0X0X0X0X0X0X0X0X0X0X0X0X0X6X6X3X6X6X6X3X6X6X",
"0X0X0X9X0X0X0X0X0X0XP P H P P {.0X0X0X0X6X6X6X6X6X6X0X0X9X}.o.!.v..X_. X5.!.j.6.q.f.aXF.:X=Xl.P H H I 6X6X6X5X6X0X0X6X0X0X0X0X0X0X0X0X0X0X0X0X6X6X6X6X6X6X6X6X6X",
"qX0X0X0X0X0X0X0X0X0XU H P P P 4X0X0X0X0X6X6X6X6X6X0X0X0X9XA.{.`.|.n.|.`.2.j.9.N.D.y.K.%X>X2.XXP P H P 6X6X6X5X6X0X0X0X0X0X0X0X0X0X0X0X0X0X0X0X6X6X6X3X6X6X6X6X6X",
"3X3X3X5X3X3X3X5X3X5XP H H P H 2.5X6X9X6X4X3X3X5X3X3X3X3X3XN.@XR.(..Xx.;XXXj.q.@.K y.J.aXOXB.=XI P H P 6X6X6X5X6X0X9X6X9X6X6X6X6X6X6X6X5X5X6X9X{.5X6X5X6X^.U {.2.",
"P P H H P H P H P H H H H H H P {.2.2.{.^.*.U ^.U L H H G &.c.2.(.&XB.v.n.5.6.4.4.8.H.H.G.OX-XP H P I 6X3X5X6X6X6X6X3X6X6XU U U *.^.U U P U 2.{.^.{.2.{.H G H H ",
"P P P P P H P H P H H H H H H U {.{.{.{.*.3X2.{.{.I G H H ^.E.x.3.+XrXf.s.w.4.6.8.g.i.p.h.%X+XI P H I 6X6X6X6X6X4X5X5X6X4XI U U 2.{.U U ^.U U {.3XoX{.3XP H G H ",
"P P L H P P H P H P H H H H G P 3X2.3X2.^.{.2.{.2.P H H H ^.'.`.OXD.f.e.q.q.s.q.y.i.p.p.g.=.=.P H P P 6X6X6X6X5X6X6X6X6X3XI *.oXU U U U U U U 2.*.*.2.m.H H H H ",
"P H H L H P H P H H H H H H H P 2.^.U U 2.oX*.*.{.P H H H ^.Y.].^.N.g.t.w.{ O.f.e.h.d.,.,.! #.P H H I 6X6X6X8X5X6X0X6X6X6XU *.U U m.U U 2.^.U *.{.2.{.3XP G H H ",
"I P I P P P P P I I P H H H H I {.*.U U {.{.*.I *.P H H H l.z.@.+.+.G.e.0.+.E k.[ :.:.+.+. .iXI I P P oX{.2.U ^.3X{.2.^.^.U I I I I I P I P I U I U U U P L P P ",
"^.U U U U U oX*.{.3XP H P H L U {.oX*.I {.{.oX*.oXJ H H H I oX .pXtXZ.Q O.+.R W [ ! :.gXiX;.<.6X3X3X*.G H G G H H L H P H H H P P H P P L L H H G H H H I U U U ",
"2.U U U U U *.I {.2.P H P P H I *.*.*.oX3X2.m.{.*.P H H H ^.-X%._ pX#.E T R R ~ O.tX>.iX<.-.N.{.{.3XU G H H H H P P H P P P H P H P H L P L H H H H H H I U U U ",
"{.{.U U U U U I *.I P L H P H I {.{.oX*.U {.3XoX*.P J H H ^._.oX ._ ) R 7X+.[ } +.%.pXA.S.sX1X6Xm.6XU H H H H H P H H P P P P H P H P H P P J H H H H G I U U U ",
"{.2.U I U U U oXU U P H P H H I 2.U *.I {.2.3X3X*.L G H H I z.M.yXW ! } O.&.@.tXk.S.h.h.p.H.].9X2.{.I H G H G H P H P L H H P H H L H P H H H G H H H H I I U I ",
"3X{.{.2.U U I I I U I I I I I U 3X3X3X3X6X3X6X3X3XU P P I 3X2.%.&.} tX@.j.n.0.w.r.i.u.p.h.G.B.9Xm.4XU P P P P P P I I P P I P I I I I P I P I L P P L P I *.U U ",
"0X6X6X9X6XP H P P L 5X0X0X0X0X0X0X0X0X0X0X0X0X0X0X6X6X6X6X0X/.` [ eXa.e.e.t.q.q.y.y.p.p.J.%X.X0X6X4X{.oX3X3X*.*.2.{.U U 2.6X6X6X6X6X6X6X6X6X6XoXU U U U *.oX3X^.",
"6X5X6X6X6XP H P P P 6X0X0X0X0X0X0X0X0X6X0X0X0X0X0X6X3X6X6X7X].2X1XXXw.e.q.q.q.y.y.i.h.K.G.<X).0X5X6X5X^.3X3X{.oX2.3X2.U {.6X5X5X6X6X3X6X6X6X{.2.U U U U U {.*.*.",
"6X5X6X6X6XP H P H H 6X0X0X0X0X9X0X0X0X0X8X0X0X0X0X9X5X5X6XwX{.E.R.x.B.n.w.w.w.q.s.g.H.aXsX3./.6X5X6X3X*.{.3X*.*.{.{.{.U {.0X6X6X6X6X6X6X6X6X9XU U U *.*.*.oX*.oX",
"6X6X6X6X6XP P P P H 6X0X0X0X0X0X0X0X0X0X0X0X0X0X0X9X6X6X6X}.( $.1.2.E.XX8.x.v.a.B.sXf.#X;XB.m.8X6X6X6X*.oXm.2.oX{.2.^.U m.5X5X6X6X6X6X6X6X6X6XU U U 2.oX*.*.oX{.",
"6X5X5X3X3XP P H P H 6X0X6X0X0X6X0X6X9X6X0X6X0X6X6X6X6X6X6XeX] #.x.].(.2.1.|.XX7.@X<XF.yX,X@XC.8X5X3X3XoX*.*.{.{.3X{.*.{.2.{.oX5X3X6X5X3X5X5X5XU m.U {.{.U 3X*.*.",
"{.*.3XU *.P H H H P 3X6X6X5X5X3Xm.oX*.2.{.3X^.I ^.3X6X5X4XwX/ { F -X_.7.!.(.|.7. X:X$XF.,X&X,.7XU U U I I U U U U U I U U U U U U ^.m.*.*.^.3Xm.3X3X3X3X3X*.{.*.",
"3X*.oX*.oXP P P P H 3X6X4X6X6X3X^.3X*.{.2.{.U U U 3X6X6X6XN.^ Y b _..X8.R.(.R.b.=X`.*XF.+X%.%.4XU U U U U U U U U U U U I U U U U *.oX*.3X3X^.U {.{.2.^.*.*.oX*.",
"3X3XoX*.*.L H P P P oX6X6X5X6X3X3X3X3X3X{.*.oX*.U 3X6X5X6XwX/ ^ / W.2.rX_._.I.7. X&X:X%X:.] ;.7XoX*.U U U U U U U U U U {.2.^.2.U ^.oXU 2.{.5X*.5XoX*.*.oX*.3XoX",
"3X3Xm.{.*.P H P H H *.6X6X6X5X6X3X3X3X{.3X3X*.I ^.5X6X6X5XwX( / ^ b O.S P.P.P.F !._.'.W.] ] ( 8XI I U U I I U I U U U U *.3X{.{.U *.*.m.{.4XoX*.*.*.*.oX{.*.{.4X",
"3X{.3X3XoXJ L L P P U 3XoX{.3X3X2.{.{.2.U U U U U 3X5X3X3X7XW ) ) _ _ ) W b L.W ) Q./.+.` Q T 4X*.U U U *.U ^.U I I I I U U I U U U U U ^.*.*.oX*.oX*.*.{.3X3X{.",
"3X2.2.{.U I I I P U H H G J H P H P P P H P H P H H H H H I : = 1 8 r 8 % % % * * y j c x t : 5X^.3X*.U {.2.U U H H H H L P P H H P P P P L J U ^.3X^.*.2.{.3X2.",
"3X3X{.3XU I I I U I H H H H H H P H H P P H P H P H H H H P 7 1 1 6 6 2 . . . O $ e x n a i g 4XoX*.oX*.U ^.U ^.H H H H H H P H H P H P P H L m.3X{.3X3X{.3X2.U ",
"3X{.2.{.U I I I U P H H H H H H P H P H P P H P H H H H H P 7 1 6 e e 1 O O + O $ t M N j q > {.*.^.*.I U *.^.2.H G H H H P H P P H P P H P I 3X3X2.^.m.2.{.{.U ",
"3XU {.2.{.U U P I I P H H G L J L H H P P H P H P H H H H P 3 : 9 u a 9 + . X @ $ u M N v y 7 6X3X3X3XU U U U U H H H H H H P L H H H P P P P oX{.m.oX*.U U U U ",
"3XU {.2.3XU U U {.2.P L P H P L I L P P H P P P P H H H H P : 3 5 e a u + + + + $ x n v u j 7 {.*.oXU *.U U U U H H H G H P P P P I P H P H J I I oX*.I U U U U ",
"3X3X3X^.^.*.U 3X{.3XU *.U U U 2.^.*.U U I U I U U U U U *.2.: 7 6 w t u @ + + @ $ c n n c i 7 U J P P H P P H P H H H H P 5XoX4X6X5XI I I I I I P P P P P H P P ",
"3X3X3Xm.{.*.oX*.2.{.U *.U U *.^.2.U U U U U U U U U U I I I : 3 6 w e u # . @ @ 2 a n v c x 8 I L L H P H H P H H H G H P 6X4X4X6X3XI I P I I L P P I I P L H P ",
"6X3X{.*.m.3X3X3X{.5X2.oX{.2.{.2.{.{.U ^.2.{.U U U U U I ^.U 3 3 3 6 w y 1 X + @ 4 n n u x x 0 *.H P H P P H P H H H H H H 5X6X5X5X{.I I I I I P P P I P P H P H ",
"3X{.2.*.2.{.3X3X3X{.{.{.^.m.{.^.{.2.U U U *.U U I I U U *.*.7 3 = 5 w e y 5 $ < u x i 5 6 y 8 U P H P P H P H P H H H G P 5X6X5X5XoXI ~.I I I P P P P P P P H P ",
"3X{.U oX*.3XoX*.3X2.U U U U 2.{.3X2.{.*.U U U U U U U U U m.8 = * # w w e e 5 w u i < # * 8 8 *.P P P P P P P P H H H H P 6X6X6X5X3XI 2.I I I P P I I P P P P H ",
"I P P P P L L J P P P P I P P P L H L H I ^.U U U P H H H I 8 * * % = 6 6 1 1 1 w 5 o % * 8 8 0X6X3X6X3X6X3X6X3XH P H H P 9X0X0X0X0X0X0X6X9X9X6X6X5X6X3X0X6X9X0X",
"P P P H P H P P H P P P P P P P H H H H U {.U U 2.L H H G 2.; ; - & o 3 2 1 , < < # % % * ; m 6X6X6X6X6X6X6X6X6XL P H P U 6X0X0X0X0X0X0X9X0X9X6X6X6X6X6X6X0X0X0X",
"P P H P H P P H P H P I P I I H H H G H I 2.U m.{.P H H H H l d d s & # 2 < $ $ $ o & & d d C 6X6X5X5X5X5X6X5X3XP H P H P 0X0X0X0X0X0X0X0X0X0X5X6X3X6X6X0X0X0X0X",
"P P P H H P H P P H P P P P P H G H H H I U {.^.3XP H H H H K d s f s l 5 1 < $ i m - & & h 9X6X6X6X5X6X6X4X6X{.H P H P U 6X0X0X0X0X0X0X0X0X0X6X6X6X5X6X0X0X0X0X",
"P H P P P H P L P P P I P P I H H H H H P ^.2.^.{.P H H H H H {.J @.{.L N 4 , 2 {.8XqX*.4X8X6X6XoX6X6X6X6X6X6X9XP H P H P 0X0X0X0X0X0X6X0X0X0X6X3X6X5X5X6X0X0X9X",
"0X6X0X6X6X5XoX*.3X3X2.{.*.^.m.I P P I P P H H P H P U P I P 2.{.3X3X6X*.P {.2.U m.6X6X6X6X6X6X6X{.5X3XoX*.{.3X2.I P P I P P P P P U 3X3X3Xm.{.6X6X6X6X6X6X6X6X6X",
"0X0X0X0X0X6X6X6X6X6X{.I {.2.^.U I I U U H H H H H P I U U P 3X0X6X6X6XoXP I P P U 6X6X6X3X6X6X6X6X5X6X*.oXm.{.I I I I I I P P H H P U U U U 2.5X6X6X3X6X6X6X6X3X",
"0X0X0X0X0X6X6X5X6X6X*.I {.3X{.U I I I P P H H H H P U P I I 3X6X6X6X6X3XP P P P U 6X5X5X5X6X4X4X4X6X3X3X*.^.3X*.I I I P P L H H P P U U U U U 6X6X6X6X6X6X6X6X6X",
"0X0X0X0X0X6X5X6X5X6XoX*.2.{.2.{.I I I U H G H H H P U P I I 3X6X6X6X6X3XP P P P U 6X6X5X5X5X5XoX6X6X6X3X*.*.oX*.I I I I XXL P P H P U U U U ^.6X6X3X6X6X3X6X6X6X"
};
