/* XPM */
static char *result[] = {
/* columns rows colors chars-per-pixel */
"80 80 250 2 ",
"   c #000000",
".  c #0B0201",
"X  c #0C0904",
"o  c #070609",
"O  c #0B0B0B",
"+  c #140000",
"@  c #1B0000",
"#  c #130C05",
"$  c #14010A",
"%  c #17070B",
"&  c #1A1207",
"*  c #151108",
"=  c #100A11",
"-  c #141313",
";  c #191716",
":  c #1A1A1A",
">  c #240000",
",  c #2C0000",
"<  c #26070C",
"1  c #340000",
"2  c #3A0000",
"3  c #38020B",
"4  c #251706",
"5  c #231609",
"6  c #241A0B",
"7  c #2A1C0C",
"8  c #280114",
"9  c #380217",
"0  c #261816",
"q  c #391B11",
"w  c #2D210F",
"e  c #35220D",
"r  c #3A250E",
"t  c #2C2317",
"y  c #372715",
"u  c #3B2B1C",
"i  c #1C1E22",
"p  c #2B1520",
"a  c #1D2421",
"s  c #232323",
"d  c #2B2B2A",
"f  c #362924",
"g  c #3C352A",
"h  c #2C3033",
"j  c #343433",
"k  c #3A3939",
"l  c #42090C",
"z  c #46021B",
"x  c #532D0E",
"c  c #432C14",
"v  c #452518",
"b  c #493318",
"n  c #573818",
"m  c #6C3805",
"M  c #603D1B",
"N  c #4A0025",
"B  c #570228",
"V  c #59122B",
"C  c #670732",
"Z  c #660F30",
"A  c #6C0936",
"S  c #6E0B39",
"D  c #730635",
"F  c #731738",
"G  c #493927",
"H  c #4D302F",
"J  c #563C25",
"K  c #443A37",
"L  c #6D2D32",
"P  c #77440F",
"I  c #67441D",
"U  c #73431A",
"Y  c #4F442C",
"T  c #57412A",
"R  c #46423D",
"E  c #554738",
"W  c #6A4723",
"Q  c #754C28",
"!  c #7B5226",
"~  c #7B5229",
"^  c #634D38",
"/  c #754739",
"(  c #6C5134",
")  c #765737",
"_  c #7B623A",
"`  c #393E42",
"'  c #642D43",
"]  c #3E4042",
"[  c #434444",
"{  c #484848",
"}  c #4D4C4C",
"|  c #584A45",
" . c #59504C",
".. c #4A4E53",
"X. c #4D5155",
"o. c #545454",
"O. c #585759",
"+. c #5B5B5B",
"@. c #644545",
"#. c #6C524F",
"$. c #765849",
"%. c #625B59",
"&. c #5E605B",
"*. c #736655",
"=. c #5C5E62",
"-. c #5F6165",
";. c #646363",
":. c #676767",
">. c #6D6D6D",
",. c #726C68",
"<. c #707171",
"1. c #737373",
"2. c #7A7474",
"3. c #7C7C7C",
"4. c #842937",
"5. c #88343A",
"6. c #844D16",
"7. c #99581C",
"8. c #BB5400",
"9. c #875829",
"0. c #845B33",
"q. c #935234",
"w. c #8B6236",
"e. c #976630",
"r. c #946432",
"t. c #9D6A35",
"y. c #9A6938",
"u. c #BB6F27",
"i. c #A36C33",
"p. c #A46E39",
"a. c #A7733A",
"s. c #B5793C",
"d. c #CC7014",
"f. c #D27E29",
"g. c #842C41",
"h. c #903846",
"j. c #96474A",
"k. c #9A5547",
"l. c #924B51",
"z. c #995453",
"x. c #A2534A",
"c. c #A84E5C",
"v. c #A45854",
"b. c #866644",
"n. c #976E45",
"m. c #9C7249",
"M. c #8A7256",
"N. c #977757",
"B. c #AA6C4A",
"V. c #A97947",
"C. c #B37C44",
"Z. c #B47E4A",
"A. c #A96455",
"S. c #AB6857",
"D. c #B6695C",
"F. c #A97757",
"G. c #B87B5A",
"H. c #9A5E61",
"J. c #9D6666",
"K. c #89796E",
"L. c #A87578",
"P. c #B47070",
"I. c #D4787A",
"U. c #7C807E",
"Y. c #B2803F",
"T. c #DC8B39",
"R. c #B68349",
"E. c #BD844C",
"W. c #AF8555",
"Q. c #B88656",
"!. c #BE8954",
"~. c #BB8C5D",
"^. c #96836E",
"/. c #BB8C61",
"(. c #AD906F",
"). c #BCA07B",
"_. c #C68849",
"`. c #CD934A",
"'. c #C38C55",
"]. c #C98C50",
"[. c #C28D5B",
"{. c #C69857",
"}. c #C4915D",
"|. c #CB945D",
" X c #D5985A",
".X c #EC9946",
"XX c #C58962",
"oX c #C49362",
"OX c #CA9663",
"+X c #CC9966",
"@X c #C5986C",
"#X c #CD9B69",
"$X c #D29C65",
"%X c #DB9F64",
"&X c #D19E6A",
"*X c #D09B74",
"=X c #D7A766",
"-X c #D5A36C",
";X c #DBA46D",
":X c #DBAC6E",
">X c #D9A775",
",X c #D0A971",
"<X c #DCAA72",
"1X c #DEB371",
"2X c #E5AC6B",
"3X c #E4AC73",
"4X c #E5AE79",
"5X c #E6B476",
"6X c #F5BA7B",
"7X c #F2C276",
"8X c #7E7F81",
"9X c #9D6A9C",
"0X c #AE7A94",
"qX c #AA77AA",
"wX c #7E8181",
"eX c #828282",
"rX c #868789",
"tX c #8A8A8A",
"yX c #8E8F90",
"uX c #8F9290",
"iX c #919192",
"pX c #969798",
"aX c #9B9B9B",
"sX c #BA878F",
"dX c #BA8798",
"fX c #B8989B",
"gX c #9EA6A8",
"hX c #A6A7A6",
"jX c #C18E94",
"kX c #C99696",
"lX c #D79A9A",
"zX c #D29D9D",
"xX c #D9AB91",
"cX c #CBB296",
"vX c #E8B785",
"bX c #F1B884",
"nX c #D9A6A3",
"mX c #C9B8A3",
"MX c #ECBAB8",
"NX c #FECD8B",
"BX c #FDCA96",
"VX c #FFD2A2",
"CX c #FFE4A5",
"ZX c #C28FC4",
"AX c #99C2E4",
"SX c #DCD3CB",
"DX c #FDCCCC",
"FX c #D6F6FF",
"GX c #EBE8E3",
"HX c #FAF8F9",
/* pixels */
"eX3.^.8XU.^.8X8X3.8X8XwX8XwXwXwXwXeXwXeX2.1.<.<.<.2.wXwX8X8X3.3.8X3.^.8X1.3.1.8X3.8X3.eXU.3.2.2.3.3.1.1.1.1.1.1.<.<.<.<.1.eX9XU.U.U.^.wXwXwXrXwXrXeXrXeXeXeXK.wX",
"3.3.8X8X3.2.3.3.3.3.3.3.3.3.3.3.3.wX3.3.1.>.>.>.:.2.3.3.3.3.3.3.tXgXhXpX] o o   o   O +.aXhXpX8X1.1.1.<.<.<.1.<.>.>.>.>.,.3.U.U.U.U.wXwXeXwXwXwX8X8XU.9XeX3.wX8X",
"8X1.1.8X3.3.3.3.3.3.3.3.8X8X3.3.3.3.3.3.<.:.>.>.>.2.3.3.8X3.8X^.tXtXrXU.| b G G b q 7 | tXrXtXeX3.1.1.<.<.,.<.<.>.>.>.>.,.U.U.U.U.U.9XwXwXwXeXK.^.U.U.U.wX3.3.3.",
"8X3.3.3.3.3.3.2.3.3.3.3.3.8X8X^.3.wX3.8X1.>.>.>.>.1.3.3.1.8X8XiXtXk = t ~.4X&X-XE.t.s.Q # - } tXeX2.1.<.<.<.<.<.>.:.>.:.>.U.1.U.U.U.U.8XeXeXwXeXwXU.U.U.3.U.3.U.",
"8X8X3.3.3.3.3.3.3.3.3.8X8X8X3.3.U.3.3.3.1.>.>.>.>.1.3.3.3.wXtX3.| ( b.(.BXNX&X;X&X|. XQ.) m c X.wXrX2.<.<.<.<.,.>.>.>.<.>.U.U.U.K.8X8X8X8X8XeXwXwXwXU.wXU.U.wXU.",
"rXwXrXeXrXtXyXyXtXiXtXtXrXyXtX8X1.3.3.3.<.:.>.>.>.>.1.1.2.tXrXR b 5XCXVXBX>XoX+X+X&X&X>X4X2X9.0 O.pXtXrXrXeXrXeXeXrXwXwXU.<.<.,.<.>.1.1.1.1.1.<.<.<.<.<.2.2.1.1.",
"tXtXtXtXtXyXyXiXiXiXiXiXiXiXiXwX1.3.3.2.<.>.>.:.>.>.<.1.tX3.j ( bXBXvXOX+X+X$X+X+X+X+X+X&X&X|.t.y { iXpXtXtXtXrXtXtXrXyX^.:.>.>.>.>.<.<.>.<.>.<.<.<.<.>.1.1.2.1.",
"tXrXtXrXrXyXiXyXiXiXyXiXyXiXiXwX3.1.3.2.<.>.>.>.>.>.1.rX3.{ b V.bXvX-X|.oXOX+X+X+X+X+X+X+X&X;X|.! c -.iXpXtXrXrXtXtXrXrXwX>.>.>.:.>.<.<.<.<.<.>.<.<.<.<.1.1.1.3.",
"tXtXrXrXtXyXyXyXiXyXuXyXiXyXiXeX3.1.3.3.<.:.>.>.>.1.tXrX` q s.$X-XoX+X+X+X+X+X+X+X+X+X+X+XOX#X*X%X9.t =.aXpXrXtXrXrXtXtXeX>.>.>.>.>.1.1.>.1.<.<.<.<.<.<.1.1.1.1.",
"tXtXtXrXtXiXiXiXiXiXiXyXiXiXiXeX3.2.1.3.<.>.>.<.<.tX8Xk O G |.;X+X+X+X+X+X+X+X+X+X+X#X+X+X+X+X+X;XW.t : O.pXiXtXtXrXtXtXrX>.:.>.:.:.1.>.<.>.<.<.>.<.>.>.1.1.1.1.",
"3.2.1.2.2.2.3.2.2.2.2.1.1.1.2.1.<.>.<.<.>.<.3.1.2.eXo.-   J &X3X+X>X&XOX+X+X+X+X+X+X+XOX+X-X-X$X3X/.y   i ;.tXrX2.U.2.1.1.3.3.3.3.3.3.3.3.3.3.1.1.3.3.1.8X8X3.1.",
"1.<.<.>.<.<.>.>.>.1.>.>.>.:.>.>.:.>.>.>.>.2.uXaXrX{ i i O T +X3XoX'.oX&X+XOX+X#X+X+X+X+X&X[.[.+X3X~.y O s : O.aXpXtX1.>.<.eXU.U.eXeXeXeXeXeXK.8X2.3.3.2.3.3.3.3.",
"1.<.<.<.>.1.>.1.<.<.>.>.>.>.>.>.>.>.2.rXU.U.O.] ] j O . x n.&XvXZ.m p.vX+X+X+X+X+X+XOX>X>X9.P oXvXoX0.r   : j ] ] ;.wX8XeXrX^.wXeX8XeXeXwXwX8X3.3.3.1.3.8X8X8X8X",
"1.<.<.<.1.1.1.>.<.<.>.>.>.>.>.<.1.<.wX8XtX>.s o o i s J a.$XOXC.m.^.B.p.oX#X+XOX+X+X&X[.p.F.N.n.Z.%X X9.e : i   O h 8XwXeXtXwXwXeXeX3.eX8XwX3.3.1.3.3.1.1.8X3.3.",
"1.>.<.<.>.>.>.>.>.>.<.>.:.>.>.wXpXuX2.h s 0 , 1 + o ^ $X-X>X'.P n.GX(.m !.>X#X#X#X+X>Xp.m mXSX0.6.*X<X'.r.7   > 1 < 0 s ` iXgXaXtXeXeX3.eX3.8X2.3.1.1.3.8X8X3.8X",
"3.3.3.2.3.8XeXwXwX8XK.U.3.wXtXtXX.X.| J X + B D 9   ( >X(.(.oXC.n.N.m.V.@X-X[.}.oX+X,XoXp.N.N.y.E.*X^.W.t.w . B D N   * J o.=.>.aXiXeXeXeXeXwX3.3.3.3.8X8X^.3.3.",
"eXeXwXwXwXtXtXtXtXtXtXtXtXpXpX>.G & W a.c 9 B D 9   ) @X,.,.-X5XZ.P p.:X_. XxXvX>X#X]. X;X9.6.oX5X/.:.*.r.e   B C N 8 J a.x X f 3.aXrXU.wXeXU.U.U.wXwXeX3.3.3.3.",
"eXwXwX8X8XrXrXtXtXrXrXtXaXaXX.$.vX~.s.t.F z 3 l @   ) /.| | #X3XoX!.OX Xd..XVXVXvX+Xd.d.$XXX!.+X3X/.{ E w.r   1 3 l N 5.a.9.9.! f :.pXtXwX^.9XeXU.U.wX^.8X3.8X3.",
"rXeXwXwX9XrXtXrXtXtXtXiXtX&.*.D.P.c.h.4.B 8 + + .   ( V.t G OX'.!.>X>X|.T.T..X.X.Xf.f.T.&X<X;XZ.OXW.t y t.b   , 2 , 8 V 5.5.5.4.V Y >.iXrXwXwXwXwXwXwXwX8X3.8X3.",
"eXeXeX^.U.rXtXtXtXtXpXpX&.E vXD.B D D B $           b W 4 T OXR.t._.'.R.Q.u.8.8.8.8.s.~.Q.|.Z.e.'.Q.u q Q y   > 2 , . 8 B C C F q.U y 1.uXrXwXwXwXwXwXwX3.8X3.8X",
"wX3.wX3.U.U.U.U.wXpXtXX.M.*Xh.j.G.XX/ $             . 4 M V.OXC.r.i.t.t.y.e.7.7.7.7.i.y.t.i.e.r.Q.oXy.n & o   . > 2 , + % M B.G.g.4.m.E =.uXtXeXeXwX8XwX8X3.3.3.",
"3.3.3.3.U.U.U.U.yXyX:.^ D.I.g.B.5X7X_ X               6 p.2X|.e.) iXfXcXcXcXmXmXmXmXcXcXcXhXK.0.p.%X].I .       . @ > . . U `.5Xv.j.D.L G 1.pXtXeXeXwX8X3.1.1.3.",
"3.3.3.3.3.U.U.tXpX..Y BXc.C }.:X#X3X_ O               t F.bX'.P  .AXFXHXHXHXHXHXHXHXHXHXHXFXgXJ 7.$XE.n .               X I R.#X1XF.C S.W.t >.aXrXeX^.wX3.3.1.3.",
"wX3.3.2.3.U.wX^.aX] b 5Xl.V $X(.K.,X) X               0 W.bX|.P I ^.fXkXfXdXfXfXfXfXfXfXfXhXM.x 9.$XE.n X               . Q n.K.,XG.B D.~.6 ;.aXeXU.wX8X2.1.8X1.",
"3.3.3.3.3.3.tXiXrX .I k.j.c.oX,.X./.) .               6 m.3XOX9.m P 0.l.H.J.H.J.J.H.J.H.k.Q m P p.&XE.I .       . + +   . ! b...^.|.j.c.k.c  .iXtXrXwXwX3.3.3.3.",
"2.3.1.1.2.U.iX3.j b.G.A x.<X&X$.j y.I .               & ~ '.$XR.Q j  .P.kXzXkXkXkXkXzXjXJ.{ g 9.'.%XC.n .     . @ 1 1 + X ! ) j M.3X%Xh.F q.b k tXtX3.2.<.1.1.1.",
"1.>.<.>.>.2.pX3.X L h.3 L D.#XW.J c *                   4 Q E._.r.( $.L.kXnXzX0XdXnXnXkXJ.$.( i._.C.T #   . > > , 2 2 , > 7 b ( *.K.z.V l 4.3 i uXeX<.<.<.1.1.3.",
"1.<.<.<.1.1.uXeX  , B , 9 F Q.`.9.&   . .                 7 I ~ 9.i.m.L.jXzXdXqXqXdXzXdXJ.B.i.! ~ M &   . , 2 2 2 1 1 2 2   e i.M.#.V 3 l B < a yX8X<.<.1.1.1.1.",
"1.<.<.>.<.1.yXU.. 9 B , z F r.a.9.& . , . .               . .   r i.S.L.kXdX9XZXZX9XdXsXJ.F.9.4   X > 1 1 1 1 1 1 1 1 1 1   w e.a.q.Z 3 3 B < a tX3.1.<.1.1.3.1.",
"1.<.<.<.2.tXU.+.) k.h.z L S.Z.s.~ * . 1 > + @ > + .             # c $.L.jXjXqXqXqX0XkXkXJ.( e X   . 1 2 1 1 1 1 1 1 1 2 ,   w r.R.Z.v.V N ' @.^ ,.U.U.1.1.1.<.1.",
"2.2.3.1.rXuX] G 3X3Xv.F S.3X-X!.! * . 1 2 2 2 2 , .               . E sXnXnXkX9X0XzXnXkXL.H o   @ 1 2 1 1 1 1 1 1 1 1 1 1   7 r.'.<X<Xx.F X.).~.f O.aXeX2.3.3.2.",
"wX3.3.3.rXpXh b +Xj.g.G.$X-X-XE.! * . 1 1 1 1 1 1 , +             O L kXDXMXjXsXjXkXnXzXP.f   @ 2 1 1 1 1 1 1 1 1 1 1 1 1   7 r.[.-X-X+XH.F v.Q.7 X.hXtXwX3.8X3.",
"8X8X^.tXtX1.E w.XXF L -X:X+X&XE.! * . , 1 , 1 1 1 2 > +           . 0 H.nXDXMXMXMXzXlXL.@.0 @ , 2 1 1 1 1 1 1 1 1 1 1 2 1   7 r.'.#X#X1X~.F h.~._  .tXpXrX8X3.8X",
"3.8XwXaX1.j W.6XXXF g.+X-X+X&XE.! # . 1 1 1 1 1 1 1 2 , .             0 #.zXDXDXMXkX0X^ O @ 1 1 1 1 1 1 , 1 1 1 1 1 1 1 ,   7 r.!.-X+X1XG.S g.&X6X_ K tXiX3.3.3.",
"8X3.U.aX:.* V.NXOXF F oX:X+X-X'.! * . 1 1 1 1 1 1 1 2 1 , > > .         - l.nXlXlXP.| & @ , 1 1 1 1 1 1 1 1 1 1 1 1 1 2 ,   7 r.'.;X#X:XG.C L 5XNXw.- rXuX3.8X8X",
"wXwXwXgX:.X B.;Xv.g.z.+X-XOX~._.9.* . 1 1 1 1 1 1 1 1 1 1 2 1 @ . + + . o p @.@.@.@.- . 1 2 1 1 1 1 1 1 1 1 1 1 1 1 , 1 1   e p.E.}.+X-XXXj.h.D.oXW O rXyXwXwX^.",
"uXiXiXhX:.; V.A.F S.-X+X#X[.p.i.0.* . 1 1 1 1 1 1 1 1 1 1 1 1 1 , 1 1 ,     O o O o   . 1 1 1 1 1 1 1 1 1 1 1 1 1 1 1 2 1   w r.e.V.oX&X-X&Xk.F q.M : tXaXtXtXtX",
"iXiXyXwX^.,X>Xl.C F.5X+X&X[.y.M 7   . 1 2 1 1 1 1 1 , 1 1 1 1 2 l l 2 1 > @ @ @ @ @ @ , 2 2 2 2 1 , 1 1 , 1 1 1 1 1 1 1 , . X y U a.oX&X-X<Xk.C k.#X(.K.U.tXrXtX",
"iXiX2.j *.1X=X5.A S.1X#X&X[.p.c     @ 1 1 1 1 1 2 2 2 1 1 2 2 , > , > , , , , , , , , , > , > > 1 2 2 1 2 2 1 2 1 1 1 2 1 .     n C.oX#X-X=Xj.A k.1X,XE [ tXrXrX",
"pXiX:.: O Y w.5.A S.:X+X#X[.p.c     + 1 1 1 1 1 1 1 1 1 1 2 1 +   . . . . . . . . . . . . . . . @ 1 2 1 1 1 1 1 1 1 1 1 1 .     n C.+X#X=X-Xz.A q._ f O d tXtXtX",
"rXeXO.- . b a.j.A S.:X#X-X|.p.c     @ 2 2 2 2 > + @ @ @ + @ + .                                 . @ @ @ @ @ + @ , 2 2 2 1 .     n C.&X&X-X-Xz.A q.y.r . s 3.3.8X",
"1.>.} - n _.=Xl.A S.:X$X+X'.a.c     + , , 1 , .                                                                 @ , 1 , , .     M C.|.OX-X-Xj.S S.=Xa.r i >.:.:.",
"1.<...- ( 1X2Xj.A A.1X+XR.i.a.b     . . . . +                                                                   . . . + .       W p.a.Q.-X:Xl.A S.:Xa.y s :.>.>.",
"2.<.} - ) 5X<Xh.A A.1X+XV.! I 5         .                                                                                       e W 9.Z.-X:Xj.A A.=Xy.w t >.>.>.",
"1.<.} - ) 3X:Xj.A S.1X&XR.W #                                                                                                     4 9.!.-X:Xj.S A.=Xt.e i :.>.>.",
"2.1.o.- ) <X:Xj.A S.:X$XZ.I .                                                                                                     & 9.'.,X:Xj.S A.=Xt.e t <.<.1.",
"U.3.O.- ) 3X:Xh.A S.1X$XR.U X                                                                                                     5 9.!.-X:Xj.S A.=Xt.e s 3.3.3.",
"3.3.O.- ) 5X:Xj.A S.1X$XZ.W X                                                                                                     5 9.!.-X<Xj.A S.=Xt.e s 3.3.3.",
"K.3.X.- W  X:Xl.A D.5X=XR.U X                                                                                                     5 9.!.<X<Xk.D S.:Xa.r s 3.3.3.",
"wX8XO.- r e.{.j.A A.=X|.R.W X                                                                                                     5 0._.+X=Xj.S A.|.0.4 s 3.3.3.",
"eX3.O.-   y p.h.A q.R.a.s.! X                                                                                                     7 r.C.s.Y.5.S k.w.4   s U.U.U.",
"tXtX-.-   # c v 9 q n b n u o                                                                                                     # b J b b r 9 c r .   s eXwXwX",
"tXtX+.- . .       .                                                                                                                             . . .   s eXwXwX",
"tXtX;.- 9 N $ 8 N $ % B 8                                                                                                             9 N $ 8 N $ $ B 8 a 9XwXwX",
"tXrX&.- 9 N o % z $ $ N 8                                                                                                             8 N o % z $ $ N 8 a U.U.wX",
"tXrX;.- o =           .                                                                                                               . .           . o d U.^.wX",
"eXwX+.-   X   $ 8 $                                                                                                                         $ 8 $   - 3.uX^.U.U.",
"eXwX+.: t g g L g.H t u u u f &                                                                                                 0 u u u y y L g.H 4 u rXuXU.U.U.",
"rXU.O.: $.).@X~.XXXX~.~.~.}.oXT                                                                                                 ) OXoX~./.~.~.XXoXZ.w.G ..wXU.U.",
"eXeXO.i M.bX6X-X-X;X<X4X6X6X3Xn.y X                                                                               . > +     ; ( /.6X6X5X>X:X;X:X<X%Xa.e a wXU.9X",
"eXeXO.; M.BX4XoX+X+X+X@XQ./.>X|.! # s [ -                                                                       . + + f [ O G +X:X}.W.oX;X*XOX+X&X Xp.r h 8X8X8X",
"eX3.O.; N.BX4XoX+X#X~.n.G G $X X9.. ;.eX{ o                                                                   . @ > o :.tX` y $XOX) t $.@X-XOX+X+X|.p.c ] K.8X3.",
"8X8X1.+.%.n.~.;X5X;XV.G j j ^ V.9.o <.<.rXo.o                                                             + @ + + 0 =.tX2.X.y ;Xm.K k R $.oX;X4X>XV.J %.3.3.3.3.",
"8X8X^.iXX.6 Q.3XoX+Xb.; } =.; x ! j 2.1.<.eXs                                                 . . . . . . > 2 1 . d iX1.1.:.E V.b d >.] f W.-XOX;X0.- rXyX3.8X3.",
"8X8XK.rX>.d >X(.b n.b.- X.;.O X K U.eX<.<.^.a                                               . > , , , > > 1 l 1   h uX>.>.eX2.f . s >.[ t ~.N.b r.W s rXyX3.3.8X",
"8X8X3.3.wX>.M.G X W.@XG k { h [ <.uX3.1.1.3.s                               o s : o         . > , > > 1 2 2 , >   d aX2.>.U.tX+.k ] &.R ( '.(   4 E >.yXrX3.3.3.",
"wXeXwXeXyXpXo.; K fX<Xb.u h >.U.pXrX3.3.3.wXh     . . .                     O :.o.o                   + 1 2 , .   k uX<.<.rXpXhXwX2.{ | w.t.W a a -.iXU.<.<.<.>.",
"wXwXeX8X9XyXtXeXtX*.b G ,.2.3.3.eXU.3.U.3.3.O.: o > , @ .                   - 1.O.O                     @ , , . t O.3.>.<.tXtXuXtXeXrX,.H 0  .rXwXtXU.1.<.<.,.2.",
"wXwXeXU.U.U.pXuXiX>.a +.uXeX3.3.K.wX3.8X3.3.2.{ ; , 1 , + . . .             O <.o.o                     . @ > ; } >.>.>.1.rXtXrXtXrXtXrX{ ] wXrXrXeX2.2.<.<.1.,.",
"wXwX^.eXU.U.wX^.rXtXrXrXeX3.U.3.8X8X3.3.3.3.3.3.o.; X $ , 1 , .             * >.O.X                     o o : +.>.>.>.:.,.rXtXrXrXeX3.tXaXaXrX3.1.2.1.1.<.>.<.<.",
"wXwXU.wXwXwXwXwXwXU.3.U.3.3.U.U.3.3.3.3.3.3.3.3.<.} } ` 5 > @ .             = <.O.# . . . .           : R { o.>.>.>.>.>.<.tXtXrXrXrX3.8XtXrXwX2.2.2.1.2.1.1.,.1.",
"3.1.<.<.<.<.<.<.<.<.2.1.2.1.2.<.>.>.>.>.2.8X3.3.3.<.>.O.;     .     . . .   # ;.%.< @ @ @ +           h 2.rXeXeX<.<.>.<.2.yXiXyXyXyXyXyXtXuXtXtXrXrXrXrXtXyXyXyX",
"1.<.<.<.<.<.<.<.<.,.2.<.1.1.1.<.:.>.>.:.1.^.3.3.;.s - - o     @ > @ > > , + O ;.%.& , 1 > @ + + .     O : : k 3.<.>.<.>.2.uXyXiXiXiXiXyXyXyXyXtXtXrXtXrXiXiXiXiX",
"1.<.<.<.<.<.<.<.<.<.2.2.1.3.1.<.>.>.>.>.8X3.3.:.j X         . @ 1 , 1 1 1 + O ;.%.< > , 1 , , > .           - [ ;.<.<.<.1.uXuXyXiXyXuXyXuXuXyXtXrXtXtXtXyXyXyXuX",
"1.<.>.<.<.>.<.<.<.<.<.1.1.1.1.>.>.>.>.>.<.8X3.h .             @ 1 1 1 1 < + - ;.%.< + < 1 1 1 @ .             O R <.<.>.2.uXuXiXiXiXiXiXuXuXuXtXrXrXrXtXyXyXuXyX",
"1.<.<.<.<.<.<.<.<.<.1.1.1.1.2.<.:.>.>.:.1.8X3.d             . @ 1 , , 3 | +.o.>.1.:.2.| < > , > +             O k >.<.<.2.yXuXuXiXuXuXtXuXuXuXtXtXrXrX^.yXyXuXyX",
"yXtXtXtXtXtXK.rXrXrXU.1.U.U.3.2.1.1.1.1.1.>.>.[ :             + < H H K :.1.1.1.3.tXtX,.K g f % .           O a O.2.1.3.1.3.2.1.2.2.wXwXwX9XwXuXtXtXtXrXtXtXtXtX",
"pXiXiXiXiXtXtXtXtXrXU.U.U.U.U.3.8X3.3.8X1.>.>.>.[ O             0 2.3.2.1.2.1.1.3.rXrXrX3.eX%.;             - &.1.3.1.3.1.>.>.<.<.,.3.3.U.U.wXwXtXrXtXtXrX^.tXtX",
"yXiXyXyXiXtXrXrXrXtXK.U.3.3.3.3.3.3.1.8X<.:.>.>.>.1.3.1.3.2.eXtXrXtXtXwX1.1.1.1.3.tXrXtXtXtXrXrXtXtXrXwXeX8X9XU.3.3.1.3.3.<.<.<.<.<.K.3.U.1.U.wXrXrXrXrXrXtXtXeX",
"iXyXiXiXiXtXrXtXrXrX9XU.3.U.U.2.1.1.3.1.1.:.>.>.>.1.3.3.2.2.3.tXrXtXtXwX1.2.2.,.3.tXtXrXtXtXrXrXrXrXeX^.8XeXU.U.1.3.3.1.1.<.<.<.<.1.8X8XU.U.U.^.rXrXrXtXrXtXrXtX"
};
