/* XPM */
static char *result[] = {
/* columns rows colors chars-per-pixel */
"80 80 249 2 ",
"   c #0D0C0C",
".  c #1A0303",
"X  c #171616",
"o  c #1A1615",
"O  c #1A1A1A",
"+  c #270404",
"@  c #2B0100",
"#  c #340101",
"$  c #3C0201",
"%  c #390C0A",
"&  c #321410",
"*  c #3A1516",
"=  c #292726",
"-  c #292828",
";  c #392626",
":  c #2F3E3F",
">  c #3A3636",
",  c #430100",
"<  c #4C0101",
"1  c #490D0C",
"2  c #530100",
"3  c #5B0101",
"4  c #590A06",
"5  c #441307",
"6  c #59140E",
"7  c #461818",
"8  c #640101",
"9  c #6C0000",
"0  c #610A09",
"q  c #730101",
"w  c #7B0100",
"e  c #750907",
"r  c #6D1411",
"t  c #791812",
"y  c #532813",
"u  c #6B3309",
"i  c #492325",
"p  c #543829",
"a  c #4A3838",
"s  c #563635",
"d  c #69352E",
"f  c #794608",
"g  c #795709",
"h  c #6E4F11",
"j  c #7A660A",
"k  c #7C700D",
"l  c #544E3B",
"z  c #6F5238",
"x  c #6C643A",
"c  c #786F32",
"v  c #5A3E41",
"b  c #3D4B4B",
"n  c #484646",
"m  c #594949",
"M  c #495252",
"N  c #585858",
"B  c #6D4E4E",
"V  c #675A5A",
"C  c #6E6A4F",
"Z  c #6C7547",
"A  c #757647",
"S  c #767959",
"D  c #615F61",
"F  c #476060",
"G  c #5A6363",
"H  c #646364",
"J  c #696A64",
"K  c #666C69",
"L  c #6D6D6D",
"P  c #736667",
"I  c #6C7368",
"U  c #737B6B",
"Y  c #6E7271",
"T  c #727272",
"R  c #747C72",
"E  c #787878",
"W  c #7C7C7C",
"Q  c #830001",
"!  c #8B0001",
"~  c #89040C",
"^  c #940001",
"/  c #9D0000",
"(  c #960409",
")  c #991604",
"_  c #8B0B14",
"`  c #A40001",
"'  c #AB0001",
"]  c #A50508",
"[  c #AB020B",
"{  c #B10101",
"}  c #B50207",
"|  c #AB1A0E",
" . c #A90212",
".. c #B30215",
"X. c #BB0313",
"o. c #B5061A",
"O. c #BB031D",
"+. c #982B10",
"@. c #A43206",
"#. c #8B1825",
"$. c #BC0626",
"%. c #B11323",
"&. c #B13529",
"*. c #C2011B",
"=. c #C7141F",
"-. c #C60526",
";. c #C3062C",
":. c #C50A2D",
">. c #CA0B2D",
",. c #CB1528",
"<. c #D3112F",
"1. c #C80633",
"2. c #C50931",
"3. c #CA0C33",
"4. c #CC1334",
"5. c #D51736",
"6. c #D51E39",
"7. c #DB1C3C",
"8. c #D52435",
"9. c #D42E35",
"0. c #DB253D",
"q. c #DD293E",
"w. c #E0273F",
"e. c #8C4F0D",
"r. c #955708",
"t. c #8A4614",
"y. c #A95317",
"u. c #876806",
"i. c #976902",
"p. c #8D7302",
"a. c #887709",
"s. c #937501",
"d. c #947A04",
"f. c #9A7C05",
"g. c #96770B",
"h. c #9B7D0B",
"j. c #886A15",
"k. c #877719",
"l. c #967A18",
"z. c #A57907",
"x. c #8F4D35",
"c. c #B74832",
"v. c #887429",
"b. c #CA711E",
"n. c #DD1840",
"m. c #E61945",
"M. c #DD2441",
"N. c #DE2941",
"B. c #E32242",
"V. c #E32A43",
"C. c #856948",
"Z. c #B46A4B",
"A. c #9D6F61",
"S. c #74815C",
"D. c #7D846D",
"F. c #7B8379",
"G. c #8D8703",
"H. c #9A8508",
"J. c #9D810C",
"K. c #9E8114",
"L. c #9B8915",
"P. c #A88509",
"I. c #B68B04",
"U. c #AA9409",
"Y. c #BA9B0B",
"T. c #A28514",
"R. c #A88919",
"E. c #B28A18",
"W. c #AA9119",
"Q. c #B69616",
"!. c #BB9C14",
"~. c #B3941C",
"^. c #BA9B1B",
"/. c #9CB10A",
"(. c #B6A50F",
"). c #BDA218",
"_. c #938434",
"`. c #A58A25",
"'. c #AB8D24",
"]. c #A68829",
"[. c #AB8D2B",
"{. c #AE9025",
"}. c #AE9824",
"|. c #AE902A",
" X c #B29423",
".X c #BC9D22",
"XX c #B2942B",
"oX c #B89B29",
"OX c #B79930",
"+X c #BDA829",
"@X c #C49906",
"#X c #C69E18",
"$X c #C4A306",
"%X c #C4A50C",
"&X c #C8A60A",
"*X c #CBAB0D",
"=X c #C3A414",
"-X c #CAAB13",
";X c #C8A816",
":X c #C2A41B",
">X c #CCAE1A",
",X c #CFB21B",
"<X c #D2B31D",
"1X c #D6B81B",
"2X c #C6A829",
"3X c #CDB22A",
"4X c #D3B523",
"5X c #D5B925",
"6X c #D7BA2B",
"7X c #D8BA28",
"8X c #D9BC2D",
"9X c #C8AB34",
"0X c #D5B835",
"qX c #DBBE32",
"wX c #D9C529",
"eX c #DDC135",
"rX c #DDC339",
"tX c #E3C62B",
"yX c #E1C337",
"uX c #E1C33C",
"iX c #89864A",
"pX c #A8875A",
"aX c #A89C6B",
"sX c #CE9D4F",
"dX c #E4C642",
"fX c #E6C847",
"gX c #EACC4D",
"hX c #EDCE52",
"jX c #EDCC5A",
"kX c #F0CF56",
"lX c #EFD057",
"zX c #F3D356",
"xX c #F2D25B",
"cX c #F5D663",
"vX c #F9D968",
"bX c #FFE16E",
"nX c #7C8282",
"mX c #7F908F",
"MX c #818181",
"NX c #858888",
"BX c #898989",
"VX c #938D8E",
"CX c #919191",
"ZX c #999797",
"AX c #AEAAAA",
"SX c #BEC1C0",
"DX c #CED0D0",
"FX c #E7EDED",
"GX c #FAFAFA",
/* pixels */
"MXW aXE W nXW W MXMXMXW MXMXMXMXMXMXMXMXE T L T L E W W W nXW nXW W U U R R R I U R R R F.W E E E E E T T T E T T T Y T T MXMXMXMXMXMXMXMXMXMXMXMXMXMXMXMXMXW MX",
"W W E E E W W W W W W W W W W W W MXW W T K L L L E W W W W W W R U v.l.k.k.k.k.k.k.k.g.c R T T T T T T L T T L L L L K L W W W W W MXMXMXMXMXW MXMXMXMXMXW W W ",
"nXE nXE W W W W W E W W W W W W W W W W T L L L L T W W W W U U U iX@XI.I.I.P.P.I.I.I.I.R.iXR I T T T T L T T L L L L L Y nXW W W MXW MXMXMXW MXMXMXMXMXW W MXW ",
"nXE nXE W E W E W W W W MXW W MXW W MXW T K P L L E W E W F.v.z. X:X&X&X*X-X^. X=X*X*X*X-X}.].l.S T T Y T L T L J L K P Y nXA.W W W MXMXMXMXMXMXMXW MXMXMXW W W ",
"W W W W W W W W W W W W W W W W W W W MXT K K L K E R A _.iXQ.@X@X,X5X6X7X7X:X).4X8X6X5X<X;X@X@X`.S.v.S Y Y T Y L L L L Y W W W W W MXnXMXMXMXW W MXMXW W W W W ",
"NXNXNXMXBXBXCXBXBXCXBXVXVXVXCXnXE E W E T K L L L L A h.I.:X,X*X-XqXuXeXwXqX<X>X8XqXqXyXuX<X&X,X;X@Xz.l.S NXMXNXMXMXMXNXnXY Y Y L L T T T T T T T T T T T E E E ",
"NXBXBXBXBXVXCXCXCXCXCXCXCXCXCXnXE E E E L P L L J A l.E.#X-X7X7XwXgXlXuX6XqX8X6XqX8XqXfXxXyX4X8X<X@XQ.E.k.F.NXBXBXBXBXBXMXK K L P L T L L L L T L L L L T T E T ",
"BXBXBXBXNXVXCXCXCXCXCXCXCXCXCXMXE E E E T L L L C K.E.^.;X<X6XyXgXcXcXgXrX8X8XeX8XqXdXxXvXhXuXqX1X<X:XQ.P._.D.NXBXBXBXBXMXL L L L L T L T T L T T T T T E T T T ",
"BXBXNXBXBXCXCXCXCXCXCXCXCXCXCXMXE E E E T L L Z l.E.!.-X4XqXqXfXcXvXcXcXgXqX8X8X8XrXxXvXvXcXjXyXqX8X,X%X XE.v.nXBXBXBXBXMXL L L L L L L T T L T L T L T E T T T ",
"BXBXBXBXBXCXCXCXCXCXCXCXCXCXCXMXE E E E L L Y c z.!.>X<X6XrXhXxXcXcXvXvXhXqX7XqX6XdXcXvXcXcXcXkXfX8X4X<X:XY.l.iXBXBXBXBXBXL L K L L L T L L T L L L T L T T T T ",
"W T E E T W W T E W T T E T E T L L L L L L L c I.$X7XyXqXyXhXcXcXlXcXcXhXqX6X8X6XdXcXcXkXxXcXxXfX8XuXyX>X@Xl.R T T T T T W E E E W W W W W W E W E T E W W W W ",
"T L L T L L L L L Y L L L H L L L L L K L L L S I.$XyXxXdX8XqXhXxXfXdXjXhXqX6X6X6XdXxXgXuXkXxXdX8XeXgXgX>X@X`.U L L L H L MXMXMXMXMXMXMXMXMXMXE E W W E W W W W ",
"E L T L T T L T T L L L L L L L L L K L L I J iX!.$XyXcXfX4X5XhXcXrXqXxXlXqX7XqX6XdXcXfX6XhXxXyX4X8XxXxX<X@X[.U K L L H L MXMXW MXMXMXMXMXMXW W T E E E W W W W ",
"T T L T L T T L L L L L L L L L L L L L L J l.R.Q.#XuXxXfX5X5XgXxXdXrXhXlXqX6X6X8XdXcXfX0XhXxXqX4XyXxXkX<X!.[.T.c K L L T MXMXMXW MXW MXMXW MXE W E E E W W W MX",
"T L T L L L T L T L L L L L H L L K L L L Z z.E.'. XuXvXcXuX>X7XfXuXqXdXdXqXqXqXqXuXdXuXqXdXuX<X5XhXvXjX2XR.'.I.k.L L L L MXW MXW MXMXMXW MXW W E E T W W MXMXW ",
"W W W W W MXW MXW MXW W W W W W E E T E Y Z z.E.].].9XcXbXhX>X%X4XqXeX8X6X6XqX8X6X6X8XqXqX6X<X=XqXvXvXgXOX].'.P.k.K L P T BXBXBXBXBXMXW MXMXMXW W W W W W W W W ",
"MXMXMXMXMXBXBXBXBXBXBXBXBXBXBXMXMXW MXW E C h.E.[.].2XfXvXxXqX-X-X4XeXqX4X>X4X6X>X>X7XyXqX>X;X<XgXvXzXqXXX].{.P.k.K L K T CXCXCXCXBXnXMXMXW MXMXMXMXMXMXW W W W ",
"MXMXMXMXW BXBXBXBXNXBXBXBXBXBXMXW W W W T C g.E.{.~..X2XfXgXuX>X$X-X6XyX4X&X4X8X*X-XqXrX4X$X%X8XgXhXqX.X~. X{.P.k.K L J Y BXCXCXCXCXMXMXMXMXW MXMXW MXMXMXW MXW ",
"MXMXMXW MXBXBXMXBXBXBXBXMXBXBXMXW W W MXT Z f.R.^.=XQ. X9XyXyX4X%X@X>X6X4X%X<X6X-X-X8X4X%XY.-X8XyXqXOX X#X=X{.P.k.I K L T CXCXCXCXCXMXMXMXMXMXMXMXMXW MXW W W W ",
"BXMXMXMXMXBXBXBXBXBXBXBXBXBXBXMXMXW MXW L c f.'.2X*XY.Q.3XeXwX6X4X%X&X>X2X^.:X3X^.).<X*X$X>X7XeX6X+X X!.&X;XXXP.k.D J L T CXCXCXVXVXW MXW MXW MXW MXW MXMXW MXW ",
"MXW W W W MXMXMXMXMXMXMXMXMXMXE T T T L m f f.R. X=X$X*X4XqXqXyX8X>X%X$X^.{.^.%X XXX).$X*X4XqXqXoX{.!.*X*X^.{.L.p.d D K L NXMXNXMXMXMXMXW MXW MXMXMXW MXW E W E ",
"W W W W E W W W W W W W W W W T L L L K s u u.h.T. X=X*X*X,XqXuXqX>XY.$XQ.[.!.%X X].R.%X*X,X2XoXoX!.&X*X.X'.J.d.g 6 V L L W W W W W W W W W W W W MXMXMXE E E E ",
"MXE E W W W W W W MXMXW W MXMXT L L L K v u j p.h.`. X=X$X%X4XeXeX4X-X*X^. X^.). X[.[. X=X$XY.~.!.*X-X^.R.l.s.p.g y D L Y nXA.nXMXW W MXMXW W MXMXW MXW E E E E ",
"W W W W W W W MXW W W W W W W T K K Y K m u u.s.T.'.[.~.).$X&X4XeXeX7X*X!.{.'. X{.{.|.[.~.).%X%X%X&X2XR.h.d.s.p.g d D K K E nXnXW W W W W W W MXMXMXMXMXW E E E ",
"MXW W W W MXW W W W MXW W W nXT P L L H L C u.i.P.'.[.[. X!.Q.;X4X7X1X*X).{.[.[.'.[. X X^.=X-X=X!.U.T.l.J.J.s.i.j H K L L MXA.nXMXW MXMXW MXMXMXMXMXMXMXW E E E ",
"E T T T T T E E E E T T T T T T L L L L Y K c u.h.'.XXXX{.[.[.~.%X%X=X%X!.{.[.[.XX[.[.^.%X%X!.{.T.s.s.K.[.R.s.j.C T T T T T Y Y T T T T T T E E E T E T T E T E ",
"T L T L T T T T T E L L H L L L H L L L K L K h g.{..X). X[.[.{.~.Q.W.Q. X X'.{.XX[.[.oX!.U.z.h.g.p.g.W.OXR.j.S R E E E E L Y K L L T L L L T L L T L T T T E T ",
"T T L T T T E E T T L P L L L L L L L L L Y K C r.R.).=X^. X X X|.OXoX[.[.'.|.XX'.R.'.|.'.K.d.s.s.g.'.OX|.z.j.R E E E E T L K Y L L L L T T L T L T L T E T T T ",
"E T T L T T T T E T L L L L L L L L L L L L L C u.z.E..X).%X%X~.XX9X0XoX].[.XX'.h.h.`.XXXX`.T.s.J.'.XX|.z.i.v.U E E E E E L L K L L Y Y L T L Y T T L T T T T E ",
"T L L T T T T T T T L P L L L L L L L L L L L K x u.g.R.^.=X=XU.T..X0X9XoX X'.J.p.T.2XOXXX'.R.T.W.XX XT.i.c J E E E E E E L L K P L Y L L L L P L L L L T T T T ",
"E T E T T E E E E E T T T T T L L L L L Y T E T T C i.f.R.oXXXT.f.h.oXqX0X Xh.s.T.9XqX3X'.g.J.W.OX{.T.s.v.J E T T T Y T T T T T T E W W MXW W W W W W W E E E E ",
"MXW W W W W W E W W nXMXW W nXE L T T L W MXMXMXMXF.A j.h.T.W.W.T.g.h.+X9X|.T.R.9X0X0X~.J.s.f.W.E.T.s.k K Y L L L L L L T MXMXMXMXMXBXBXBXBXBXBXBXBXBXBXMXMXW MX",
"W W E W W W W W W W W W W W W E L Y T Y W nXA.MXnXmXW c p.s.u.H.'.K.s.T.{.XX`.XX3X3X'.g.p.p.p.u.p.s.u.x T L T L L L L L L MXMXMXMXMXBXNXBXBXBXMXBXBXBXBXMXW W W ",
"MXW W W W E W W W W W W W MXW T Y T L L W nXnXMXE nXA.z j g y u j.R.L.d.T.[.l.j.H.P.g.u.u.u.f y u k f l L Y Y L L L L L L MXMXW nXMXBXBXMXBXBXBXBXBXBXMXMXW W W ",
"W E E W E E W E E E W MXMXW nXT L L L L W nXMXMXnXE P d u y @ % j XXoXT.h.R.l.g s.U.P.p.j j h + 5 f 6 i L L Y L L L L H L MXMXW W nXBXNXBXBXBXBXBXMXBXBXW W W E ",
"BXMXNXMXMXNXMXBXMXMXW E E E E E W W W W MXNXMXMXMXV #.) 4 # + 5 j.2XeXoXK.d.p.f.2X7X*Xf.j j h # , e w 4 v T E E E E E E W BXMXNXNXBXBXBXBXBXBXBXBXBXBXBXMXMXMXMX",
"CXVXCXCXCXCXCXCXCXCXW L L L L BXZXCXCXZXBXBXBXMXV _ } ' 2 @ , 4 u Q.tX0X{.s.P.;XwXtX;XL.j f u 2 2 9 ! ! 3 m MXBXCXCXCXCXVXCXCXCXCXCXCXCXCXCXCXBXBXBXBXBXBXBXBXBX",
"CXVXVXCXCXCXCXCXCXCXE T T L T MXVXVXCXCXBXBXBXV ~ ' } / 2 $ 8 q Q i.1XtX.XJ.^.eX>XQ.'.l.g e q q q w / ` ! 3 n nXCXCXCXCXVXCXCXCXCXVXCXCXCXCXCXBXMXBXBXBXBXMXBXBX",
"CXCXCXCXCXCXCXCXVXCXE L L T L MXCXCXCXCXBXBXV t ' ' } ` < , Q / ( r.U.+XOX|.+X2Xl.a.k.r.) q 9 w ! ^ ` ' ` q * mXCXCXCXCXCXCXCXCXCXCXCXCXCXCXVXBXBXBXBXBXBXBXBXBX",
"CXZXCXCXCXCXCXCXCXCXE T T T L NXCXCXCXCXNXE d ^ ' ' ' ^ 2 2 ^ { ) r.H.W.`.].l.l.k j e.) ` Q 8 8 w ' ' ` ' ! 7 A.BXCXCXCXCXCXCXCXCXCXCXCXCXCXVXBXBXBXBXMXBXBXBXBX",
"BXNXNXNXMXBXMXMXMXBXT L T L L W CXNXBXBXD s e / ' ' ^ q 8 q / @.i.L.R.J.g.j g k a.r.%.o.` w 3 , 9 ` { ` ' ^ e s W CXBXVXBXBXBXBXBXBXBXBXBXBXBXMXBXMXMXMXW nXnXnX",
"T L L L L L L L L L L L L L L E W W W W s 2 w ` { ' ! 9 9 Q / @.W.3XoXp.u.l.K.g.p.y.<.*./ w < # 3 ` { ` ' ^ q < v NXNXBXNXW W W W W W E E E W W MXMXMXMXL H P H ",
"T Y Y L T T T T L T L L L L P E nXW nXW a 2 w / { ' ! 9 8 Q / @.oXrX2Xj.l.7X1X(.a.t.:.*./ Q 3 # 8 ` { ` ` ^ q 2 ; BXBXBXBXW W W W nXW W W W W MXW MXMXW T L K L ",
"T T Y T L L T L T T L L L L H E W W W H * < q w / ' w 2 3 w / @.W.wXqX`.R.1XwX~.k t.$.O.` ^ q $ 3 ` { ` ` ` ! 3 ; BXNXNXNXW W MXW W W W W W E MXMXMXMXnXL L L L ",
"T T L L L L L L T T L L L L L E aXE V 7 , 3 9 9 ! / 8 # < w / @.G.(.6XOX X!.Q.R.k.+.:.O.` ' Q $ 3 ` { / ` ' ` 9 i BXBXBXNXnXnXE W W W W W W W MXMXMXMXMXL L L P ",
"W T T T E E E E T T L L L L L E E T m < 8 9 q 9 w w 2 # < w / +.k G.Q.oX].a.p.z.&.4.2.o.` ' ! $ 3 ' { ` ` ' ' Q 4 m E W A.nXE E E E E E E E E E E E E T T T T T ",
"MXW W W W MXW MXW nXE L Y L Y E E E a < q w q 9 q 9 < $ 8 ! ` ) t.u.u.l.l.j j r.%.-.O. .` ' ! < 3 / ' ` ` ` ` / q 1 D L L L Y Y L T T L L L L L L P L L E W W W ",
"W W W W W W W W nXW T L Y T Y Y nXnXn < q q 9 q q e , $ w ` ' ..$.t.j j u.p.k g ) } ' ` ` ` ^ 9 8 w ^ ` ` ` ` [ ( 1 D Y Y Y Y Y T T L T L T L K L L L L E W W W ",
"W W W W W W W W W W T L L T L W W W n < 9 q q 9 t x.i % Q ' ` O.n.y.k G.T.U.L.v.e.) / ` ` / / ( 9 2 Q { ' / ` ' ` Q s H L T T L T L T L T T L L L L L L W W W E ",
"W W W E W W W MXW MXT L T L L E MXE a < r t t e t.C p , w ` ] -.N.y.G.L.).-X;X`.k e./ ' ] ] ] ' 9 # 9 ' ' ` ` ` [ | _ d H L T L L L L T L L P L L L H L W W W W ",
"MXW W MXW W E W W W W E E W E W MXW a 6 z C.C.C.z y & # w ' O.3.q.r.k G.:X7X3X`.k f ^ [ O.,.=.} 8 @ < ^ ` ' ` ^ ] Z.pXA L E E E E E E T E E T T T T T T W W W W ",
"BXBXBXBXBXT L T L L BXVXVXCXCXVXCXCXn 7 z x x A l & . # Q X.>.n.M.c.e.k U.8X9X}.a.t.] $.5.V.8.] 9 < 2 q ( ) +.&.c.sXA.C T BXBXBXBXBXBXBXBXBXBXMXW W W W W MXW MX",
"BXBXBXBXBXT L T Y Y BXCXCXCXCXCXCXCXM ; 5 % 1 % * ; o $ ~ <.0.0.M.M.&.e.G.OX0X3XH.e.X.3.M.V.6.] ! 8 8 w / +.A aXaXc._ 1 s V nXBXMXBXBXBXBXBXMXMXW W W W MXMXMXMX",
"BXBXBXBXBXT L T L Y BXCXCXCXCXCXCXCXY i * * * * a N a 4  .3.N.q.N.m.N.&.t.l.9XeX/.r.>.m.V.q.5.X._ i p x.Z.Z.c.B z 4 0 d B B F.BXBXBXBXBXBXBXBXW W W W MXW MXW MX",
"BXBXBXMXBXT L L L L NXVXCXCXCXCXCXCXCXD > n N N Y nXm 9  .4.M.N.q.M.B.B.&.j +X7XU.r.0.m.q.q.7.>.t > M iXaXZ.] q $ % B AXAXF.nXBXBXBXBXBXMXBXBXW W W W W MXMXMXMX",
"BXBXBXBXMXT T T T L NXCXCXBXCXCXCXVXBXMXN N BXBXmXF.d q o.7.M.M.0.N.B.B.&.k /.<Xb.9.0.w.q.q.7.3.%.r i l l y 3 d VXVXAXDXDXmXnXBXBXMXBXMXBXBXBXW MXW MXW W MXW MX",
"MXMXMXMXMXT L T T L MXBXBXNXNXMXW MXMXW E D P P G b i Q ,.V.q.0.0.q.M.n.&.e.f.b.9.m.B.0.q.q.8.2.O.' 8 # @ + ; ZXGXGXFXDXVXL W W W MXMXMXMXMXMXW MXMXMXMXMXMXMXMX",
"MXW MXW MXT L L L T MXBXBXBXBXMXW MXMXnXMXE M > : - 1 ` ,.V.N.0.q.q.M.4.o.) | ,.0.B.0.q.q.q.8.3.-.-.~ , & > H SXGXGXDXZXV L W W W W MXW MXW MXMXW MXW MXW MXW MX",
"MXMXMXMXMXT T T T T MXBXBXBXBXMXMXMXnXnXW W L Y R > 8 ] ,.w.N.0.0.q.0.2...` o.3.0.N.q.0.0.N.6.:.1.;.( 4 > F nXAXDXDXAXH L E W W W MXMXMXMXW MXW MXMXMXW MXMXMXW ",
"MXMXMXW MXT L L T L MXVXBXBXVXMXW nXnXmXW W W MXnXd ! ' 8.w.q.0.q.q.7.3...` ..2.6.q.q.0.0.q.6.:.;.;.( 3 > b G T A.nXK L W W nXnXW W MXMXMXMXMXMXMXW MXMXW MXMXMX",
"MXMXMXMXMXT L T T L W MXMXMXMXMXW W A.nXW W W R H r ( o.5.q.q.0.q.q.M.3...` o.2.4.6.0.0.q.q.6.:.;.-.[ q % - M N m N Y T E W W W W W MXMXMXMXMXMXMXMXMXMXMXW MXMX",
"MXW W W W W E E E E Y L L L L L T L Y Y T L T V i q  .3.0.q.0.0.0.M.0.4...` ..$.;.3.0.q.q.q.6.>.;.1.X.^ 2 & > Y D D P L L Y L Y T L L L L L L MXMXW MXW MXW W W ",
"MXW W W W W E E E E L L L L L L L T T L L T L n < ! $.0.N.q.0.0.q.N.7.3...` `  .$.3.0.V.q.q.6.:.;.:.-.o.q , ; T Y L L L L L Y T T T T T L T L MXW MXMXMXW W W MX",
"MXW MXW W E E E E E L L L L L L T T L T L T T n 0 / =.q.N.0.0.0.q.q.M.3.$.` / ] o.3.6.0.w.q.6.:.;.2.3.$.~ 2 7 T L L L L L T T L L T L L T L L MXMXMXMXW MXW W W ",
"MXW W W MXW E E E E L L L L P L L L L T Y L T m ~ ( ,.0.N.0.q.0.N.N.M.3.o.` / ] $.:.:.5.0.N.8.:.$.1.2.$.~ 2 7 T L L L H L L L L T L T L T T T MXMXMXMXMXW W W W ",
"MXW W W W W W E E W T L L L T T T T T T T T D r ! [ ,.M.M.0.0.q.M.6.3.o.[ / ` ] $.1.;.:.6.q.0.2.$.:.>.$.( 8 * T L L L L L E T T T E T L T L T W MXMXW W W W W W ",
"MXMXMXMXW MXW MXMXMXW W W W MXW nXW W W W E a 3 ~ $.7.B.q.0.0.q.0.4.$.[ / ` / ] O.:.;.;.:.6.8.:.;.;.1.;.} w 7 L L L L L L BXBXNXBXBXE E E E E T T T T E T L T T ",
"BXW W MXMXMXMXW W MXMXMXW W W W W W W W W L i 3 ~ :.7.7.0.q.0.q.M.3.o.' / ` ` ` ] ..;.;.;.>.4.:.;.;.1.>.} w 7 K L L H L T BXBXBXBXMXE E E E E T T E T T L T L T ",
"BXW MXW MXMXMXMXMXMXW W W W W W W MXMXW W M % 3 ~ ;.5.q.q.0.N.V.V.m.;.[ ` ' ` ` / [ ;.1.:.$.;.;.2.2.:.O.[ q 7 L L L L K L NXBXBXNXNXE E E E E T E T T T T T T L ",
"MXMXMXMXMXW MXW MXW W W W MXW W W W W W W N * 2 ~ ;.5.q.q.q.N.N.B.n.-.[ ` ' ` ` ` [ ;.3.:.:.;.:.1.:...` ! 3 7 K L L L L T BXBXNXBXMXE E E E E T T T E T T L L Y ",
"MXW W MXW W W MXW MXW W W W W W W W W W W T i 0 ! ..,.7.7.7.,.%.#._ e w 9 q ^ { ' [ >.3.2.2.>.1.;.X./ Q r m K Y L L L L T BXNXNXBXMXE W W E E E E T T E T L L T ",
"E T T T T T T T T T E T T E T T L L L L T W v 0 w ` X.:.:.O.[ q # + $ # @ $ q ] `  .;.>.;.;.:.;.../ w r V T NXMXL T L L T VXCXCXCXCXCXCXBXVXVXBXNXBXNXNXBXCXCXBX",
"T L T L T L T L T T T T E T T T L L P K E W E v 3 Q ( ( e 0 3 $ + . + @ @ @ , 8 Q ! (  .X.X.X.X.[ Q 6 V W BXBXMXT T L T T CXCXCXCXCXCXVXBXCXCXBXBXBXBXNXCXCXCXCX",
"T T T T T L L T T L T T T T E L K L L K E W W T V r 9 8 # + & 7 i ; 7 7 % % + % 2 8 3 q ^ ^ ! ( w 0 V E BXBXMXNXT Y T L T CXCXCXCXCXCXCXCXCXCXNXBXNXBXBXVXCXCXCX",
"T T L T L T Y T T T E T E T T L L L L L E W W W W a , % = > n D E A.L V n ; > - % , $ , < < , 1 1 7 MXBXBXBXBXNXT T L T E CXVXVXCXCXCXCXCXCXVXBXBXBXBXNXVXCXCXCX",
"E L T L T L Y T L T T T T T E L L K L L E W W nXW K N H M b N G G K D M n b b > & + + + . . ; E E E BXBXMXBXBXMXL L T L E VXCXVXCXBXCXCXCXVXCXBXBXBXMXBXCXCXCXVX",
"VXBXCXBXBXBXMXMXMXBXW W W W W E T E E T T L L L L T E E G > > > O O O X - > n > O X O O X - W BXBXBXNXnXMXMXMXMXE E T E E T T T T E MXMXMXMXMXBXBXMXBXMXBXBXBXBX",
"CXVXCXCXCXBXBXBXBXBXMXW MXW W W E E E W L L L L L T E E E m - X       X X = O > W NXNXNXMXMXNXBXBXBXnXnXMXnXMXW E E E E E T T L L T W W W W W NXBXBXBXBXBXBXMXBX",
"CXCXCXCXCXBXBXNXBXMXMXW W W W W E E E E T L K L L T E E E L n X X X X X X X - L W BXNXNXBXBXBXBXMXBXBXmXMXMXMXMXE E E E T T L T Y T W W W W W BXBXBXMXBXBXBXBXBX",
"CXCXVXCXCXBXBXBXBXBXMXW W W MXW E E E W L P L L L T E E E E M   O O O X o X b T W BXNXNXBXBXMXBXBXBXMXA.W MXW W E E E E E T T L T T W W W W MXNXBXBXBXBXBXMXBXBX"
};
