/* XPM */
static char *result[] = {
/* columns rows colors chars-per-pixel */
"80 80 85 1 ",
"  c gray27",
". c #464646",
"X c gray28",
"o c #484848",
"O c #494949",
"+ c gray29",
"@ c #4B4B4B",
"# c #4C4C4C",
"$ c gray30",
"% c #4E4E4E",
"& c gray31",
"* c #505050",
"= c #515151",
"- c gray32",
"; c #535353",
": c gray33",
"> c #555555",
", c #565656",
"< c gray34",
"1 c #585858",
"2 c gray35",
"3 c #5A5A5A",
"4 c #5B5B5B",
"5 c gray36",
"6 c #5D5D5D",
"7 c gray37",
"8 c #5F5F5F",
"9 c #606060",
"0 c gray38",
"q c #626262",
"w c gray39",
"e c #646464",
"r c #656565",
"t c gray40",
"y c #676767",
"u c #686868",
"i c DimGray",
"p c #6A6A6A",
"a c gray42",
"s c #6C6C6C",
"d c #6D6D6D",
"f c gray43",
"g c #6F6F6F",
"h c gray44",
"j c #717171",
"k c #727272",
"l c gray45",
"z c #747473",
"x c #747474",
"c c gray46",
"v c #767676",
"b c #777777",
"n c gray47",
"m c #797979",
"M c gray48",
"N c #7B7B7B",
"B c #7C7C7C",
"V c gray49",
"C c #7E7E7E",
"Z c #7F7E7E",
"A c #7F7F7E",
"S c gray50",
"D c #808080",
"F c #818180",
"G c #818181",
"H c #828281",
"J c gray51",
"K c #838383",
"L c #848484",
"P c gray52",
"I c #868686",
"U c gray53",
"Y c #888888",
"T c #898989",
"R c gray54",
"E c #8B8B8B",
"W c gray55",
"Q c #8D8D8D",
"! c #8E8E8E",
"~ c gray56",
"^ c #909090",
"/ c gray57",
"( c #929292",
") c #939393",
"_ c gray58",
/* pixels */
"HAACCAAAAASDDDDFFFDGvhjjhmSCSSAAAZCBnnnnNSASAVnnnnbxxxxljjjhzFDDDGKKKKKKKKKKGDDD",
"VNNNNNNNNNBVVVVVVVVCkassacBNNNNNNNNnxxxxbBNNNmxxxxlhhhhgsssagVVVVCDDDDDDDDDDCVVV",
"CNNNNNNNNNBVVVVVVVVCkassacBNNNNNNNNnxxxxbBNNNmxxxxlhhhhgsssagVVVVCDDDDDDDDDDCVVV",
"CNNNNNNNNNBVVVVVVVVCkassacBNNNNNNNNnxxxxbBNNNmxxxxlhhhhgaaaagVVVVCDDDDDDDDDDCVVV",
"SBBBNBNNNNVVVVVVVVVClassavBNNNNNNNNmxxxxbBNNNnlxxxlhhhhgsssafVVVVCGDDDDDDDDDCVVV",
"YIIIIWQQQQQ!!!!DnmmMjasssgkjjjlcccccxxxxbVVVVVSCCCSPPPLLLLLPGgggggkkkkkkkkkkcccc",
"RYYYY^////////(GbnnmjasssfhhhgkxxxxxxxxlbCVVVCDDDDKTTTTTTTTRLaaaasggggggggggxxxx",
"RYYYY~^^^^^^^^/GbnnmjasssfhhhgkxxxxxxxxlbCVVVCDDDDJTYYYYYYYTKssssdhhhhhhhhhhxxxx",
"RYYYY~^^^^^^^^/GbnnmjasssfhhhgkxxxxxxxxlbCVVVCDDDDJTYYYYYYYTKssssdhhhhhhhhhhxxxx",
"ETTYT////((///)JbnnmjasssfhgggjllllllllkbVVVVCDDDDJTTTTYTTTRPaaaashgggggggggllll",
"MvvbbnbbbnvcccckggggdsssaMLJJJCMMMMMmmmmMBBBBBCCCCCCCCSVxxxlxNMMMNBBBBNbbbbvmNMM",
"lggggffffgsppppaaaaasssspSETTRLBVVVBNNNNNNNNNBVVVVVMMMMbaaapfGGGGGGGGGDMmmmnBVVV",
"xhdfssssssaiipppppppiuppubDCCSMcvvvcccccccccccvvvvvcccckiiiisnnnnnnnnnblkkljBVVV",
"xhjRLLLLLLLPUKSGSnvmSKTTLLLLLLLLLLLLLLLLLLLLLLLLLLLLLLLLLLLLLLLLLLLLLLLLLLUMBVVV",
"lgpPDDDDDDGNf64isjvCGJSSDDDDDDDDDSSSSSDDDSSSSSSDDDDDDDDDDDSDDDDDDDDDDDDDDDJnBCVV",
"VM4DNNNNNNSs&,sjjNSNNVDBNNNNNNNNNCDDDVNNNCDSSDCNNNNNNNNNNNVBNNNNNNNNNNNNNNVnVVVV",
"LG,xhhhhhjd2:rjcmlhhhlvkhhhhhhhhhxvcvkhhhlmCVvxhhhhhhhhhhhljhhhhhhhhhhhhhhjmCVVV",
"KD<cjjjjjl8=5ssxkjjjjjhjjjjjjjjjjhhhhjjjjhjjjhhjjjjjjjjjjjjjjjjjjjjjjjjjjjknCVVV",
"KD<cjjjjks;2uphjjjjjjjjjjjjjjjjjjjjjjjjjjjjjjjjjjjjjjjjjjjjjjjjjjjjjjjjjjjknCVVV",
"LG<cjjjjka>0ghkjjjjjjjjjjjjjjjjjjjjjjjjjjjjjjjjjjjjjjjjjjjjjjjjjjjjjjjjjjjknCCCC",
"DV<cjjjgjq9fkjjjjjjjjjjjjjjjjjjjjjjjjjjjjjjjjjjgfkjjjjjjjjjjjjjjjjjjjjjjjjjbNMMM",
"CN<cjjfph0dkjjjjjjjjjjjjjjjjjjjjjjjjjjjjjjjjjjjjgjjjjjjjjjjjdjjjjjjjjjjjjkdbmnnn",
"CN<cjgppafkhjjgggshjjjjjfdgjjjjhhjhdgkjjjjhjjjkdujhghkgdkjjddhjjjjjjjhhjjhabmnnn",
"CN<kdppipkfassppahkhhgsapppddssaaspafhhhhsadghgt9faiadshgdaafshgdasddpassaabmnnn",
"SB1gpaaahsapppaisgfaaappaaappppaapaadfaaapapaay,2iaaapaaauyyyuaapppppaappppnmnnn",
"nxdhg777877777766777777778888888888888888888884117888877766666777777888777jgcvvv",
"lgggp333333333333333333367777777772112>;212177qew7777632333333333331,,>33psglxxx",
"xhhhlPGDDDDDDCSSSDDSSDGNrweeeeeeer654862q564eetyyeeeetVJGGDDDDDSSDDCfdbDJkhhxxxx",
"xhhhfGVmmmMMmvMBBMMSVMmt3eriiiiiip006rtwuw08yipppiiiitgJGDMMMMMBBMMNbjNNmdhhxxxx",
"lgggdhupghgddvkkjagxkhu75tpppppaas9qqipuie08iaappppppushghhhhfgjgfdhjauhiafflxll",
"mcccjjppsjdikcgjhpdhhgu85tpppapy06qeqydstrqe68tiappppusggjjjfdsdsiahjpydycNNmnnn",
"SBBBvjppphdigfphhppfppu85tppar69esy3eiuyit3wst06waappusfahkhappspppahipsySTTDCCC",
"CNNNcjpppaappppdfppappu85tai09yp0,$#0yuuye*+>6puq8yapusgifgappiispppaysauCYYSVVV",
"CNNNcjppppppppppppppppu85yi8wr1#+Xoo+:0w<#OoXO@:wr7tausgppppppiudpppiuspuCYYSVVV",
"VMMMxsppppppppppppppppy85r9t0&XoO+&$oX#$Xo@&&#oX+6y9tisdppppppupspppyaapyCYYCNBB",
"IKKKMreeeeeeeeeeeeeeerq459y<ooO$-;>:=#oX@*:>>:=$+o-t9qweeeeeeew8eeew7tee0CYYJGJJ",
")///P655554456656543111>1u<oo#=>::::::==:>:::::>;+X-u4>455555552456556442VYYTTTT",
"(^^^QPyyyu04898r9641;;;-qwOo#:::::::::>>::::::::=-+X5y:0tyytyytett988532VDYYYYYY",
"(^^^^U9999736752141;;:;30&oO*>:::::::::::::::::;:3;+@7517075899995334<-:VYYYYYYY",
"_((((/a7980qweeee9eu4;>9=XO*>*:>::::::::::::::::,::;O#8,<90e9qwweww9e07>VYYYTRRR",
"ULLLLDkypuicSbkCbaiip225+o#>=:3::::;=-----:::::::::>*o,wwiiipxCxlCcpiyi9NPPPCVCC",
"kffffsbyiixCxbmxxcapiw1=oO=::1::::;-;=-&=**::::::::::+#eauiibBlnnxcxppiabSSSdipp",
"xhhhhfbyixCxihmcdxcaie>+o#>::::::;-,-->--&%=:::::::::*X8fypbVjikMldcxpiabDDDgass",
"xhhhhfjisBxicdfnuahday-o+-::::::;-;=*==-*&$$*>:::::::-X4ppdVkpvahbtdhspybDDDgass",
"lggggdxuxntkvyrguthvpi;X&>:::::;=<=4*@-&#>1#--:::::::>+4siccrvltthyylciinGGGgpaa",
"nxxxxlvulntdxgdkyrhaip:o=>::::>&&3*%>*>*:-$=*%-::::::>+6guvvrgxffjttjipakmmnkkkk",
"SBBBBNnipfkgycnasvhtpa:+::::::>&%;<$#:-;-@*<%%=::::::>+qlipgxhubbigcgtpdyaaamBBB",
"CNNNNMJiitlmstytbbpupf>$>:::::>%$&*&&$=%%&&=&$<::::::>+wBiiycmiyyuncuiivisssmBNN",
"CNNNNMGfiuabcuugmhypah;*>::::::*3:;<:$%#&,,=1,,::::::>+qBsiydmkuujmfyisbusssmBNN",
"VMMMMMCcpiyjmdivbpupjh=*>::::::*-$$$%:%=;%#&%;1:::::::O0NkiiuxmapncuiilvyaaamBNN",
"JSSSCbNbgpyabxdMhyppns=*>:::::>&=%#=*&%&$-%%&=3::::::= qbbdpydmjhmfypanksjjjNVBB",
"ETTTYjNjfipijnncpuihnp=*>:::::>=$$&3&&--#>1#%&1::::::= qbjdipilnmliiilvjcVVVSDDD",
"RYYYYkNuysBhavmhrkgppu-*>::::::>=%#*&>$*:&&#&2,;:::::= qvuyfVddbngtldpphcVVVSDDD",
"RYYYYkntdNMkunvphvmgie-*>::::::::=%*-&%$==%&3<:::::::-.wjtgVnkimxijvndyacVVVSDDD",
"RYYYYkjycMdyhMkyppcvpy-*>::::::::>=$*>*@;=$31;:::::::>+0dunnsykmgupsvciyxVVVSDDD",
"TUUUUjMudlyykMawyxkupa:*>:::::::::-=;**%:=*2:::::::::>+qcugkyicmieucjupgvCCCSDDD",
"KDDDDhJstdvbMktgbmxyag:&>:::::::::=->=,,1:-=:::::*&,:>+wVathvnMhykbMktabbDDDDDDD",
"KDDDDhSxiuhjgrudkjiugj=*>::::::::=-;>&-:,:*=;:::;%34;>+0BkuujhfeugjjuujbbDDDDDDD",
"KDDDDhNcjiyyfusartidba=*>::::::::*=,:*;->,&=*>::;,4::>+0bvgiyufyfiryifbknDDDDDDD",
"KDDDDhNfppikngicxppsla=*>;;:::::;*=::*:&;>=&=:::::;::>+0bdppixnssxxipfkjnDDDDDDD",
"KDDDDjBuupablytfnhippi-*:=2::::>=-=;;*&%:;=%--:::::::>+0vyiidbhtthnfippjnDDDDSDD",
"DVVVVvmtpijbsyiyxvppie-*:<<::::;-$*:$*=%%-:O-=:::::::>+wkypilviuiicxppusbDDDCVVV",
"DVVVVvvipablyiiydnhiay-*>::::::=-#>=#%=%#%:*&--::::::>@3pppsnhtiitgnfipybDDDCVVV",
"DVVVVmxpijbstgjiyxvpau-*>:::::-=:>#$:1&%*-1==-=::::::>##wailvpyhfuiccppubDDDCVVV",
"DVVVVmcpablthCNlrdbhip;*>:::::-&;:-1<-:,>;*$;%%::::::>#%ypdnhrxVnjrhnfpanGGDCVVV",
"GCCCCMcikbsaVvjMkylvpp;*>:::::*;,=:=*;<>-#;=:*%*>::::>#%ypxvigCllMgicciavCCCNNNN",
"KDDDDDMilbrgcprjxtgMpp;*>:::>=---&#&$;:;*$2**&$%,>:::>#%yivxrjxuyllrlniafxxxjhhh",
"KDDDDDMijlpydihlytfspp;*>:::>=-%>&-,;->=:%-$-,*$;,:::>#%upljiyfikktyfspsfxxxjhhh",
"KDDDDDCppuvbpbVjelfypf>&>::;4,:<>:11>*1<<,;;,:;>4<:::>#&lpipncpMBfrcaupxfxxxjhhh",
"KDDDDDVfiupbNVhrkhtpag:&>:::>,<1,<11<:42<<,,<,,1<::::>#%lsiysnnMdtcfypscfxxxjggg",
"JSSSSSBcipuigdtddypihh**>:::::::::::::;:::::::::::::::@$jxipyagstfsypukcgvvckjjj",
"cjjjjjjvlaiytyuytipfb9%*>::::::::::::::::::::;:::::::=o$dbjpiytyuyyiphvaVUUIW!!!",
"xhhhhphhxvkgppppskcmg4*O-:::::::::::::::::::*;,::::::;+-sjcckdppppdlvbg8VYYY~///",
"xhhhpbhsisjtwwertddr6<e5@:::::::::::::::::::#32;:::::$pMdssfjierysnkut8-CSYY~^^^",
"xhhhjSGDVbVcccbnnnlrwulm&%>:::::::::::::::::-3-->::>&1mSGDDDDNnnmhfbguwrhDYY~^^^",
"xhhpkjbmMlcBMMMMMMmmmmbr>@>:::::::::::::::::>:-3::::#ukknmmmmmMMMnrsNmmmxCVY~^^^",
"!WWKlpsjjslkhhhhhhhhhjd53#=::::::::::::::;;:::,>:::&>kkpfhhhhhhhhjy0skhja3SDTTTT",
")/PYgpjjhashjjjjjjjjjjkt4-=:>==>::::::;:>&-::;;::::$ylfakjjjjjjjjksrkjjjkq7VUYYY",
"(^7vpfjkafpgjjjjjjjjjjjh5&%:>==-;:>-;;&>>&;:>&-::>=@gkihjjjjjjjjjkstkjjjkd4VYYYY",
"/^4cphkjpkgakkkkkkkkkkkk7%o&;&-&$%;*-*+&;$%%-#%;-*@@fjpjkkkkkkkkkkjijkkkkg9VYYYY"
};
