/* XPM */
static char *result[] = {
/* columns rows colors chars-per-pixel */
"80 80 34 1 ",
"  c #2E2C33",
". c #302E36",
"X c #322F38",
"o c #323037",
"O c #343239",
"+ c #38373C",
"@ c #3B3A3E",
"# c #3D3C41",
"$ c #403F43",
"% c #444345",
"& c #464549",
"* c #49474B",
"= c #4C4C4C",
"- c #50504F",
"; c #4F4F51",
": c #504F52",
"> c #545454",
", c #575758",
"< c #59575A",
"1 c #5C5C5C",
"2 c #605F5F",
"3 c #60605F",
"4 c #5F5F62",
"5 c #656565",
"6 c #686767",
"7 c #676867",
"8 c #686867",
"9 c #6C6C6C",
"0 c #6F706F",
"q c #727272",
"w c #7C7C7C",
"e c #818181",
"r c #898989",
"t c #919191",
/* pixels */
"eewwweweweeeeeeeeeeewqqq9wewwwwweewwwwwqwwewewwqwwqqqqqqqqqqqeeeeeeeeeeeeeeeeeee",
"wwwwwwwwwwwwwwwwwwwwq6999qwwwwwwwwwqqqqqwwwwwwqwqqqq9qqq99990wwwwweeeeeeeeeewwww",
"wwwwwwwwwwwwwwwwweewq9999qwwwwwwwwwwqqqwqwwwwwqqqqqq9qq09999qwwwweeeeeeeeweeewww",
"wwwwwwwwwwwwewewwwwwq9999qwwwwwwwwwqwqqqwwwwwqqqqqqqqq9099960wewwweeeeweeeeewewe",
"ewwwwwwwwwwwwwewwwewq9999wwwwwwwwwwwqqwqqwwwwwqqwqqqq90009999wwwweewweeeewwewwww",
"rrerrrrrrtrtrtreqwwwq99999qqq9qwqwqqqqqqwwwwwwewewwrereeeeereq9q00qqqqqqqqqqqwqw",
"rrrrrtttttttttteqwqwq99999qqq9qqqqqqqqqqqeewwweeeeerrrrrrrrre999999qq9q9q00qqwqq",
"rrrerrtttttttttewqwwq9999qq99qqqqqqwqqwqwwwwweewewerrrrrrrrre99999q9qq9q9qq9qqqq",
"rrrrrrtttttttttewqwqq99999qqq0qqwqqqqqqqwwwweweeeeerrerrrrrre99999qqq0q00000qqwq",
"rrrrrtttttttttteqwwwq999990990qqqqqqqqqqwwwewweeweerrrrrrrrre9999909q99q9009qq0q",
"wqqwwwwqwwqqqqw0009q99999weeeewwwwwwqwwwwwwwwwewewwwweewqqqqqwwwwwwwwwwqwqqwwwww",
"q900990999999989999999999etrrrewwwewwwwwwwwwwwwwwwwwwwwq99999eeeeeeweeewwwwwwwew",
"qqqwreeeereweeeeewwwweewwrttttrrrrrrrrrrrrrrrrrrrrrrrrrreeeeerrttrrtttrrrrewwwww",
"qqwqqqqwqqqww9999990qqwwwqwqwqqwwqqwqqqqqqwqqqwqwqwqqqwqqqqqwqwqqqwqqqqqqqqqwwew",
"q9weeeeweeeq81189qwweewewweweeewweeeeeeweeeeeeewweeeeeeweeweeeweweweeeeeewwwweww",
"ww9wwqwwwww5-<9qqwwwwwwwwwwwqwwwwwwwwwwwwwewwwwwwwwqwqwwwwwwwqwwwwwwqwwqwwqewwew",
"re9qq000006,,50qw0q0qqqq000000q0qqqqqq9q0qwwwqqqq000q0qq9qq9qq9q00qq00qq996eewwe",
"ee0q00q0q01>490qq00000q0000q0q00q0qqqqq9q09qqq999q009q9qqqqq9q9qq000q09qqqqeweww",
"ee9q0qq0q9><69q0qq000qq00q0qqq000q9qq90qq0q0q0qqqqqqqqqqqqqqq9qqq00qqqqq9qwewwww",
"ee9qqq0qq6<4qq0q0qqqqq0qq0q0q0qq9qqqqqq0q00q0q0q00q09qq99qq9qqqq0qq09qq9qqqewwww",
"ew0q0q00045qqq0qqqqq0q0qqqqq0qqqqq9qq0qq00qqqq9q0qq0q0qqqqq9qqqqqq0q0qq0q94ewwww",
"ww9qq09996qqqq00qq9qqqq9qq0qqq0qqq9qq00qqqq00qq99qqqqqqqqqqq9q9q00qqqq0qq94rwwwq",
"ew9q00966qqq909099q9qq9999qqq9q9qq990q0qq000q0q70q99qq99q9q99qqq00qq090q091eqwww",
"ww5099999qq99999qqqqqq999699999999990qq00999q08<6999990qq99999q999909999964ewqqw",
"ewq55556966665556965666566655678665966968875661>196965665444666565577677556ewwww",
"wqw96<<<<<111<1<<<<<<<111412311411<22<<<1311111<111122<<<<<<<<<2<<<1<<,,16wwqqqq",
"q009q66666555655556556655242433441<><<,><1<<34574411216666656555565114779qq0qqwq",
"q00qeeeweweeeweweeeeeewq15557555952<211235117656666659eeeeeeeeeweeww0qewwwqqqqqq",
"qqqqwwqwwwwwwwwwwwwwwwq4156699999811565596456999966996wwwwwwwwwwwwwwqqww0w00qwqq",
"qqqqw966999990qq060qq95<56966996653159q6665469699996949900009999799qq5765q00qqqq",
"wqqqw9969q960q0095009951196997555554669666555455999695990q009999799q96966ewwwqww",
"wwewe99969999990099999511699755565,1696696:266544599960990099699999997966rrrewww",
"wwwwe09699999699999698814994454:>%O$,5665;+#*,155377959999996699996969976rrrewwe",
"ewwww069669699669699695149449<##o...+*1>%O  .O@=4757959099899979969960979rrrewww",
"wwwww97697776976666669514444:#  oOOO O#+o.OOO...%,54676676699877696779956rrrwwww",
"reeew413443354514523532,45<# ##XOOOOOOX OOOOOOOOOO;5513343443411334144330rereeee",
"ttttt153543<111431<<,,>>44$X #  OOOOOOOOOOOOOOOOO O,7>13543543133313111,0rrrrrrr",
"tttttr755531141411,>->-<5:XX #X#OOOOOOOOOOOOOOOOOO #51<35535553555<1<,>,errrrere",
"tttttt0<3111414<111,,-<4>OXX X#XOOOOOOOOOOOOOOOOOOOO%5<<11134113111<1<;<rrrrrrrr",
"ttttttq35357097995781,<<$XOX#   OOOOOOOOOOOOOOOOOOOO *1<35755906995555,4rrrrrrrr",
"rereerq6669wwwwwq06971<= X#X# X#OOOOOOOOOOOOOOOOOOOO.O<57679qwwwwwq96644reeeewwe",
"q009099660ww0qwqqq0674>$ # X#X #OOOOOOOOOOOOOOOOOOOOO ;6969qwqqwq0qq9657eeee9979",
"qq000q966ww090wq0qq975*O  #   X OOOOOOOOOOOOOOOOOOOOO.#597qwqq9qw90q9646rewe0999",
"qqq000960w0qq66097qq95& #X  X## OOOOOOOOOOOOOOOOOOOOO.+479wq9q97q060q965eeee0999",
"qq090999wq6qq969650q95&  X##XX #OOOOOOOOOOOOOOOOOOOOO.#47qw99w95q949q964reee0799",
"wqqqqw060q99qqq0999997*o#X X# # OOOOOOOOOOOOOOOOOOOOO.#599q09qqqq7900766wwqwq0qq",
"wwwwwwq679qq6009qq6696* #  # X# OOOOOOOOOOOOOOOOOOOOO.#00790w09q67wq5967q999wwww",
"ewwwwww076qw0576ww9799*.  #  #X OOOOOOOOOOOOOOOOOOOOX #qq956wq766qw94999q999qwww",
"wwwwwwqq969qw96qw96909## #    ### X X  #   # ## OOOOO.#9w977qw950w096906q999wwww",
"wwwwwwwq0660q07wq94qq9###  ##X X  ####X ##XXXX  OOOOO.#6w0957wq9qq969qq5q999wwww",
"eewwwwqq0669qqwq946qw9$  ## # X #  X  #  ## #  #OOOOOX#6wq975qqww0669w96wqq0wwww",
"rrrrrq0099090wwq609904$#  # X ### #X # #    #X# OOOOXX#9067099qwq9999q96wwewewee",
"rrerrq966qwq9qq99qq964###  #      X## X ## XX#  OOOOO.#9959ww9qw06qq9659ewweeeee",
"rrrrrq96qww09wq99qwq94#  ##  ## X#  X #  X #X X#OOOOO.#569wwq7qq96qwq946ewwwewwe",
"rrrrrq96qq65qw054qq094$#  # XX###X#  ## X  # ##XOOOOO.#67qw94qwq669qq955ewewweee",
"rrereq099q09wq97qwq699# #  ##     #X #  ##X #   OOOOO.#0q600qqw956ww9669eeweeewe",
"eeweeqqq67qwq94qwqq4q9###  # ##X # #  #  #  # X#  # # #9w76qww940wwq59q9eeeewewe",
"eeeewq0qq79776996969q9#  # X X  #  ## #X ## #X ###   ##6wq79796699559qq6rweweeee",
"eeeeeq0q976qq9qq956qq6## ## #  #  XX # X X #  X  # ## #9q0977q0095969w96eeeeeeee",
"eeweeq09969qq94qwq4905*#X X #X # ## X  ##XX X##    #  #9q997qw059wq69066eeeewewe",
"eeeeeq06979wq659w99694#X##  X#  #X  ## X X###  ### X  #09769wq669wq99649reweeeee",
"ewwwwqq679qq66679w9994*  X # # #  ## X ##X    #  X ## #4975qq96659w06956eeeeweww",
"eeweww999qw957969wq994##  X# X# X# X#  ## X X## XX #XX#,799qq75956wq5964rwwewwew",
"ewwweq669qq69ww94qw999# ##X #  #  #X  #   ##X X # #  # ,97qw99qwq56qw655eeeeewww",
"wwwweq49qqq9qewq90qq96*# ##   # o+o+OoooooOOOOOOOOOOOoo,60qq7qwwq09qq947rweewwww",
"eeweww69qq0qq06qq9qw95*#   ##  #+oooo+oo@++OOOOOOOOOOOo,60w99wq60q99w966ewwwwwww",
"eeewew96qq65q99q959q95####  #   ooooo+$$#@OOOOOOOOOOOOo,60w96q75qq59q956wqqqq000",
"eeeeee9990qq6qw959q695#   #   ##@o+@$@@$#@OOOOOOOOOOOoo19990q90wq77q6766wwqqqq0q",
"eeweww0996qqqwq9qq9606## #  # ##%$@@%$@$#@+OoOOOOOOOOO 30969wqww99q95997wqqqq000",
"eeeeew9q6660qq990659q9#   ######@$@@%%$=%#@+++OoOOOOOoO1q9666qq9709679q5wqqwq000",
"eeweee6qq9669969676qq4###     ##@$$%%%%==%#$@+O+O.OOOO 1qw966666966690q4wqqqq00q",
"qqq00w69qq99666960qq04## ## # ##%%$%=%%%%%%#@@@$@@OOO o>0qqq96696999ww44rrrrrttr",
"qq0qqw999qq949666qq731,%  ####&&%%%=%%**&=*&%%%&%*@O +<990qq965670w996<<rrrrtttt",
"qq9qwqwwqqqq99q9q09517q7###**$**==--%=>>->--==*%$%%$ 4eewqwwwq0q0qw95444wrrrrttt",
"q0qq9qwwwwwewewwwwwqqqq9#$:$&=;;-->=%=>>----==-*$%=&=qqwwewwwweww97wwqqq9wertttt",
"qqqw999qq9qqqqqqqqqwqq73:##*::::>--------&->--->=*%#7q9900qqqqqqq047wqqq49ertrtt",
"trrqq99qq99qqq9qqq0qq0041-=-:;:>,>>,1,,--,-,>,>>-==190990q0q0qq0q049qq9q5<qrrrrr",
"ttew99q0999q9qqqq00qq0q71---;>>>>>,,1,,,,--,<>,---&3q0900qq000q0q09qq0qq919trrre",
"ttqq90qq9999qqqq0qq0qq09>=&=*=--=-,,,>,-=--,,<,===&30000qqqqq0qqq099qqqqq4<rrrrr",
"tt9q99q99qq99q9q000000001===-14>,,-,,>----,->,,<>:-30700909q00009099009q060rrerr"
};
