/* XPM */
static char *result[] = {
/* columns rows colors chars-per-pixel */
"80 80 254 2 ",
"   c #1B0F0E",
".  c #2B0203",
"X  c #360506",
"o  c #331411",
"O  c #351717",
"+  c #3C281A",
"@  c #251926",
"#  c #2A2827",
"$  c #37282A",
"%  c #3B3628",
"&  c #2C2A35",
"*  c #3A3836",
"=  c #470404",
"-  c #570202",
";  c #52170F",
":  c #471A16",
">  c #640102",
",  c #6C0302",
"<  c #730101",
"1  c #7B0000",
"2  c #7A0B09",
"3  c #61120F",
"4  c #6A1510",
"5  c #532F13",
"6  c #54261B",
"7  c #712B10",
"8  c #532E24",
"9  c #483B27",
"0  c #443938",
"q  c #553939",
"w  c #792828",
"e  c #6A3635",
"r  c #753532",
"t  c #3C4533",
"y  c #785502",
"u  c #774D14",
"i  c #7C650A",
"p  c #494528",
"a  c #43453B",
"s  c #574D31",
"d  c #6B4B33",
"f  c #7D7F27",
"g  c #79763B",
"h  c #2D2F43",
"j  c #363748",
"k  c #423E47",
"l  c #713C44",
"z  c #3C4349",
"x  c #3A4C53",
"c  c #434344",
"v  c #474749",
"b  c #4A4A4B",
"n  c #584848",
"m  c #51554F",
"M  c #434755",
"N  c #595857",
"B  c #674947",
"V  c #6A564A",
"C  c #665958",
"Z  c #5D6449",
"A  c #676846",
"S  c #6A744A",
"D  c #67665A",
"F  c #727452",
"G  c #505364",
"H  c #625F60",
"J  c #596465",
"K  c #636463",
"L  c #686867",
"P  c #6D6D6D",
"I  c #766B6B",
"U  c #6A7269",
"Y  c #74786C",
"T  c #676871",
"R  c #6D7372",
"E  c #727272",
"W  c #777976",
"Q  c #757A79",
"!  c #7C7C7C",
"~  c #840000",
"^  c #8B0000",
"/  c #8D0A06",
"(  c #930000",
")  c #9C0102",
"_  c #9A0609",
"`  c #8D0F13",
"'  c #A40101",
"]  c #AB0103",
"[  c #A3030B",
"{  c #AD020A",
"}  c #B70209",
"|  c #B3020C",
" . c #AF170E",
".. c #A90016",
"X. c #B80417",
"o. c #8E320D",
"O. c #911C22",
"+. c #BC0624",
"@. c #B51927",
"#. c #8A2D2A",
"$. c #B1322F",
"%. c #C3000A",
"&. c #C4041A",
"*. c #C20323",
"=. c #C3062A",
"-. c #C9072A",
";. c #C4092D",
":. c #D20D2E",
">. c #CA152A",
",. c #C70931",
"<. c #CB0B33",
"1. c #CA0A37",
"2. c #D30D33",
"3. c #C71B35",
"4. c #D81837",
"5. c #E31D3A",
"6. c #C82138",
"7. c #D72237",
"8. c #DB243D",
"9. c #DD293E",
"0. c #E1263E",
"q. c #84561B",
"w. c #866A06",
"e. c #8D700E",
"r. c #947902",
"t. c #977905",
"y. c #9C7C15",
"u. c #A57C03",
"i. c #AC7D08",
"p. c #924F33",
"a. c #AC4F35",
"s. c #91732A",
"d. c #AA7536",
"f. c #C0452F",
"g. c #DC2841",
"h. c #DE2B41",
"j. c #C93544",
"k. c #D23142",
"l. c #E12741",
"z. c #E12B43",
"x. c #8D4D44",
"c. c #B15147",
"v. c #906B4E",
"b. c #A86746",
"n. c #B56F52",
"m. c #A87459",
"M. c #826E6E",
"N. c #857979",
"B. c #AD7A64",
"V. c #D14E50",
"C. c #E04A50",
"Z. c #C9655D",
"A. c #788556",
"S. c #788374",
"D. c #9B8207",
"F. c #988211",
"G. c #A78704",
"H. c #B78802",
"J. c #B79808",
"K. c #A78818",
"L. c #B08F15",
"P. c #B89818",
"I. c #BDA114",
"U. c #998629",
"Y. c #AB8C23",
"T. c #A98C28",
"R. c #AF9128",
"E. c #B29425",
"W. c #B99A27",
"Q. c #B2942A",
"!. c #B59333",
"~. c #BFA224",
"^. c #C19E11",
"/. c #C7A807",
"(. c #C3A40D",
"). c #CBAC14",
"_. c #C6A718",
"`. c #CFB317",
"'. c #D3B41C",
"]. c #C69338",
"[. c #C5A926",
"{. c #D6B926",
"}. c #D0B02F",
"|. c #DBBD2B",
" X c #C9AC33",
".X c #D7B933",
"XX c #DEC12D",
"oX c #DEC037",
"OX c #ECD52C",
"+X c #E3C537",
"@X c #8E8B55",
"#X c #88895B",
"$X c #B2884A",
"%X c #B3A351",
"&X c #889763",
"*X c #9B9565",
"=X c #B08C69",
"-X c #94A56B",
";X c #96AA70",
":X c #A6AD73",
">X c #A8A975",
",X c #BBA778",
"<X c #B5B47D",
"1X c #C48F56",
"2X c #CFB14C",
"3X c #CB8F6A",
"4X c #C99575",
"5X c #D4AB77",
"6X c #E8AF73",
"7X c #9FC07F",
"8X c #E8C948",
"9X c #EDD04F",
"0X c #F3D458",
"qX c #F5CD71",
"wX c #EFE56B",
"eX c #7D8281",
"rX c #818181",
"tX c #828888",
"yX c #898989",
"uX c #958E8B",
"iX c #919191",
"pX c #9A9A9B",
"aX c #AE9F9F",
"sX c #AEAB8F",
"dX c #A7A7A5",
"fX c #B1B7B2",
"gX c #B7BBB9",
"hX c #DAA982",
"jX c #C9B688",
"kX c #D9BA8A",
"lX c #E2AD88",
"zX c #E7B68B",
"xX c #E9BD95",
"cX c #B7C0BC",
"vX c #CBC78C",
"bX c #F1D58E",
"nX c #ECC097",
"mX c #EDC29B",
"MX c #F2C899",
"NX c #F3C7A5",
"BX c #F4CCA6",
"VX c #F3DFAF",
"CX c #FCD8B7",
"ZX c #B4BFCA",
"AX c #B4C3CE",
"SX c #C8CACA",
"DX c #CDD0CE",
"FX c #D6D9D9",
"GX c #FDD7C4",
"HX c #FFDEC3",
"JX c #FFE2C5",
"KX c #FFE6C9",
"LX c #FFF4D9",
"PX c #E7ECEC",
/* pixels */
"rXN.eXS.! N.! ! rX! rXrX! rXrXrXrXrXrXrXQ P P P E ! rX! ! ! rX! rX! S.! ! Q Q Q Q eXS.rX! ! W W ! W ! E E E E E E E E P E N.rX! rXrXrXrXrXrXrXrXrXrXrXrXrXrXrXrX",
"! ! ! ! ! ! ! ! ! ! ! ! ! ! ! ! ! ! ! rXE P P P P E ! ! ! ! ! ! S.e.t.r.t.t.r.r.t.t.u.t.W ! W E E E E P E E E P L P P P E ! ! ! ! ! rXrXrXrXrXrXrXrXrXrX! ! ! ! ",
"! ! ! ! ! ! ! ! ! ! ! ! ! ! ! ! rX! ! rXE L P P P E ! ! ! Q W W S.D.H.G.G.D.y.D.G.G.G.G.A.Q Y W E E E P E P E E P P P P P ! S.rX! rXrXrXrX! rX! rXrXrXrXrX! ! ! ",
"! ! ! ! ! W ! ! ! ! ! ! rX! ! rX! ! ! ! E P P P P E ! ! ! R y.K.E.I.'.XX).P.Y.P./.{.{./.E.U.t.U E W E E P E P P P L P L E rX! ! ! ! rX! rXrXrXrX! rX! rX! rX! ! ",
"rX! ! ! ! ! ! ! ! ! ! ! ! ! ! ! ! ! N.! E L T P P E W F S.@X^.i.W.'.8X0XXX).I._.XX8X9XXX~.L.H.U.Y F U Y R R E E P P P P P ! ! rX! rXrXrXrX! rXrXrXrXrXrX! ! N.rX",
"yXtXyXrXyXyXiXyXyXyXiXiXiXiXyXrXE ! ! Q E P P P P P g i.P.(.).W.W..X8X0X8X{./.{.8XqX9X|.].Q.`.).^.H.s.eXtXtXrXrXrXrXrXyXrXP E P P P E E E E E E E E E E W W E W ",
"yXyXyXyXyXiXiXiXiXiXiXiXiXiXiXrXE ! W ! R P T U P g i.L./.'.|..X XW. X8X0X+X(..X0X9X.XW.[.|.XX'._.P.i.s.S.yXyXyXyXyXyXyXrXP P P I P P P P E P P P P E P E E E Q ",
"yXyXyXtXyXyXiXiXiXiXiXiXiXiXiXrXW ! W W E L L U f G.L.Q.P._.}.|.[.P.P.{.0X8X)..X0XXXP.L.[.{.}.[.^.Q.R.i.@XS.yXyXyXyXyXyXrXT P P T P E E P E E P E P E P E W E E ",
"yXyXyXyXyXiXiXyXiXiXiXiXiXiXiXrXW W ! ! P P U g G.R.R.R.Q.Q.Q.I./.(.(.).{.{.(.{..X).I.(./.^.E.R.Q.Q.R.Q.K.s.S.tXyXyXyXyXrXP P P I P P P E P E E E E E I Q E E E ",
"yXyXyXyXyXiXiXiXiXiXiXiXiXiXiXrXW ! E ! P T U e.i.Q.W._.}.!.T.J./././.J.W.~.).I.W.I./././.J.Y.!. X).P.Q.G.t.yXtXyXyXyXyXrXP P P T T P E P E P P T T I E E E E E ",
"! E ! E ! E ! ! ! ! E E W E W E P P P P P P L D.G.R.I.`.|.~.E._.'.).).).W.P._.P.P._.).).'._.E.~..X`.I.E.L.r.S.W E E E E E ! W ! ! ! ! ! ! ! ! W ! W E E ! ! ! ! ",
"E P E P P P P P P P P P P L P P L P P P P U s.J.^.Y.Q.Q.Q.P.(.+X9XXXXXXX`.P.E.P._.{.XXXX9X8X_.P.Q.W.E.E.P.I.U.U P L P P P rXrXN.rXrXrXrXrXrXrX! W ! ! Q ! ! ! ! ",
"W E P E E E P E E P P P P P P P P T P P P S H.P.[.T.Y.y.L._.|.9X9X2X[.(.J.J.F.K.J.I._. X9X0X+X_.L.F.K.T.W._.H.s.P P P P P rXrXrX! rXrXrXrXrX! Q W ! E ! ! rX! rX",
"E P P E P E E P R E P P P T P P P P P P P S u.L.Q.T.t.t.J.+XqX8X[.R.y.r.r.r.r.r.r.r.y.T.[.+X0X8X(.G.t.Y.Q.T.u.g P P P T P rX! rXrXrXrX! rXrXN.! Q Q W W ! ! ! ! ",
"E P P E P P P P P P P L P T L L P P P P P F t.Y.T.t.y.K._.9XwX+XJ.D.y.d.e.w.w.w.w.d.y.t.J.|.wX0X'.L.y.F.T.T.u.g L P P P P rXrX! ! rXrX! rX! ! ! Q E W ! ! ! ! ! ",
"N.! ! ! ! ! rXrXrXrXN.! ! ! N.! E ! E E E S G.L.K.r.K.[.oX0X8X).G.u.$X4X!.K.Y.K.R.4X1Xy.D.(.8X9X8X XK.r.u.P.G.g P P P P E yXyXyXyXyXrXrXrXrXrX! ! ! ! N.! rX! ! ",
"tXrXrXrXrXyXyXyXyXyXyXyXyXyXyXrX! ! rX! Q F G.(.J.r.G.{.0X8X/.G.y.!.5XxXzXlXkX6XlXxXhX$Xy.G.(.8X0X.XJ.r.G._.H.g P P P P P iXiXiXiXiX! ! rXrXrXrXrXrXrXrXrX! ! rX",
"rX! rX! rXyXyXyXyXyXyXyXyXyXyXrX! rX! ! Q D u.P.K.r.G.'.9X.XL.e.q.Z.hXNXMXNXmXNXNXNXlX3Xs.w.G.}.9X|.J.r.G.^.G.A P L P L R iXiXiXiXiXrXrX! rXrXrX! rXrX! ! ! ! ! ",
"tXrXrXrX! yXyXrXyXyXyXyXtXyXyXrX! ! rXrXW K w.Y.K.t.J.`.XX XT.w.s.1XlXxXmXxXxXxXnXMXlX3Xs.w.U. XXX'.J.D.y.E.e.A P P P P E yXiXiXiXyXrXrXrX! rX! ! rXrXrXrX! N.! ",
"rXrXrXrXrXyXyXyXyXyXyXyXyXyXyXrX! ! N.! L V u t.G.K.[.|.XX}.T.i s.zXCXCXBXCXCXCXBXCXCXmX$Xy y. X+XXX[.L.K.F.u B C U L P E iXiXiXiXiXrXrXrXrXrXrXrXrXrX! ! ! ! ! ",
"! ! ! ! ! rXrXrXrXrXrXrXrXrXrX! E E E P B #.v.w.t.Q..X+X|.[.K.y m.CXLXKXJXHXHXHXHXJXLXKX=Xy y._.{.+X.X!.F.e.s.x.3 H P L P yXrXtXyXrXrX! ! rX! rXrXrX! rXN.! ! ! ",
"! ! ! ! ! ! N.! ! rX! ! ! ! ! E P P P L 6 B.hXe.w.Q..X.X`.J.t.u v.mXJXKXGXGXCXHXHXJXKXBXB.u w.J./.XX.XW.e.w.4X4X8 K P P P ! ! ! ! ! ! ! ! ! ! rXrX! rXrX! Q ! W ",
"! ! ! ! ! rX! ! ! ! ! ! ! ! ! E P P P K 6 4XBX$Xs.R.}.{.).G.i 8 l v.=X=XxXCXBXCXNX4X=Xm.B 8 y G./.{.|.W.s.d.MXzXw K P P E ! ! ! ! ! ! ! ! ! ! rXrXrXrXrXW Q ! W ",
"rX! ! ! ! ! ! ! ! ! rX! ! rXeXE P L P P V B.zX4X!.R.{.XX).L.i 5 : : 6 p.5XNXxXMXkXv.6 : 6 5 u K.(.XX{.W.!.3XzX4XV K P P R ! ! N.! ! rX! ! rX! rXrX! rX! Q W E ! ",
"! ! ! ! ! N.rX! rX! rX! ! rXN.E P P P L P L p.3X2X!.}.|.P.%XpXv.y y q.b.5XNXxXMXlXB.q.y y s.uX:XP.{..XW.1X3Xb.I T U P P P rX! ! ! rXN.! ! rX! rXrXrXrXrX! ! E ! ",
"! E Q E E Q Q E Q E E E E E E P L P P P P L C x.d.L.'.'.Y.sXAX%Xr.D.E.6XzXMXxXmXxX6X].H.r.U.AXfXT._.{.L.d.b.C E E E E E E E E E E E Q E Q E E ! Q E Q E E E Q Q ",
"E P P P E E E Q E E I T P L L P L T P P P P L C u t.^.(.L.sXAX@Xt.J..X6XzXmXxXmXxX6X.X/.D.U.fXfXQ.^.(.G.w.B Q ! Q W E E W L P P P P E P P E E P P I I E E E W E ",
"Q P E E E E E E E W P P P P P P P P P P P T P L V t.H.J.L.>XAX%X).9XqX6XzXxXxXxXxXlXqXwX'.!.cXdXY.P.J.G.A W ! eXQ ! ! ! W P P P P P P E E P P E E E E E E E E W ",
"E E E P E E E E W E P P P P P P P P P P P P P P D r.L.Y.L.sXAX2XOXwXbXmXmXmXmXmXmXmXMXwXOX2XcXsXT.Y.L.u.Y S.rXN.! W W ! E P P P P P P E P E P P I E E P E E Q E ",
"E P P E E E E E E E T I P P P T P P P L P L P P U w.y.E.L.sXAX2X/.`.qXCXCXCXCXCXCXGXbX{./. XcXdXQ.E.Y.w.Y N.! ! E W W ! W T T I L P P P P P P P T T P P E E E E ",
"! W W E E W Q Q ! Q E E E E E E P P P E E E W E U w.y.L.K.jXSX6XXX.XbXGXJXHXCXHXJXKXbX2X|.8XSXjXR.K.i.w.U W W W E E E P E E E W E ! ! ! rX! ! ! ! ! rX! ! E ! ! ",
"! ! ! ! ! ! N.! ! ! ! rXN.! rXE P E E P ! rXrXrXS.i r.r.K.2XxXCXVXCXCXHXCXHXCXGXHXGXCXCXHXCXNX5XE.u.r.w.L P P I T P P L E rXrXrXrXrXyXyXyXyXyXyXyXyXyXyXrX! N.! ",
"! ! ! ! ! ! ! ! ! ! ! ! ! rX! E P E E P ! rXrXrXY 7 y D.G.y.m.lXJXJXGXKXGXKXHXKXGXJXKXKXHXnX$Xs.y.D.i 7 K E P P P P P P P rXrXrXrXrXyXyXyXyXyXyXyXyXyXyXrX! ! ! ",
"! ! Q ! ! Q ! ! ! N.! ! ! ! ! W P E P E ! rXrXrXI 1 7 r.t.5 O d.6X5XmXCXCXCXCXCXCXCXNXhX6X$X: 5 r.w.y 1 C R E P P P P P P N.rX! ! rXyXyXyXyXyXyXrXyXyXyX! ! ! rX",
"! ! ! N.! Q ! N.Q Q ! ! rX! ! E P P P P W ! ! C w ) ) o.e.5 . 6 d d m.5X6XqXqXMXbX6XB.d r 8 X ; r.o.' ) w B P E L P L L P rXrX! ! rXyXyXrXyXyXyXrXyXrXyX! ! ! ! ",
"yXrXrXrXrXrXrXrXrXrX! ! Q ! W ! ! rX! ! rXrXE #.' ] '  .o.7 - = X . 6 d.d.Z.d.d.d.d.r X . = - 7 o._ ] ] ] O.C ! W ! W ! ! yXrXyXyXrXyXyXyXyXyXyXyXyXyXyXrXrXrXrX",
"iXiXiXiXiXiXiXiXiXiX! P P P P yXiXiXiXpXuXE O.+.&.' ' ' ' ' ) ~ - X o 6 8 6 6 6 6 6 O X = 1 ) ] _ ' ' ) X.=.O.C iXiXiXiXiXiXiXiXiXiXiXiXiXiXiXyXyXyXyXyXyXyXyXyX",
"iXiXiXiXiXiXiXiXiXiXQ E E E P tXiXiXiXiXW r ) =.;.X.] ) ^ ( ] ) ~ < > = e s : 9 s ; - < ~ ) ] ) / / ' | ;.-.] #.I yXiXiXiXiXiXiXiXiXiXiXiXiXiXyXyXyXyXrXyXyXyXyX",
"iXiXiXiXiXiXiXiXiXiX! P E P P tXiXiXiXtX2 ' X.+.1.;.| ^ , ~ ' ' ] } ( ` F S p A F O.( | ] ] ' ^ , ~ { =.<.=.X.' ^ N.iXiXiXiXiXyXiXiXiXiXiXiXiXyXyXyXyXyXrXyXyXyX",
"pXiXiXiXiXiXiXiXiXiX! P I E P rXiXiXiXrX_ } *.=.,.,.| ( , ~ ] ' { &.&.@.m.A.p S m.$.*.*.{ ' ' ^ , ^ { =.,.;.=.X.' M.iXiXiXiXiXiXiXiXiXiXiXiXiXyXrXyXyXyXyXyXyXyX",
"yXrXrXyXrXyXrXrXrXyXE P P E I rXiXyXrXw X.*.<.=.,.,.| ( < ~ ' { X.+.1.4.B.A.p F =Xj.-.,.X.{ ] ^ < ^ { =.1.;.,.-.X.x.yXuXyXyXyXyXyXyXyXyXyXyXyXrXrXtXtXtX! N.rX! ",
"E P P T P P P I E P P P P P T E ! ! V _ =.<.;.;.;.=.| ( < 1 ' +.,.,.*.3.4X&Xp A.,Xj.*.=.<.+.{ ~ , ^ { *.;.=.=.,.,...B rXrXN.! ! ! ! ! ! ! ! ! ! rXrX! N.P L T L ",
"E E E E E E E E E P P P P P P W ! ! #.} =.,.=.;.+.{ } ( - > ] *.1.,.+.3.hX-Xp A.jXj.*.=.<.=.| < = ^ } { X.,.;.;.,.} / rXtX! ! ! ! ! ! ! ! ! ! rXrXrXrXrXR P P P ",
"E E P E P P E P P E P P P P L W ! Q #.X.=.,.=.<.X.' ) , X - ] &.,.=.*.3.hX;X9 &XkXk.*.=.,.*.{ , X > ( ) ..,.,.;.,.%.[ W yX! eXN.! ! ! ! ! W W ! eXN.rXrXP L P P ",
"E E P E P P P E P P P P P P P E R B ( X.;.=.,.<.&.' > X . > ] *.,.=.*.3.hX;Xp &XvXk.*.=.=.*.{ < X . - ( X.<.,.,.;.&.( l Q ! ! ! ! ! ! ! ! ! ! N.rX! rXrXP P P P ",
"! E E E E ! E E W E E P P P P Q P > ( X.=.<.+.X.} [ n H O > ] +.,.=.*.6.hX:X9 &XvXk.*.=.1.+.{ , X z n / } X.+.,.;.X.) , K ! ! ! ! ! ! E E Q Q ! ! ! Q ! E P P E ",
"! ! ! ! ! ! rX! rX! E E P E R ! K ^ ) | ,.1.+.{ ' #.L P m , { &.,.=.*.3.hX;Xp &XkXk.*.=.,.=.| < n rXQ #.] ' X.,.,.X.) ^ B P P P P E E P P P P P P L L P ! ! ! ! ",
"! ! ! ! ! rX! ! ! rXE P E P P C r ' ' { ;.1.;.{ ~ B L P C ^ +.=.=.=.*.3.4X&Xp A.jXj.*.=.=.+.*.) B eXQ q 1 ' *.1.<.X.' ' w N P P E P E P E E P P P P P P E ! ! ! ",
"! ! ! ! ! ! ! ! ! rXE P E P E B o.$.$.@.-.&.X.} , 0 P P e _ 1.<.;.=.*.3.4XA.p A.,Xj.*.=.;.<.1...w ! ! * > ] } *.*.@.$.$.o.; K E P E E E E P P P I P P P ! ! ! ! ",
"! ! ! ! ! ! ! ! ! ! E P P E P A *X<X:Xn.=.} ' ' < X 0 q 3 _ 1.4.7.;.*.3.=X&Xp A.,Xj.*.=.7.8.1..., 6 n o , ] ] ] X.V.<X<X*Xg P P E P P P E P I T T P P L ! ! ! ! ",
"rXrX! ! ! ! ! ! ! ! ! W Q E L a.c.n.b.n.n.n.a.a.7 o . = ` ..=.8.8.,.*.:.3XA.p S =X6.&.=.7.g.<.X.` - X o 6 p.a.b.n.n.n.n.b.a.C E W W W W E Q E E R E P P ! ! ! ! ",
"yXyXyXyXtXE P P E P yXiXiXq - ( ' ) ' a.,X<X>XF Z Z O - +.2.,.7.7.;.=.$.m.A.p S @Xj.=.=.3.8.,.:.,.< O D S v.*X<XsXa.[ _ ) ' < K yXyXyXyXyXyXyXrX! N.! rX! rXrXrX",
"yXyXyXrXyXE E E P P yXiXiXn O - = - (  .$.f.$.6 J iXC < +.2.7.g.4.=.$.m.*Xg + s #Xm.c.+.4.9.7.4.-.^ V ! Q q #.f.a.@.' > X = = P yXyXyXyXyXyXyXrX! ! ! rX! rXrX! ",
"yXyXyXyXyXE P P E P yXiXiXN $ $ q e 2 1 ~ ~ > X x eXd ) +.4.h.h.4.=.c.;XS A D A F &XB.+.:.z.z.4.=.[ r ! W O - ~ ^ 1 1 r q 6 $ ! yXyXyXrXyXyXrX! rX! ! ! rXrXrXrX",
"yXyXyXyXyXE P E E P yXiXiXN v E SXgX8 . X X X X o + 2 | +.2.g.h.2.=.B.>Xs S gXW p -XB.1.:.9.g.4.=.} / q $   o = = . : aXDX! v ! yXrXyXyXyXyXyX! ! rX! ! ! ! rX! ",
"yXyXyXtXyXE I E E P tXiXiXC N rXDXFXuXC s I I n o X 1 } <.8.g.h.4.=.Z.>Xs m pXD p -X3X1.<.9.9.8.2.&.^ = @ c U I n n N.DXFXiXC W yXyXrXyXyXrXyX! ! ! ! rXrXrXrXrX",
"rXrX! rXrXE P E P E tXyXyXrX! ! aXDXPXZX! DXFXQ # = 1 } 7.z.8.9.4.=.Z.:Xs 9 m 0 p ;X3X:.:.l.8.z.9.&.^ = O K DXFXrXdXPXFXdXN.E Q ! rXrXrXrXrXrX! rXrXrXrX! rX! rX",
"rXrXrXrXrXW P P E P rXyXyXyXrX! pXDXFXpXK gXDXJ X , ^  .7.z.8.9.2.-.Z.<Xs o c O 5 *XB.:.:.9.9.l.9.&.( , = b AXSXL tXDXFXaXP ! ! ! ! rX! rX! rXrX! rX! rXrXrXrXrX",
"rXrX! rX! E E E P E rXyXyXyXyXE N.cXDXdX! yXrXx 8 < ) X.7.z.9.0.4.@.m.*X6 . k O o @X=X$.3.5.0.l.9.>._ ~ : x eXyXrXpXSXSXiXn ! ! ! rXrXrXrX! rX! rXrXrX! rXrX! rX",
"rXrXrXrXrXE P P E P rXyXyXyXyXE C iXgXDXgX! E N.x < ..2.7.l.0.5.j.F A.F : X j @ : d A.F c.5.0.9.9.>.X.~ a eXE E dXDXgXpXH P ! ! ! ! rXrXrXrXrXrX! rXrXrX! rXrXrX",
"rXrXrXrXrXP P P P E N.rXrXrXrXrXR n L M.! E ! ! W , ..2.8.9.8.5.V.*XA.s $ $ j & + p S -XZ.5.8.9.8.4.X.1 E ! N.Q E N.P n P Q ! ! ! rX! rX! rX! rXrX! rXrXrX! rXrX",
"rX! N.! ! ! ! ! ! ! R P P P P P P K H H K E P P C 1 ..4.8.9.8.4.V.<XA.% * j j j * % S :XZ.4.7.9.9.4.X.^ C N.! ! K H K H P P P E P E P E P P E rXrXrX! rXrXeX! ! ",
"rX! ! ! ! ! ! E W W P L P P P P P E E P P E R C w ) >.8.8.0.4.<.V.jX&X% c k j j a % A.vXZ.:.4.9.9.h.>.{ w C ! ! P P P P P E E P E P P E E E E rXrXrXrXrX! ! ! ! ",
"rXrX! ! ! E ! ! E ! E P T P P P E E P E E P P r ( { >.z.g.z.8.&.f.vX#X+ k M j k a O S vXV.%.4.z.9.z.7.| ( < Q ! P P P P P P E E P E E P E P P ! rX! rXrXrX! ! ! ",
"rX! ! ! ! ! E ! ! E E T I T P P P P P E P E P 3 ^ { >.z.9.z.7.{ $.<Xv.X 9 v j j k X d vXa.{ 7.z.h.z.7.{ ^ 4 W ! P P P P P P P P E P E P E P E ! rXrXrXrX! ! ! N.",
"rX! ! rXrX! E ! Q ! E P P P P E E E E E E P E 3 ( +.4.h.9.z.7.] $.<XF X $ x j k k . d sXc.' >.z.h.z.7.=.) , ! W P P P L P E E E E W E I E E E ! rXN.! rX! ! ! ! ",
"tXrX! ! rXrXrXrXrX! rX! N.! rX! rX! ! rX! ! ! 3 ) <.4.h.9.z.7. .a.>XA o 0 v j x 0 o s >Xb. .4.0.9.9.7.2..., L E P L P P E yXyXyXyXyXW ! E ! ! E Q E E ! E T E E ",
"rXrXrXrX! rX! rXrXrX! ! ! ! ! ! ! ! ! ! ! ! Q 3 _ ,.4.h.9.5.k.Z.*X@XV * c c * k c z s v.*X$X9.5.9.9.5.2.[ , P P P P P L P yXyXyXyXrX! E ! Q Q E E E E E E I E T ",
"rXrX! rXrX! rXrX! rX! ! ! ! rX! ! ! ! rX! ! Q 3 ) =.4.h.9.4.9.5X7XA a b b c t a v b c s ;XvXk.5.9.h.g.<.[ 4 T P P P P P I yXyXyXyXrXE ! W ! E E E E E E E P T I ",
"rXrXrXrXrXrX! rXrXrXrX! rX! ! ! rX! ! ! ! ! ! 3 _ <.8.h.9.4.k.hX7Xs t v b z * z b b % 9 -XvXC.4.9.z.4.<.[ > P E P P P P E yXyXyXyXrX! E ! E ! E E E W E E E E P ",
"rXrX! rXrX! rX! ! rXrX! ! ! ! ! ! ! ! ! ! ! ! 3 ) 1.4.z.9.5.z.zX:Xp & v b * # * b b * % -XxXC.2.9.h.g.2..., P E P P T T E tXyXrXyXrX! ! ! E ! E E ! W E E E E E ",
"E E E P E E E E E E E E E E E E P P P P E rX! 3 ) *.4.8.8.2.k.hX:Xs % b b *   # b b * p -XhXC.:.4.8.4.>.[ , eXrXP E P I E iXiXiXiXiXyXiXiXiXiXyXyXyXrXtXyXiXyXiX",
"E E P E P E P P E P W E E E E I P L P P Q rX! e ( { =.<.<.-.3.4X;Xp t v c & # # a v * 9 &X4Xk.-.<.2.<.| ' r yXyXP E P E E iXiXiXiXiXiXiXiXiXiXyXyXrXyXyXiXiXiXiX",
"E E E P E P E E P E E E Q E Q E P P P P E ! rXE r ( [ ..X.} X.m.#Xp % a * M L G j z % 9 A.=X@.%.X...[ ) l E yXrXI P E P E iXiXiXiXiXiXiXiXiXiXrXyXyXyXyXyXiXiXiX",
"W P E P E E E P E I W E E E W T L P P L ! ! ! ! Q w > < ) ] _ p.S p * * j J R U v * * 9 Z g ` ] ' 1 , w E yXyXyXP E P E W iXiXiXiXiXiXiXiXiXiXyXyXyXyXrXiXiXiXiX",
"E E P E P E P E E E Q E W E E I P P P P W ! ! rXeXP N X 1 / 1 8 a & h j * j G x j j j & t 5 2 ( ~ = L ! rXyXyXtXE P E P E iXiXiXiXiXiXuXiXiXiXyXyXyXyXyXiXiXiXiX",
"iXyXiXyXyXyXrXrXrXrX! ! ! ! ! ! E E W E E P P P P E L   ; 4 4 q m M M M c #   @ k x k G m s 6 4 ; X T eXrXrXrXrX! W ! E ! E W W E E rXrXrXrXrXyXrXyXrXyXyXyXyXyX",
"iXiXiXiXiXyXyXyXyXyXrX! ! rX! Q W ! ! ! E L P P P R L   $ n C E ! Q T G v #   # 0 N T Q ! E C n $   R rXS.rXrX! E ! E ! Q I P P E E ! ! ! ! ! yXyXyXyXyXyXyXyXrX",
"iXiXiXiXiXyXyXyXyXyXrX! ! rX! ! ! W W ! E P P P T E W L J # z G T J b & @ h J x @ & j J T G j & P Q rXN.rXrXrX! ! W W E Q E I T E E ! ! ! ! ! yXyXrXyXyXyXyXyXyX",
"iXiXiXiXiXyXyXyXyXyX! ! ! ! ! ! E Q ! E P P P P L E ! Q R b N D K D N a a J E P m N C T E P T C rXyXtXrXrXrX! rXW W Q ! E E E E P E ! ! ! ! ! yXyXyXyXyXrXyXyXyX"
};
