/* XPM */
static char *result[] = {
/* columns rows colors chars-per-pixel */
"80 80 254 2 ",
"   c #1B0203",
".  c #1C1D0D",
"X  c #1B1818",
"o  c #280102",
"O  c #340605",
"+  c #3C0101",
"@  c #331412",
"#  c #312811",
"$  c #2A2727",
"%  c #3A3628",
"&  c #2F2F30",
"*  c #373738",
"=  c #3A3B3B",
"-  c #430103",
";  c #4C0101",
":  c #45080B",
">  c #5D0001",
",  c #580708",
"<  c #461917",
"1  c #521611",
"2  c #630001",
"3  c #6C0101",
"4  c #680A0B",
"5  c #730001",
"6  c #7B0000",
"7  c #780809",
"8  c #71150E",
"9  c #661915",
"0  c #4B2419",
"q  c #522C11",
"w  c #56281B",
"e  c #712B18",
"r  c #4F1E20",
"t  c #492724",
"y  c #5A2F2E",
"u  c #433B26",
"i  c #433C3B",
"p  c #6B2B29",
"a  c #6B3D26",
"s  c #6F3229",
"d  c #3C4731",
"f  c #6E4F0B",
"g  c #775808",
"h  c #7D6308",
"j  c #7A6B19",
"k  c #48482B",
"l  c #524F2F",
"z  c #494A35",
"x  c #595837",
"c  c #6F4F32",
"v  c #5A613B",
"b  c #746D3A",
"n  c #2E2E43",
"m  c #363749",
"M  c #3B3B51",
"N  c #583E42",
"B  c #344545",
"V  c #306363",
"C  c #434445",
"Z  c #494745",
"A  c #4C4C4C",
"S  c #544B4A",
"D  c #54534A",
"F  c #4D4E51",
"G  c #4B5858",
"H  c #545454",
"J  c #595656",
"K  c #5B5B5B",
"L  c #6D4F4B",
"P  c #655A59",
"I  c #676847",
"U  c #74694C",
"Y  c #6B7348",
"T  c #77764A",
"R  c #757A55",
"E  c #5E6161",
"W  c #676765",
"Q  c #6D6D6D",
"!  c #746968",
"~  c #6B7467",
"^  c #75796A",
"/  c #6C7372",
"(  c #727272",
")  c #767A75",
"_  c #7C7C7C",
"`  c #840102",
"'  c #8B0101",
"]  c #86060A",
"[  c #940001",
"{  c #9C0001",
"}  c #94030C",
"|  c #8D1213",
" . c #A40001",
".. c #A70607",
"X. c #AB0002",
"o. c #B40308",
"O. c #AE170D",
"+. c #A40316",
"@. c #B70317",
"#. c #922E13",
"$. c #A92719",
"%. c #B02D1C",
"&. c #9D0723",
"*. c #A70925",
"=. c #BA0525",
"-. c #922B22",
";. c #AD3429",
":. c #B43825",
">. c #C4031C",
",. c #C30525",
"<. c #C4062B",
"1. c #CA072B",
"2. c #C5092D",
"3. c #D40C2D",
"4. c #C60931",
"5. c #CA0A34",
"6. c #CD0B3A",
"7. c #D80634",
"8. c #D20A33",
"9. c #C81634",
"0. c #D91939",
"q. c #E21238",
"w. c #C92D3C",
"e. c #DA243D",
"r. c #E2233D",
"t. c #915408",
"y. c #856806",
"u. c #91670C",
"i. c #8D7202",
"p. c #887208",
"a. c #947A03",
"s. c #967808",
"d. c #866818",
"f. c #8A7716",
"g. c #977A16",
"h. c #A57B05",
"j. c #A17B14",
"k. c #864F31",
"l. c #B14734",
"z. c #8F732D",
"x. c #AC7B35",
"c. c #D52F41",
"v. c #E02B40",
"b. c #8D584A",
"n. c #91724F",
"m. c #AC7550",
"M. c #8A716D",
"N. c #B27061",
"B. c #D44F51",
"V. c #D8695E",
"C. c #29807F",
"Z. c #7A8557",
"A. c #7C8468",
"S. c #9C8307",
"D. c #968317",
"F. c #A68707",
"G. c #B68907",
"H. c #AD920E",
"J. c #B89706",
"K. c #A78817",
"L. c #B38C1A",
"P. c #B59818",
"I. c #BB9C1C",
"U. c #BFA00D",
"Y. c #BEA118",
"T. c #968836",
"R. c #A98B27",
"E. c #AC8E25",
"W. c #AE9226",
"Q. c #B39523",
"!. c #B89A26",
"~. c #B3962B",
"^. c #B28931",
"/. c #B69537",
"(. c #BEA127",
"). c #BAA733",
"_. c #C29A07",
"`. c #C3960D",
"'. c #C4A50C",
"]. c #C8A80B",
"[. c #D1A90A",
"{. c #C3A413",
"}. c #C9A917",
"|. c #CEB118",
" X c #D4B51C",
".X c #C08C35",
"XX c #C5A727",
"oX c #CFB128",
"OX c #D6B926",
"+X c #C7AA34",
"@X c #D6AC36",
"#X c #D8BB34",
"$X c #DCC42A",
"%X c #DDC233",
"&X c #EEDB2B",
"*X c #E4C639",
"=X c #868659",
"-X c #908A52",
";X c #B48A50",
":X c #858E61",
">X c #8B926B",
",X c #B09369",
"<X c #95A56F",
"1X c #ADA672",
"2X c #CD9455",
"3X c #D7BA49",
"4X c #C68965",
"5X c #CA9767",
"6X c #C89977",
"7X c #D69073",
"8X c #CFAA75",
"9X c #EAB378",
"0X c #E7C944",
"qX c #ECD053",
"wX c #F4D559",
"eX c #F5D165",
"rX c #F2E664",
"tX c #7D8383",
"yX c #818281",
"uX c #898786",
"iX c #898989",
"pX c #958182",
"aX c #919191",
"sX c #9B9899",
"dX c #A8A9A8",
"fX c #AFB2AC",
"gX c #B5B5B3",
"hX c #C69C82",
"jX c #D3B185",
"kX c #E3AC88",
"lX c #E5B48C",
"zX c #EABB96",
"xX c #C5B0B1",
"cX c #B6C396",
"vX c #EFCF8B",
"bX c #EBC096",
"nX c #EDC29A",
"mX c #F3C69A",
"MX c #FAD594",
"NX c #DDD2A7",
"BX c #EDC8A6",
"VX c #F3C8A2",
"CX c #F9D2AB",
"ZX c #FAD4B5",
"AX c #FEDCBE",
"SX c #C5BEC7",
"DX c #D0D4D4",
"FX c #FFDEC3",
"GX c #E2D9DA",
"HX c #FFE1C3",
"JX c #FFE4CA",
"KX c #FFECD1",
"LX c #C7C7E0",
"PX c #F4F5F5",
/* pixels */
"yX_ >X_ _ _ _ _ yX_ _ yXyXyXyXyXyXyXyXyX) ( Q ( Q _ _ _ A.tXtXtX_ M.^ ) R ^ ~ ~ ^ ^ ^ M.tXA.) ) ) _ ) ( ( ( ( ( ( ( / Q ( yX_ yXyXyXyXyXyXuXyXyXyXyXyXuXyXyXyXyX",
"_ _ _ _ _ _ _ _ _ _ _ _ _ _ _ _ _ _ _ _ ( Q Q Q Q ( _ _ ) ) _ ^ n.D.g.g.g.g.s.S.j.h.T.^ _ _ ) ( ( ( ( ( Q ( ( ( Q Q Q W ( _ _ _ _ _ yXyX_ yXyXyXyXyXyXyXyX_ _ _ ",
"_ _ _ _ _ _ _ _ _ _ _ _ _ yX_ _ _ yX_ yX( W Q Q Q ) _ _ ^ n.=XT.J.[.|.'.G.K.J._.[.[._.-XZ.n.~ ( ( ( ( ( ( Q Q ( Q Q Q Q ( _ _ _ _ yXyX_ yX_ yX_ yXyX_ yX_ _ _ _ ",
"_ _ _ _ _ _ _ _ _ _ _ _ _ _ _ _ _ _ _ _ ( Q Q Q Q ~ _ M.T.h.L.{. X*X*X XY.P.Y.OX*X*X X{.L.h.T A.^ ( ( Q ( Q ( Q Q W Q Q ( _ _ yX_ _ yXyXyXyXyXyX_ yX_ yXyX_ _ yX",
"_ _ _ _ _ _ _ _ _ _ _ _ _ _ _ _ _ _ _ _ ( Q Q Q W b z.-X{.`.L.XX*XwXwX*X|.Y.|.*XwXwX*X(.P._.I.-Xz.T ( ( / ( ( Q Q Q Q Q Q _ _ _ _ _ yXyXyXyX_ yXyXyXyXyX_ _ yX_ ",
"iXiXyXtXiXiXiXiXiXaXiXaXaXaXaXyX( _ _ _ Q Q Q R T F.`.[. XOX+X!.+X3XwXqXOX].#XqXqX3XXX!.oX X X[._.K.R A.uXyXtXtXyXiXyXyXyXQ Q ( Q Q ( ( ( ( ( ( ( Q ( ( ( ( ( ( ",
"iXiXiXiXiXaXaXaXaXaXaXaXaXaXaXyX) _ ) _ ( Q ~ b F.E.I.].OX#X#XXXE.XX*XwX%X].0XwX*XXXW.XX%X#XoX].P.L.j.n.uXiXiXiXiXiXiXiXyXQ Q Q Q Q Q ( Q Q Q ( Q Q Q Q ( ( ( _ ",
"iXiXiXiXiXaXaXaXaXaXaXaXaXaXaXyX) ) ) ) ( W b K.L.~.Q.L.!.XX|.'.J.J.OX0X#X{.#X0XOX_.P.}. XXXQ.Q.W.E.L.K.Z.>XiXiXiXiXiXiXyXQ Q Q Q Q ( Q ( ( Q ( ( ( ( ( _ ( ( ( ",
"iXuXiXiXiXaXaXiXaXaXaXaXaXaXaXyX) _ ( ( ( Y h.L.~.!.!.!.~.XXoXOXOX'.{.XX|.'.oXXX{.'.].U.Y.!.~.!.!.!.~.L.a.^ iXiXiXiXiXiXyXQ Q Q Q Q Q ( ( Q Q ( Q ( Q ( _ ( ( ( ",
"iXiXiXiXiXaXaXaXaXaXaXaXaXaXaXyX) ( _ _ / Y h.K.!.{.oX#X#X#XqXeXqXOXJ.Q.I.{.I.Q.Y.].].H.W.oX%X#X|.{.Q.K.s.A.iXiXiXiXiXiXuXQ Q W Q Q Q Q Q ( ( Q Q ( Q Q ( ( ( Q ",
"_ ( _ ( ( _ _ _ ( _ ( ( ( ( ( ( / / / / Q D.G.Q.E.I.XXoX+X+X3XqXwX*X|.!.P.I.I.I.oX X|.I.Q.(.@XoXXXP.E.L.G.-XA.tX( ( ( ( ( _ _ _ _ _ _ _ _ _ _ ( _ ( _ ( _ _ _ _ ",
"( Q Q ( Q Q Q Q ( Q Q Q Q Q Q Q Q Q W W f.J.{.!.E.Q.W.E.E.E.R.+X#X#XOX].P.E.P.].OX*XOX XU.Q.R.R.W.E.R.I.'.J.z./ W Q Q Q Q yXyX_ yXyXyXyXyXyXyX_ _ _ _ ( _ _ yX_ ",
"_ ( Q ( Q ( Q Q ( Q Q Q Q Q Q Q Q Q W ~ h.`.(.Y.{.I.K.s.H.I.{.(.XXH.H.F.F.S.F.F.H.I.+X3X*X{.K.R.Q.{.{.I.{.G.g.( Q Q Q W Q yXyXyXyXyX_ _ yXyXyX( ( ( _ ( _ _ yX_ ",
"( Q ( Q ( ( ( ( ( ( Q Q Q Q Q Q Q Q Q W i.j.~.{.'.'.F.a.J.$X*X@XK.g.s.i.i.i.i.i.i.i.~.3XwX*XY.L.P.'.].I.~.j.f./ Q Q Q Q ( _ yX_ yXyXyXyXyXyX_ _ _ _ _ _ _ _ _ _ ",
"( Q Q ( Q Q Q Q Q Q Q W W Q W Q Q Q W ~ a.G.~.Q.H.S.F.E.}.*XwX+Xs.x.^.s.i.i.i.p.i.s.W.@X0XwX*X{.H.E.Q.~.R.F.f.( Q Q W Q ( yX_ yXyX_ yXyX_ yX_ _ _ ( ( _ _ _ _ _ ",
"_ _ _ _ _ _ yXyXyXyXyX_ _ _ _ _ ) ) ) ~ s.G.!.!.K.i.S.(.%XwXqXY.s.m.4X;X/././.^.x.s.D.P.#XwXqX XI.R.R.K.!.G.f.Q Q W Q Q ( iXiXiXiXiX_ yX_ yXyX_ _ _ _ _ yX_ _ yX",
"yXyXyXyX_ iXiXiXiXiXiXiXiXiXiXyX_ yX_ ) s.J.}.|.H.a.F.|.qXwX|.F.s.x.5XlXbXzXzXlX5Xx.s.s.!.#X*X#X+XR.s.F.'.J.f.~ Q Q Q Q / aXaXaXaXaXyXyXyXyXyXyXyXyXyXyXyX_ _ _ ",
"yXyXyXyXyXyXiXiXiXiXiXiXiXiXiXyX_ _ _ ( p.G.I.J.F.K.P.OXwXqX!.K.^.5XkXnXVXVXVXBXkX5Xx.g.F.'.$X*XoXP.S.K.!.G.j ~ Q Q Q W Q aXaXaXaXaXyX_ yX_ _ yXyX_ yXyX_ yX_ _ ",
"yXyXyXyXyXiXiXiXiXiXiXiXiXyXiXyX_ _ yX( g j.E.a.a.Q.oX*XwX0X/.x.4XlXVXnXbXbXbXmXmXlX4Xj.i.J.|.OX|.{.Q./.R.u.c W Q Q W Q ( iXaXaXaXiXyXyXyXyXyXyXyXyX_ yX_ _ _ _ ",
"yXyXyXyX_ iXiXiXiXiXiXiXiXiXiXyX_ _ ( P a u.S.a.S.Y.oX%X0X#X~.x.4XnXAXZXZXZXZXZXFXzX4Xf.h i.J.{.|.'.Q.E.S.y.a P W Q Q Q ( aXaXaXaXaX_ yX_ yX_ yX_ yX_ yX_ yX_ _ ",
"_ _ _ _ _ yXyXyXyXyXyXyXyXyXyX_ ( ( L e b.f.i.i.F.]. X%X$X{.L.^.kXZXKXJXHXFXFXJXKXZX8Xx.f y.F.U.[.{.Q.D.i.z.b.p K Q Q W Q yXyXuXuXyX_ _ yX_ _ _ yXyX_ yX_ _ _ _ ",
"yX_ _ _ _ _ _ _ _ yX_ _ _ _ _ ( W W H b.lX;Xg i.F.'.OX$X|.G.s./.zXFXJXFXFXFXAXFXFXHXnXN.f f s.'.|.].I.g.y.;XkXb.K Q Q Q Q yX_ _ _ _ yX_ _ yX_ yX_ yXyXyX_ ( _ ( ",
"_ _ _ _ _ _ _ _ _ _ _ _ _ _ _ ( Q W S m.CX8Xd.y.S.'.OX#X|.J.a.z.M.N.hXnXCXCXCXnXhXN.M.L r 1 g L.|.}.!.g.y.3XBXb.J ! Q Q / M.tX_ _ _ _ _ _ _ _ yXyXyXyXyX_ ( _ _ ",
"_ _ _ _ _ _ _ yX_ _ yX_ _ yX_ ( Q Q W b.lXkXm.d.i.'.OX$X|.J.a.f w w b.kXmXmXCXjXb.e w 1 0 r c R.].].!.D.a.2XjXM.K Q Q Q / _ _ _ yX_ _ yX_ _ yXyXyX_ yX_ ( _ _ ( ",
"yX_ _ _ _ _ _ _ _ yX_ yX_ _ yX( Q W Q E b.N.5Xz.y.Q.}.|.(.H.S.h f k.m.lXmXmXmXkXN.d.f f d.pX>XR.J.].!.K.s.u.M._ W Q Q Q Q _ yX_ yXyX_ yXyX_ yXyXyXyXyXyX_ _ _ _ ",
"_ ( ( ( ( _ _ ( _ ( ( ( ( ( ( ( Q Q Q Q P L x.g.u.R.{.{.Q.R.p.a.F..X8XzXmXzXnXzX8X~.h.i.T.gXfXf.h.{.!.L.s.c ( _ ( ( ( ( ( ( ( ( ( Q ( ( ( ( ( ( _ ( ( _ ( ( ( ( ",
"( Q Q Q Q ( _ ( _ ( Q Q Q W W Q Q Q Q Q Q E s f g.~.{.{.!.g.j S.'.@X9XzXnXbXnXzX9X@XJ.S.T.gXdXd.i.~.~.L.g.R _ _ _ _ ( _ _ W Q Q Q Q Q ( ( ( Q ( Q Q ( Q ( ( ( _ ",
"( Q ( ( ( ( ( ( ( ( Q W Q Q Q Q W Q Q Q Q Q E c y.K.P.I.~.g.g W.qXeX9XlXzXzXzXzXlXeX&X|./.gXfX-Xj.K.E.L.f.^ tX_ ) ) _ ( ( Q Q Q Q Q ( ( Q ( ( Q ( Q Q ( ( ( ( ( ",
"_ Q ( Q ( ( ( ( ( ( Q Q Q Q Q Q Q Q Q Q Q Q Q J e i.K.~.~.g.h ).rXMXzXzXbXzXbXzXzXvXrX&X#XfXSX9X`.a.K.K.d.( A._ ( _ _ ( ( Q Q Q Q Q Q ( Q ( Q Q ( ( Q ( ( ( _ ( ",
"( Q Q Q ( ( ( ( _ ( Q Q Q Q Q Q Q Q Q Q Q Q Q J 8 g K.~./.g.h F.*XvXFXZXCXCXZXZXZXvX*X|.).fXLXzX2Xi.K.R.d.^ tX_ _ _ ( _ _ Q Q W Q Q Q Q Q ( Q Q Q Q Q Q ( ( ( ( ",
"_ ( ( _ ( _ ( _ ( _ ( ( ( ( ( Q Q Q Q Q ( ( ( / x j g.E.~.D.d.s.#XMXJXFXAXAXAXFXJXvXoX}.3XgXGXVX;Xg g.K.d.Q _ ( Q ( ( ( ( ( ( ( ( ( _ _ yX_ _ _ _ _ _ _ _ ( ( _ ",
"yX_ _ _ _ _ _ _ _ _ _ _ _ _ yX_ Q ( ( Q _ _ yXyXA.j i.S.Q.g.g ;XNXHXFXFXAXAXFXFXHXZXMXMXCXCXCX9Xz.q y.h.d.W Q Q Q Q Q Q ( yXyXyXyXyXiXiXiXiXiXiXiXiXiXiXyX_ yX_ ",
"_ _ _ _ _ _ _ _ _ _ _ _ _ _ _ ( ( Q ( Q _ yXyXtX~ #.u.S.~.g.h 1XKXKXHXHXFXFXFXJXHXJXKXJXCX6X;Xm.c w g h.u.U Q Q Q Q Q W ( _ yXyXyXyXiXiXiXiXyXiXiXiXiXyXyX_ _ yX",
"_ _ _ _ _ _ _ _ _ _ _ _ _ _ _ _ Q ( Q Q _ yX_ P |  .t.h.Q.D.h ;XBXAXHXAXHXAXFXHXHXZXVXvX2Xc < < r w f y.b ~ / Q Q Q Q Q Q yX_ yX_ yXiXiXiXyXiXiXiXiXiXiX_ _ _ _ ",
"_ _ _ _ _ ( _ _ _ ( _ _ yX_ _ ( Q Q Q Q ) _ P |  .@.O.t.F.D.f a n.6XmXMXMXMXMXMXmX7Xm.k.k.@ o o O O 1 l Q Q Q Q Q Q W W Q _ yX_ yXyXiXiXiXiXiXiXiXiXiXiX_ _ _ _ ",
"iXyXyXyXyXyXyXyXyXyX_ _ _ _ _ _ tXM._ _ _ ! | X.@.2.@...t.g w O < k.4X2X2X2X2X2X4Xc < @ 1 + + O - - + u _ ) _ _ ) ) _ _ _ uXuXiXyXiXiXiXiXiXiXiXiXyXiXiXyXyXyXyX",
"aXaXaXaXaXaXaXaXaXaX_ Q ( Q Q yXsXaXaXaX! | X.@.1.2.@. .O.| 4 + o 0 a a a a a a c < o + > 2 > 2 5 ` 3 r ) yXiXiXaXaXaXaXaXaXaXaXaXaXaXaXaXaXaXiXiXiXiXiXiXiXiXiX",
"aXaXaXaXaXaXaXaXaXaX_ ( Q ( Q uXaXaXiXQ 8 [ o.1.6.5.@. . . .` > - : 1 t q < t w 1 : - 3 ` ` 6 ` o.o.{ 7 y ( uXiXaXaXaXaXaXaXaXaXaXaXaXaXaXaXaXiXiXyXiXiXiXyXiXiX",
"aXaXaXaXaXaXaXaXaXaX( Q ( Q Q yXaXiX! e 5 ' o.,.6.2.@.{  . . .` 3 2 e v x k v c 9 2 3 [ [ ` 6 { @.,.o.[ 7 y P iXaXaXaXaXaXaXaXaXaXaXaXaXaXiXaXiXiXiXiXiXiXiXiXiX",
"sXaXaXaXaXaXaXaXaXaX_ ( ( Q ( uXaXaXL ' ' [  .+.@.@.X.X.{ ..@.@.+.[ -.n.I k Z.n.8 5 +.,.+.2 >  .,.5.2.o.[ 2 @ iXaXaXaXaXaXaXaXaXaXaXaXaXaXaXaXiXiXiXyXiXiXiXiXiX",
"uXyXuXuXyXuXyXyXuXyX( Q ( Q Q _ aXyXL ' X.X. .{  . .[ [  .@.2.6.,.o.$.-XY k Z.n.e } <.q.*.: ; } >.4.5.,.X.5 < uXiXaXiXaXiXiXiXiXiXiXiXiXiXiXiXyXyXiXiXiX_ _ _ _ ",
"( Q Q Q Q Q Q / Q Q Q Q Q Q Q ) ( P 9 ' ..X.{  .X. .5 > +.,.2.6.1.o.%.,XZ.k Z.,Xw.*.7.7.*.: - { >.2.6.,.X.6 , P tXiXiXiXiX_ _ _ _ _ _ _ _ _ _ yX_ _ _ _ Q Q Q W ",
"( ( ( Q ( ( ( ( Q ( Q Q Q Q Q ( ! 9 5 [  .X. . .X.[ ; O &.8.2.4.=.X.:.6XZ.k >X1Xw.>.<.8.*., ; ' @.1.4.=.@.{ ` ; Q iXiXiXiX_ _ _ _ _ _ _ _ _ _ yXyXyXyXyXQ Q Q Q ",
"( ( Q ( Q Q ( Q ( ( Q Q Q Q Q ( P 7 { .. . . . .[ 6 + - &.6.1.4.,. .l.8X:Xl <X8X:.o.<.6.=.7 > 3 +.5.5.2.2.@.[ 1 ! uXyXiXiX_ _ _ _ _ _ _ ( _ _ _ yXyX_ yXQ Q Q Q ",
"( ( Q ( Q Q Q ( Q ( Q Q Q Q Q ) P '  .o. . . . .[ 5 + - &.8.5.4.=.X.l.8X:Xl <XjX%. .,.6.=.] 2 3 } @.8.1.,.o. ., ( aXiXaXyX_ _ yX_ _ _ _ _ _ _ _ yXyXyXyXQ Q Q Q ",
"_ ( ( ( ( _ ( ( ) ) Q Q Q Q Q _ W ` {  .{  . .X.[ 3 + - &.8.2.4.=.X.l.jXZ.l <X8X:.X.,.6.=.] 3 3 ` ..=.=... .{ 4 W _ _ _ _ _ ( _ _ _ _ ( _ ( _ _ ( _ _ ( ( ( Q ( ",
"_ _ _ _ _ _ yX_ yX_ ) Q / Q ( ) n.s ] 6 ` [ X.X.' ; o - &.3.1.4.,.X.:.jX:Xz <X8X%.X.<.6.,.X.6 ; > 6 ] 7 6 ' { 7 J ! Q Q ( Q ( Q ( Q ( Q Q Q Q Q W Q Q Q _ _ _ _ ",
"_ _ _ _ _ yX_ _ _ _ ( Q ( Q Q U T Y s 8 e -.%.$.7 +   ; &.3.2.4.=.X.:.8X:Xl <X1X%.X.=.6.,...2 O ; 6 6 6 7 [  .} L Q ( ( Q ( Q ( Q ( Q ( Q ( Q Q Q Q Q Q ( _ _ _ ",
"_ _ _ _ _ _ _ _ yX_ ( Q ( Q Q N q v Y =X1X1X1Xn.c O o - &.8.2.5.=.X.%.8XZ.l >X,X%.X.1.7.=.4 o o 2 } @.=.=.@.{ ' w ( ( ( Q ( Q ( Q ( ( ( ( Q ( Q Q Q Q W _ _ _ _ ",
"_ _ _ _ _ _ _ _ yX_ ( Q Q ( Q r ; w c n.4X4Xm.b = * X - +.8.2.4.,...%.1XZ.l :X,X$.X.1.7.=.1 . % k.l.9.7.8.>.{ ` y ( Q ( Q ( Q Q Q Q Q Q ( Q Q W Q Q Q Q _ _ _ _ ",
"yXyX_ _ _ _ _ _ _ _ _ ( _ _ Q p 5 3 4 ] ....| ; * C.B - +.5.1.5.,.X.:.,XZ.d Z.,X$.X.,.7.*.y k T 1X,Xc.2.,.@. .] L ( ) ( ( _ _ ( ( _ _ ( _ ( ( ( ( ( Q ( _ _ _ _ ",
"iXiXiXiXuX( Q ( Q Q iXaXaXaXiXp 5 5 2 > > > ; O n V % > +.8.0.1.4.l.n.T l k R n.$.X.@.| c I b l.:.m.N.N.@.o.{ 4 P yX_ _ _ iXiXiXiXiXiXiXiXiXiXyX_ _ _ _ _ yX_ yX",
"iXiXiXuXiX( Q ( ( Q iXaXaXaXiXW s 8 -.p r < % M B * 1 ` @.6.r.3.9.4X<Xl # u I n.;.o.{ 9 d v k.' [ $.;X,X-.X.{ 1 W _ _ tXyXiXiXiXyXiXiXiXyXiXiX_ _ _ _ _ yXyXyXyX",
"iXiXuXiXiX( Q ( Q Q iXaXaXaXaXiXuXuXxXxXfXdXaX_ V B 9  .@.9.e.7.9.,X<Xx # # x -X,Xl...2 @ O O - 3  .$.l.k.-. .4 W _ _ _ _ iXuXiXiXiXiXiXiXiXiXyXyX_ _ _ _ yX_ yX",
"iXiXiXiXiX( ( ( ( Q uXaXaXaXaXaXaXaXGXPXPXDXgXsX! t 7 @.,.9.e.3.9.6X<Xl l ! I Z.1X,X#.- @ y S J b.;.} e R k.6 , Q _ _ _ _ iXuXiXiXiXiXiXiXiXiX_ _ _ yX_ yXyXyXyX",
"iXiXuXuXyX( / Q ( Q iXaXiXaXaXaXiXtXSXGXGXdXtXsXM.8 { 1.1.5.e.3.9.7X1Xl ^ fX! x 1X>Xi   < M.DXGXGXxXp : T c : P _ _ _ _ _ iXuXuXiXyXiXiXyXiXyX_ _ _ _ yX_ yX_ yX",
"yXyXyXyX_ ( Q Q ( Q yXiXiXiXiXyX_ W uXSXGXgXiX/ L 3 +.5.0.e.r.>.2.kXcXl D uXD l -XA.=   O ( LXPXPXDXy O R c @ Q _ _ _ ( _ _ _ _ _ yXyXyX_ yXyXyX_ yX_ yXyXyXyXyX",
"uXyX_ _ yX( ( ( Q ( yXiXiXiXiXyX_ ( ( sXgXfXuXC @ 3 +.5.0.r.r.3.w.6X1Xx % m u l U I * @ < W dXDXPXGXL O c s @ _ _ _ _ _ _ _ _ _ _ yX_ yXyXyX_ yXyXyXyXyX_ yX_ _ ",
"yX_ yXyXyX( Q ( ( ( yXiXiXiXiXyXyX_ ( ! ( M.K $ ; ' @.1.e.r.r.V.4X=Xv x m n * i l i & Z M.dXgXdXDXSXy o @ r E _ _ ) _ _ _ _ yX_ _ _ _ yX_ yXyXyXyXyXyX_ yXyXyXyX",
"uXyXyX_ yX( Q Q ( Q yXiXiXiXiXyX_ yX_ ( ) _ ( S > { @.2.e.0.r.7XcXI % Z F M m m u u z J ( sXaX_ sXfX! < O P _ _ _ _ _ _ _ _ yX_ yX_ yXyXyXyX_ yXyX_ yXyX_ yXyXyX",
"yXyX_ yX_ ( ( Q ( Q _ yXyXyXuX_ _ yX_ yX_ _ _ K >  .@.1.e.0.0.V.1Xv % Z F F M n u x U J m B K _ sXdXsX_ P ( _ _ ( _ _ ( _ _ _ _ _ _ _ yX_ yX_ yXyXyXyX_ yXyX_ yX",
"yX_ _ _ _ ( _ _ _ _ ( Q Q Q Q Q Q ( ( Q ( Q W S 3 +.,.0.e.q.q.V.cXY u A J F M m * k b U I * m / tXtXtX_ _ _ _ _ Q Q Q Q Q ( Q Q ( Q ( Q ( Q ( yXyX_ yXyX_ yX_ _ ",
"yX_ _ _ _ _ ( _ _ ( Q Q Q Q Q Q ( Q Q ( / W r 4 } =.0.e.r.0.e.7X8XY u H K F M m * % l -X<XS & F P F A _ _ _ _ _ Q Q Q Q Q ( ( Q ( ( ( ( Q ( Q yXyX_ yX_ _ _ _ _ ",
"yX_ _ yX_ _ _ _ ( _ Q Q Q Q Q Q ( Q ( Q / K + 2 } 4.e.r.q.B.7X,XR v F K K F M n m % u =X-Xs , 9 9 9 9 y ! ( _ _ Q Q Q Q Q Q ( ( Q ( Q Q ( Q Q yXyXyXyXyXyX_ _ yX",
"yX_ _ _ _ _ ( _ ( _ Q Q W Q W Q ( Q Q ( / E + > } 4.0.r.0.V.bXZ.% z K K K A M m * * k x c e 7 5 5 3 5 6 e ! yX_ W Q Q Q Q Q ( Q Q ( / Q ( Q ( _ yXyXyXyX_ _ _ _ ",
"yX_ yX_ yX_ ( _ _ _ ( Q Q ( ( ( ( ( ( ( ( E + > } =.6.r.q.V.cXZ.% Z E K H F i = * = = u l b k.7 5 5 5 6 7 ! _ _ Q Q Q Q Q ( ( ( ( ( ( ( ( ( ( _ _ yX_ yX_ _ _ _ ",
"yXyX_ _ _ yXyXyX_ yX_ _ _ yX_ _ _ _ _ _ _ W + 2 } =.0.v.q.w.,XY u Z K E J F B * = m * % k Z.b.8 3 5 3 5 7 P Q ( Q Q Q Q ( iXiXuXiXuX( ( _ _ _ ( ( ( ( ( Q ( Q ( ",
"uXyXyXyXyXyXyX_ yXyXyX_ _ _ _ _ _ yX_ _ _ Q + > } 4.0.v.r.B.T v k D K K K F C m * * * % l T b 8 3 5 5 6 p W ( Q Q Q Q W Q iXiXiXiXuX_ _ ( ( _ ( ( _ ( ( ( Q ( Q ",
"yX_ yX_ yXyXyXyXyXyX_ yX_ _ _ _ _ yXyX_ _ W r 2 +.5.7.c.V.m.x d Z H K H H F M m * = * % l T k.8 3 6 7 p Q Q ( Q Q W Q Q ( iXiXiXiXyX_ ( _ _ ( ( ( ( ( ( ( ( ( ( ",
"uXyXyXyXyX_ yX_ _ yX_ _ _ yX_ _ _ _ _ _ _ ( J 9 ` @.,.9.6X<Xl % F K H F D F M n * = = % l Y c 7 6 7 p W Q ( ( Q Q Q Q Q ( yXiXiXiXyX_ _ ( _ _ ( _ ( ( _ ( Q Q Q ",
"yXyX_ yX_ _ _ yX_ yX_ _ _ _ _ _ _ _ _ _ _ _ ( P 9 7 ..O.6X<Xk k J E H H H F M m m = * * d l q 7 ` p W ( ( ( ( ( Q Q Q Q ( yXyXiXiXuX_ ( _ _ _ ( ( ( _ ( ( ( ( / ",
"( ( ( ( ( ( ( ( ( ( ( ( _ ( ( ( Q Q Q Q _ _ _ ( P 1 3 8 ;X>Xk z K E J A A A M M * = * * * * 0 w L ) iXyXuXuXuXyXQ ( Q ( ( aXaXaXaXaXaXaXiXiXaXiXiXuXuXiXiXiXaXiX",
"( ( Q ( Q ( Q Q ( ( ( ( ( ( _ ( Q Q Q Q ( _ _ _ _ S O : b T k z K K H A C Z M n = * = = i m $ & uXiXiXiXiXiXiXyX( ( ( Q ( aXaXaXaXaXaXiXaXaXaXiXuXuXiXyXaXaXaXaX",
"( ( ( Q ( Q ( ( Q ( ( ( ( ( ( Q Q W Q Q _ yX_ _ yXJ o O < w u k C C C C A A n $ * Z H J F C $ F yXuXiXuXuXiXiXtX( Q ( Q ( aXaXaXaXaXaXaXaXiXaXiXiXiXiXiXiXaXaXaX",
"( ( ( Q ( ( ( ( ( Q ( ( _ ( ( Q Q Q Q Q ( yX_ _ M.K o O O @ u z = * m C Z = $ X $ i F K F i H _ tXiXuXiXuXiXiXuX( Q ( Q _ aXaXaXaXaXaXaXaXaXaXiXiXiXiXiXaXaXaXiX",
"( ( Q ( Q ( Q / ( ( ( _ ( ( ( Q Q W Q Q ( _ _ tXtXK $ X @ % S H A A J H C $ X $ & * i i i F tXyXuXiXuXiXiXiXiXyXQ ( ( Q ( aXaXaXaXaXaXaXaXaXaXiXiXyXiXiXaXaXaXaX",
"aXiXiXaXiXuXyXyXyXyX_ _ _ _ _ _ ( ( ( _ ( Q Q ( Q Q E X m K E Q Q Q / ( J $ X C ( _ _ _ _ ( tXiXuXiXiX_ tXyXyXyX_ ( _ ( ( _ ( ( ( ( yXyXyXyXyXiXiXiXiXiXiXiXiXiX",
"aXaXaXaXaXiXiXiXiXiXyX_ yX_ _ _ _ _ ( _ Q Q Q Q Q ( Q $ S E K W _ >X_ yX( J & G _ iXiXiXuXiXyXiXiXuXiX_ yXyXyX_ ( _ ( _ _ Q ( Q Q ( _ _ _ _ _ uXyXiXiXiXiXyXiXiX",
"aXaXaXaXaXiXiXiXiXiX_ _ _ _ yX_ _ _ _ _ ( Q Q Q Q ( _ ( Q % & Z P P J A i P / ( _ iXiXuXiXuXiXiXiXiXtXyXyXyXyXyX_ _ ( _ ( ( Q ( ( ( _ _ _ _ _ iXiXiXiXiXiXiXyXiX",
"aXaXaXaXaXiXiXuXiXiXyX_ _ _ _ _ ( ( _ ( Q Q W Q Q ( _ ) W X X $ m i & $   F Q ( _ iXuXiXiXuXiXiXuXiXiX_ _ yX_ _ ( _ _ ( _ Q ( Q Q ( _ _ _ _ yXiXiXiXiXyXiXiXiXiX"
};
