/* XPM */
static char *result[] = {
/* columns rows colors chars-per-pixel */
"80 80 255 2 ",
"   c #1E0B0B",
".  c #1A1818",
"X  c #2D0000",
"o  c #280707",
"O  c #330101",
"+  c #3A0101",
"@  c #340A09",
"#  c #370315",
"$  c #261919",
"%  c #391615",
"&  c #271922",
"*  c #292728",
"=  c #362828",
"-  c #36332D",
";  c #2D3232",
":  c #333434",
">  c #383736",
",  c #3A3B3B",
"<  c #450100",
"1  c #4D0302",
"2  c #540000",
"3  c #5B0000",
"4  c #4F140C",
"5  c #451817",
"6  c #630101",
"7  c #6B0101",
"8  c #6D0A05",
"9  c #730001",
"0  c #7C0000",
"q  c #780805",
"w  c #701213",
"e  c #54270F",
"r  c #462119",
"t  c #732E0F",
"y  c #762919",
"u  c #481D22",
"i  c #4F2E2E",
"p  c #463A27",
"a  c #423D3A",
"s  c #6F332C",
"d  c #694A0A",
"f  c #755703",
"g  c #7A5E0B",
"h  c #7A5913",
"j  c #7E630B",
"k  c #6B651B",
"l  c #7C6514",
"z  c #4E452E",
"x  c #5E5A2D",
"c  c #46453A",
"v  c #5A5738",
"b  c #6F4D32",
"n  c #7C6525",
"m  c #746D35",
"M  c #3D3E43",
"N  c #3C4242",
"B  c #464645",
"V  c #4D4E4E",
"C  c #5A4949",
"Z  c #53554E",
"A  c #575555",
"S  c #5B5C5C",
"D  c #6D4D4A",
"F  c #645747",
"G  c #655758",
"H  c #5D6C48",
"J  c #6C6846",
"K  c #746C46",
"L  c #6E704D",
"P  c #76764C",
"I  c #6A6C55",
"U  c #6B7558",
"Y  c #777A58",
"T  c #5A5B61",
"R  c #5D6565",
"E  c #636464",
"W  c #696964",
"Q  c #666B6A",
"!  c #6D6D6D",
"~  c #706864",
"^  c #6A7365",
"/  c #6B736C",
"(  c #737966",
")  c #6E7271",
"_  c #6E7974",
"`  c #727272",
"'  c #737C73",
"]  c #767A7A",
"[  c #7C7C7C",
"{  c #850001",
"}  c #8B0002",
"|  c #8A0807",
" . c #930305",
".. c #9C0102",
"X. c #9A1806",
"o. c #940515",
"O. c #921612",
"+. c #A50002",
"@. c #AB0103",
"#. c #A8040A",
"$. c #B30309",
"%. c #AA130D",
"&. c #AA041B",
"*. c #BA0318",
"=. c #8B2318",
"-. c #AD2517",
";. c #A90A27",
":. c #B50626",
">. c #BD0522",
",. c #8B3126",
"<. c #A63328",
"1. c #B1383B",
"2. c #C6031A",
"3. c #C60425",
"4. c #C4062B",
"5. c #C4082D",
"6. c #CB0A2E",
"7. c #D30D2D",
"8. c #C80731",
"9. c #C60931",
"0. c #CB0A32",
"q. c #D30A35",
"w. c #D41C37",
"e. c #C42039",
"r. c #DC283E",
"t. c #874406",
"y. c #865E05",
"u. c #AA4100",
"i. c #886605",
"p. c #856A03",
"a. c #8A6D04",
"s. c #82650A",
"d. c #956901",
"f. c #8B7304",
"g. c #937401",
"h. c #957A02",
"j. c #997D02",
"k. c #9B7809",
"l. c #8A6B18",
"z. c #987916",
"x. c #977018",
"c. c #A37902",
"v. c #A47C14",
"b. c #875438",
"n. c #915433",
"m. c #AC4D35",
"M. c #866C26",
"N. c #8A7533",
"B. c #9B7B34",
"V. c #A7712B",
"C. c #DB2041",
"Z. c #E12A43",
"A. c #90714E",
"S. c #B1714C",
"D. c #8E6F6A",
"F. c #7E8759",
"G. c #488B6C",
"H. c #77826D",
"J. c #7A8378",
"K. c #8D8E0A",
"L. c #9D8202",
"P. c #9D810C",
"I. c #9D8116",
"U. c #A78507",
"Y. c #AF8E0F",
"T. c #BA9907",
"R. c #A78817",
"E. c #BC9C15",
"W. c #B4951A",
"Q. c #BB9C1C",
"!. c #BDA104",
"~. c #BEA018",
"^. c #A68822",
"/. c #AB8D23",
"(. c #AC8E2A",
"). c #AE9024",
"_. c #AD922B",
"`. c #B29423",
"'. c #B99B26",
"]. c #B2932B",
"[. c #AA9131",
"{. c #B09033",
"}. c #C79B10",
"|. c #C4A40C",
" X c #CAA809",
".X c #C3A413",
"XX c #C7A918",
"oX c #D2AE11",
"OX c #D3B41B",
"+X c #E3BA18",
"@X c #C4942E",
"#X c #C7A928",
"$X c #D0AE26",
"%X c #D7B828",
"&X c #DBBD2D",
"*X c #C8AA35",
"=X c #D2B532",
"-X c #DBBD32",
";X c #DDC12C",
":X c #DDC133",
">X c #E3CA2E",
",X c #E2C439",
"<X c #8C884A",
"1X c #878257",
"2X c #B7884D",
"3X c #B78558",
"4X c #BAAC53",
"5X c #8F8F66",
"6X c #A6996A",
"7X c #B69371",
"8X c #90A36F",
"9X c #B3AD75",
"0X c #B2AB78",
"qX c #C7954F",
"wX c #D4B14F",
"eX c #E1A95A",
"rX c #CF946D",
"tX c #D7A871",
"yX c #E8B36B",
"uX c #EACB48",
"iX c #EDCF4F",
"pX c #F3D35A",
"aX c #F9D867",
"sX c #F1CD78",
"dX c #F6EA6C",
"fX c #7B8484",
"gX c #818181",
"hX c #868986",
"jX c #898989",
"kX c #8F9190",
"lX c #919191",
"zX c #9A9899",
"xX c #A29B9B",
"cX c #AFADB0",
"vX c #D6AB8F",
"bX c #E6B78B",
"nX c #F2BD89",
"mX c #E8BC95",
"MX c #EEBDA4",
"NX c #ECC599",
"BX c #F9CB97",
"VX c #F5CAA7",
"CX c #ECDAAC",
"ZX c #F8D0AC",
"AX c #FBD7B5",
"SX c #FEDBBD",
"DX c #B0BDC9",
"FX c #BAC6CB",
"GX c #CCCACA",
"HX c #E2D1C3",
"JX c #FFDDC2",
"KX c #FFE6C6",
"LX c #FFE3CB",
"PX c #FFE6D4",
"IX c #F4FDFD",
/* pixels */
"gX[ 5XfX[ [ [ [ [ [ gX[ gXgXgXgXgX[ gXgX[ ! ! ` ! [ [ [ fX[ [ fXD.fXJ.[ ] ] ] ] [ [ J.gX[ [ ] ] ] ] ] ` ` ` ` ` ` ` ` ! ` fXfXgXgXgXgXgXgXgXgXgXgXgXgXgXgXgXgXgX",
"[ [ [ ] [ [ [ [ [ [ [ [ [ [ [ [ gX[ [ [ ` ! ! ! ! ` [ [ [ [ [ ] ] J.( ` / / ` ( ' H.H.H.H.' ` ` ^ ^ ! ` ` ! ` ` ! Q ! ! ` D.[ [ [ gXgXgXgXgX[ gXgXgXgXgX[ [ [ [ ",
"[ [ [ ] [ [ [ ] [ [ [ [ [ [ [ [ [ [ [ [ ` ! ! Q ! ` [ [ [ [ fXD.] N.j.j.g.v.).].`..X X X'.`.].R.j.c.N.) / ` ) ! ! ! ! W ` [ [ [ [ [ gXgXgXgXgXgXgX[ gXgXgX[ [ [ ",
"[ [ [ [ [ [ [ [ [ [ [ [ [ gX[ [ [ gX[ gX` ! ! ! ! ` [ [ ] ] Y P Y I.Y.T.|.oX$X$X%X%X+XOX%X%X%X+XXX}.R.Y P U ) ) W ! ! Q ) [ [ gX[ [ gX[ [ gX[ gXgXgXgXgX[ [ gX[ ",
"gX[ [ [ ] [ [ [ [ [ [ [ [ [ [ [ [ [ [ [ ` W W ! ! ` [ [ [ ( c.c.U.).Q.OX;X,X&X;X;X:X:X;X%X=X=X=X;XOXOX*X}.x.U ! ! ! ! ! ) [ [ [ [ gXgXgXgX[ gXgXgX[ gXgX[ [ gX[ ",
"jXgXjXgXjXjXlXjXjXlXjXlXlXlXlXgX[ ] ] ] ` ! ! ! ! ` ` ` P z./.Q.|.!.$X-X:X-X&X&X:X:X%X~.W._.].Q.oXOXuXpXwXR.z.Y gXgXgXgXgX! ) ` ! ! ` ` ` ` ` ` ` ` ` ` ` ` ` ` ",
"jXjXjXjXjXlXlXlXlXlXlXlXlXlXlXgX] ] ] ] ! ! ! ! ! ! ! U N.Y.}.XX XOX%X-X-X:XuXpXiX%XoXXX#X'.W.W.W.Y.#X,X&XE.U.B.gXjXjXjXgX! ! W ~ ! ! ` ! ! ` ! ` ! ! ! ` ` ` [ ",
"jXjXjXjXjXjXlXlXlXlXlXlXlXlXlXgXD.` ] ] ` ! ! ! ! ! ~ c.Y.'.|. XoX&X-X-X-X:XiXaXiXXXXX:X:X;XOX~.`.P.L.T. X|.'.@X{.5XjXjXgX! ! ! ! ! ` ! ` ` ! ` ! ` ` ` [ ` ` ` ",
"jXjXjXjXjXlXlXlXlXlXlXlXlXlXlXgX` D.] [ ` ! ! ! ! / ^ c.|..X|.OX&X-X-X&X;X=X*X*X$XOX-XiXuX:X;X:X=X.XY.L.R.'.~.|.}.[.H.kX5X) Q Q ! ! ! ` ! ` ` ! ` ` ` ` ` ` ` ` ",
"jXjXjXjXjXlXlXlXlXlXlXlXlXlXlXgX] ] ] ] ` Q Q ! ! / m U.|. XOX*X=X-X-X:X&X#X^.Y. X&XpXaXuX$X$XXX$XOXT.h.z._.~.XXXXoX[.hXfX) ! ! ! ~ ` ! ! ! ! ` ! ! ! ` ` ` ` ` ",
"[ ` D.] ` ] ] ] ] [ ` ` ` ` ] ` ! ! ! ` ! Q ! ! W N.v.W.T.OX-X'.].=X:X:XOXE./.'.-XiXaXaX-XT.L.g.L.)./.h.P.(.(.'.-X+XE.G.` [ ] [ [ [ [ [ [ [ [ ` ` [ ` ` [ [ [ [ ",
"` ` ! ! ! ! ! ! ! ! ! ! ! ! ~ ! ! ! ! W ! ! ! ! Q h.Y.].|.XX#X'.~.XXOXOX.XW.Q.=XiXaXaXaX-XY.j f f j f.f.h.P.(.'.$X+X#X<X) gX[ gXgXgXgXgXgXgXgX[ ` [ [ [ [ [ [ gX",
"` ` ! ` ` ! ` ` ` ! ! ! ! ! ! ! ! ! ! ! Q ~ ! ! Q f.R.]..XE.).E. X|.|.~./.Y.|.:XaXaXaXpX*XI.x.l.M.M.l.k.v.k.R.W.}.%X;X@X( gX[ gXgX[ gXgX[ gX[ [ [ [ ` [ [ gX[ [ ",
"` ` ! ` ! ` ` ! ! ! ! ! ! ! ! ! ! ! W ! ! ! ! ! Q f.U.].].W.~.|. X X~._.I.L.!.>XaXaXpX:XW.z.{.tXtXeX@X2XS.2Xv.P.W.=X&X}.Y gX[ gXgXgXgX[ gXgXgX` [ ` [ ` [ [ [ [ ",
"` ! ! ` ! ! ! ! ` ! ! ! ! ! E ! ! ! ! ! ! ! ! Q U z.Y._.(.`. X|.~.Q.~.W.h.L.~.,XaXaXiX%XU.I.yXAXZXZXnXvXrXqXv.f.v.*X;XoX( gXgX[ gX[ [ gXgXgXgX[ ` [ ` [ [ [ [ [ ",
"[ [ ] ] [ gXgXgXgX[ [ [ [ [ [ [ ` ] ` ] ` ! ! I a./.]._.(.Q..XQ.(.(.'.!.L.P.$XiXaXsXiX XL.I.NXPXSXJXAXmXnXeXR.a.g.Q.;XoXF.jXjXjXjXjXgXgXgX[ gX[ [ [ [ [ [ [ gX[ ",
"jXgXgXgXgXjXjXjXjXjXjXjXjXjXjXgX[ [ gX[ ] ` ! G d.].].].Q.E.'.Q.~.~.~.W.L.P.%XuXaXdXuX'.f.I.NXPXKXJXJXAXAXNX].p.f.T.OXoX).5XkXlXlXlX[ [ gXgX[ gXgXgXgXgX[ [ [ [ ",
"gX[ gX[ gXjXjXjXjXjXjXjXjXjXjXgX[ [ [ [ ` ` ` L f.R.].`.|..X_.W.!.!.Q._.z.U.%XiXaXpXwX).P.{.CXLXSXSXSXSXPXAX{.f.f.Y..X X XW.hXlXlXlXgXgX[ gXgXgXgXgXgX[ gX[ [ gX",
"gXgX[ gX[ jXgXjXjXjXjXjXjXjXjXgX[ [ [ [ ` / m h l.^.].`..X.X].I.L.L.R._.^.`.=XiXpXiXXXL.`.yXZXKXSXSXSXSXPXAX{.p.f.I.'..X|.`.hXkXlXjXgXgXgX[ gXgXgX[ gX[ [ [ [ [ ",
"jXgXgXgXgXjXjXjXjXjXjXjXjXjXjX[ gX[ gXgX` ~ y.y.z._.].).Q.Q./.v.x.B.I.I.^.'.OXuXaXuXW.f n.rXZXPXKXKXJXJXPXAX[.j h.R.`..X X_.kXlXlXlXgXgXgXgXgX[ gXgXgXgXgX[ [ [ ",
"[ [ [ [ [ gXgXgXgXgXgXgXgXgXgX[ ` ` ` ` ` / s.g.P.R.]._.).).{.3XrXrXB.k.I.`.|.:XpX>X).e 5 b.rXZXZXSXSXAXKXZXB.f f.R.`..X}./.J.jXjXgX[ [ [ [ [ [ gX[ gXgX[ [ [ [ ",
"[ [ [ [ [ [ [ [ [ [ [ [ [ [ [ ` W ! ! Q ` ` s.d.L.k.R._.P.v.2XvXVXMXqXg.I.`.|.%X,X>Xx.4 # i s D A.vXZXVXAXmXB.f g.j.I.W.W.c.' [ [ [ [ [ gXgX[ gXgXgXgX[ [ ` [ ` ",
"gX[ [ [ [ [ [ [ gX[ [ gX[ [ [ ` ! ! ! Q ! H s.g.j.g.R./.j.z.qXMXKXZXqXh.P.'.~.OX;XoX/.D s e e e s rXMXmXNXbXB.f f.g.h.(.R.h.' [ gX[ [ gX[ [ [ gXgXgX[ gX[ ` [ [ ",
"[ [ [ [ [ [ [ [ [ [ [ [ [ [ gX` W ! ! ! K y.g g.j.h.R./.j.z.rXVXSXnX'.h.I.].).#X%XoX4XcX5Xp.p.x.qXvXNXmXVXbXB.f j p.k./.Y.k.' [ [ [ [ [ [ [ [ gX[ gXgXgX` [ [ ` ",
"gX[ [ [ [ [ [ [ [ [ gX[ [ [ gX` ! ! Q L n i.a.f.s.a.z.R.L.y.b.MXKXyX].d.h.R.^.*X;X XwXFX8XP.U..XeXbXNXNXNXbXB.f g p.j./.Y.k.' gX[ [ gXgX[ gX[ gXgXgXgXgX[ ] [ ] ",
"] ` ` ` ` [ [ ` [ ` ` ` ` ! ` ! ! ! L c.s.a.j.i.g g p.h.L.d 5 D.AXBX@Xk.g.k.^.*X+XoX4XFX6XU.XXuXyXbXmXmXVXbXB.f g a.L.).Y.k./ ) ` ! ` ` ` ` [ ` ` [ ` ` ` ] ` ` ",
"` ` ` ! ! ` ` ` ` ` ! ! ! ! Q ! ! ! U d.s.a.j.s.h g g s.j.f u b.nXAXBXeXU.f.^.*X%X X4XDX9X;XdXdXbXmXbXmXVXbXB.f g a.j.`.R.s.Q Q ! ! ! ` ` ! ` ! ` ! ! ` ` ` ` ] ",
"` ! ` ` ` ] ` ` ] ` ! ! ! Q ! ! ! / m j.s.s.a.p.j z.l.a.j.i.s h 2XmXZXyXR.h.^.*X;X X6XDX9X>X>XdXVXVXVXVXZXbXB.f f f.j.R.k.j Q ! ! ! ` ` ` ` ` ! ! ` ` ` ` ` ` ` ",
"` ` ` ! ` ` ` [ ` ` ! ! ! ! ! ! Q m g.g.s.g j f.P._.R.g.g.j.h.p.M.S.rXqXv.h./.*X;XE.6XDX9X|. XwXJXJXJXJXAXbXV.f g a.j.j.d.s.! ! ! ! ! ! ! ` ` ! ` ` ` ! ` ` D.] ",
"` ! ` ` ` ` ` ` D.` ! ! Q ! ! ! ! y.i.s.s.s.f.R./.Y.k.a.y.g.L.h.a.l.b.b h z.(.#XXXW.4XHXCXyXpXNXJXJXJXLXZXrXx.f g f.j.j.d.i.Q ! ! ! ! ! ! ! ! ! ! ! ! ! ` ` ` ` ",
"[ ] ` ` ` ` [ ` ] ] ` ` ` ` ] ` W j i.g g s.h.R.R.g.l k k l g.j.k.a.d % d l.R.E.!.W.qXAXPXPXPXLXKXSXKXSXvXS.n k j g.j.g.M.L ) ` ` [ [ [ [ [ [ [ [ [ [ [ [ ` [ [ ",
"[ [ [ [ [ [ [ [ [ [ [ gX[ [ [ ~ M.g.p.g g j s.l.a.l.( fXgX[ M.y.a.c.f r z f.h.T.!.W.qXNXJXLXLXKXJXZXBXBXV.A ! / l d.g.a.I gXgXgXgXgXjXjXjXjXjXjXjXjXjXjXgX[ [ [ ",
"fXD.[ [ ] [ [ [ [ [ [ [ [ [ D.K d.j.s.g x.z.i.y.m ! gXgXfXgX/ W ^ m e w t t.i.T. XY.[.tXBXBXBXZXnXrXS.m.G ! ` ) l d.i.y.I gX[ gXgXgXjXgXjXjXjXjXjXjXjXjX[ [ [ [ ",
"gX] [ [ [ ] [ [ ] [ [ [ fX[ fXL d.j.s.l.(.Y.g.M.~ gX[ gX5XgX] ! ` C 1 9 +.X.g P.T.U.z.3XrXyXeXrX3Xb % C Q ` / ! m y.y.n ^ gXgXgXgXgXjXjXjXjXjXjXgXjXgXjXgX[ [ gX",
"[ ] [ [ ] ] [ [ [ ] [ gX[ [ [ I d.g.R.^.R.g.l.( gXgXgX[ fXgX] ! A s 6 0 +.-.y.K.U.u.X.=.n.<XI T A ] ` ! ) ) ! ! Q J n I ! gX[ gXgXgXjXgXgXjXgXjXgXjXjXjX[ [ [ [ ",
"jXgXgXgXgXgXgXfXgXgX[ ] ] ] ] N.d.a.R.R.g.M.( gXgXhXjXgXjXgX[ T < 3 3 3 q | t p.f.X.{ 9 b.U : & ! ` ] ] D.] ] ] ] ` I ] ] jXgXhXgXjXjXjXlXjXjXjXjXjXjXjXgXgXgXgX",
"lXlXlXlXlXlXlXlXlXlX[ ! ) ! l g.a.s.l i.l.( lXjXjXlXlXlXlXlXgXE + + + O O < 8 t.s.t 0 ..V.Y r o # ) ] jXjXjXjXjXlXlXlXlXlXlXlXlXlXlXlXlXlXlXlXjXjXjXjXjXjXjXjXjX",
"lXlXlXlXlXkXlXlXlXlX] ` ` Q i.v.P.p.f P ] hXjXjXjXlXlXlXlXlXgXE + 3 7 7 6 2 1 4 t q  .+.-.n.b r O A ` jXjXjXjXjXlXlXlXlXlXlXlXlXlXlXlXlXlXlXlXjXjXjXjXjXgXjXjXjX",
"lXlXlXlXlXlXlXlXlXlX] ! ` H i./.`.L.d.A.jXjXhXjXjXjXlXlXlXlX[ G 2 ..$.$.$. .< 1 0 ..@.+.#.O.A.b < O G jXjXjXjXjXlXlXlXlXlXlXlXlXlXlXlXlXlXlXlXjXgXjXjXgXjXjXjXjX",
"zXlXlXlXzXlXlXlXlXlXD.! ) J i./.].R.L.1XjXjXjXjXjXlXlXlXlXzXW C 9 &.7.w.7.&.{ 7 0 &.*.+.{ =.1XA.| 2 C G fXjXhXjXlXlXlXlXlXlXlXlXlXlXlXlXlXlXlXjXjXjXjXjXjXjXjXjX",
"jXgXgXgXgXgXgXjXjXgX` ! ` J i.v.].].v.A.5XfXhXgXgXgXgXgXgXgXC 7  .>.C.Z.w.0.2.} 9 ;.6.*.{ y 5XS.$.3 X O fXfXjXjXlXjXjXjXjXkXjXjXjXjXgXjXjXjXjXgXjXgXjXgX[ [ [ [ ",
"` ) ` ! ` ! ! ` ! ! ! ! Q W n g.R.].k.K ] fX[ [ [ ` ! Q ! Q 8 } $.r.Z.Z.Z.w.5.o.9 &.q.4.| y vX3X%.3 O O ] jXjXjXjXjXjXhXjXD.[ [ [ [ [ [ [ [ [ [ [ gX[ gX! ! ! E ",
"` ) ` ! ! ` ` ! ` ! ! ! ! ! W n j.U.d.K [ [ [ [ [ ` Q ! Q C 9 ..3.r.Z.r.r.Z.0.o.7 &.q.0.| y vXtX+.2 X O G ] hXjXjXhXjXjXgXfX[ fX[ [ [ [ [ [ [ gXgXgX[ gX` ! ! ! ",
"` ` ! ` ` ` ! ` ` ! ! ! ! ! Q U M.g.M.( [ gX[ [ gX` W ! C < q &.0.r.r.r.r.w.4.o.0 &.q.4.} =.6X3XX.2 O O + G hXhXjXhXhXjXjX[ [ [ [ [ [ [ [ ` [ [ gX[ gX[ ! ! ! ! ",
"` ` ! ` ! ` ! ` ` ! ! ! ! ! ! ] ( i./ gX[ [ [ gXgX` ! ! S 2 ..*.5.5.w.r.w.>.$...+.:.0.9.#. .| b K e + + + G jXkXjXjXjXjXgX[ [ gX[ [ [ [ [ [ [ gXgX[ gXgX` ! ! ! ",
"] ` ` ` ` ` ` ` ` ` ` ! ! ! ! ] [ ` [ [ gX[ gX[ fX) Q ! A 7 @.*.5.5.5.w.0.:. . .@.>.9.5.3.#.9 b 5Xp o O + C ! D.gX[ gXgXgX] ] ] [ ` [ [ [ ` [ ` [ [ [ ` ` ` ! ` ",
"[ [ [ [ [ [ gX[ [ gX` ` ` ! _ ] [ [ [ [ [ gXgXgXfX] ! ! D { +.*.9.5.5.5.0.&.7 0 #.*.0.5.0.:.0 b.0Xb O O O + + A ! ! ! ! ` ! ! ! ! ` ` ! ! ! ` ! E ! ! ! ` [ [ [ ",
"[ [ [ [ [ gX[ [ [ gX` ! ! ` ) ] fXD.[ [ gXgXgX[ D.` ! ! C { +.*.9.5.5.5.q.;.1 9 3.5.5.5.0.:.9 b.0Xm.7 + O + + G ` ` ` ` ! ` ! ` ` ! ` ! ` ` ! ! ! ! ! ! [ [ [ ` ",
"[ [ [ [ [ [ [ [ [ [ ` ! ` ! ` ] gX[ [ [ gXgXgX[ gX` ! Q s  .#.>.9.4.4.4.q.o.+ w 0.0.>.5.6.:.{ b.0Xm...1 X O O A ` ` ) ` ) ` ` ! ` ` ! ` ! ` ! ! ! ! ! ! [ [ [ [ ",
"gX[ [ ] [ [ [ gXgX[ ` ! ! ` ` ` [ [ [ [ D.[ [ fXgX` ! i | 2.3.5.5.5.9.4.2.{ + w 0.0.5.4.5.>.+.m.0Xm.} < X + X r ( ! ! ) ! ! ! ` ! ! ` ! ` ! ! ! ! ! ! ! [ [ [ [ ",
"gXgX[ [ [ [ [ [ [ [ ] ] ] D.` gXgXgXgXgXfXjXhXhXgX] Q 5 s <.*.2.3.3.3.3.+.6 # w 8.6.5.5.9.>.@.m.9Xm. .< r z x s t ) ` ` ` ] ] ` ` [ ] ` ` [ ` ` ` ` ! ! [ [ [ [ ",
"jXjXjXjXjX` ! ! ! ! jXlXlXlXlXlXlXlXlXlXlXlXlXlXlXlXgXp K n.X.*.e.e.e.e.O.4 # w 8.6.5.5.9.>.%.m.0Xm.{ + p P P s O ) gX[ D.jXjXjXjXjXjXjXjXjXjX[ [ [ [ [ [ gXgX[ ",
"jXjXjXjXgX` ! ` ) ` jXlXlXlXlXlXlXlXjXlXlXlXlXlXlXjXgX4 | ,.A.5X7X7X7X7XA.F V s 3.6.4.4.9.3.+.m.0XA.e + @ 4 4 5 = [ [ gXfXjXjXjXgXjXjXjXjXjXjX[ [ [ [ [ gXgXgXgX",
"jXjXjXjXjX` ` ! ` ! jXlXlXlXlXlXlXlXlXlXlXlXlXlXlXlX] < { -.b.A.3X3X3X6XK F D 1.8.3.5.4.5.&. .n.0X8Xv r u i u u > [ [ [ fXjXjXjXjXjXjXjXjXjXjX[ gX[ [ [ [ gX[ gX",
"jXjXjXjXjX` ! ` ! ! gXlXlXlXlXlXlXlXlXlXlXlXlXlXlXlX[ + 6 { #.%.%.%.%.o.1 4 ;.0.5.5.9.4.$. .b A.0X0XY A ` zXjXG ! ] [ [ [ jXjXhXjXjXjXjXgXjXjX[ [ [ gXgXgXgXgXgX",
"jXjXjXgXjX` ! ` ` ! jXlXlXjXlXlXlXlXjXjXlXjXlXjXjXjXgXG < 1 2 7 0 } } 9 + 1 >.7.5.5.9.4.@.O.A.8X8X6X5XW fXzXgX] ] [ [ [ [ hXhXhXjXgXjXgXjXjXjX[ [ [ [ [ [ gX[ gX",
"gX[ gX[ gX` ! ` ` ! gXjXjXjXjXgX[ gXgX[ gX[ [ [ [ jXjX] G % % y y w y s u 4 :.q.9.5.9.4.#.-.4X8XK 1X5XA T ! ` ] D.fX[ [ [ [ [ [ [ gXgXgXgX[ gXgXgXgXgXgXgXgXgXgX",
"jXgXgXgXgX` ! ` ` ` gXjXjXjXjXgXgXgXgXgXgX[ [ [ [ gXjXjXgXE xXGXxXG D.GXfXa :.q.>.4.9.5.@.-.6X5Xz K P c > ` [ [ ] [ [ [ ] [ [ [ [ gX[ gXgXgX[ gX[ gX[ gXgX[ gX[ ",
"gXgXgXgX[ ` ` ! ! ` gXjXjXjXjXgX[ gX[ gX[ [ [ [ [ gXjXjXgX] GXIXGX] fXFXD.,.:.8.5.5.9.9.#.O.7X5Xp z F Z i E ] [ [ ] [ ] [ [ [ [ [ [ gXgX[ gXgXgXgXgXgX[ [ gXgXgX",
"gX[ [ gXgX` ! ! ` ! gXjXjXjXjXgXgXgXgXgX[ gX[ gX[ hXjXjX[ C zXFXcX` T T =.$.4.8.5.5.9.5.} y 6X5Xz . c 5Xb C ] [ [ [ [ [ [ gX[ gX[ [ gXgXgXgXgX[ gX[ gXgX[ gXgX[ ",
"gXgXgXgXgX` ` ` ! ` gXgXgXgXgXgXgXgX[ gX[ [ [ [ [ gXgXgX! % T Q S C p - o.3.5.9.5.9.3.$.w b 1XP p . a 8Xb O ] [ D.] ] ] [ [ [ [ [ [ [ [ gX[ [ [ gXgXgXgXgXgXgXgX",
"gX[ [ [ [ ] ] ] [ [ ! ! ! ! ! ` ! ` ! ` ! ` ! ! ` ! ! ! C < = = % 5 4 w ;.q.9.>.5.9.*.+.s H P J z * c P b 5 [ [ ! ! ! ! ! ! ` ! ` ` ! ` ` ` ` gXgX[ gX[ [ [ [ [ ",
"gX[ [ [ [ ] ` ] ` [ ! ! ! ! Q ! ` ! ! ` ` ` ! ` ` ! Q C 3 9 8 6 8 6 0  .>.9.9.5.5.9.2.+.t m P I V N : : p v [ [ ! ! ! ! ! ! ! ` ` ! ` ` ! ` ` [ [ gXgXgXgX[ [ [ ",
"gX[ gX[ [ [ D.] ] ] ! Q ! ! ! ! ! ` ` ! ` ! ` ` ! Q C 2 7 0 9 9 0 { ..@.*.9.5.5.5.0.*.} b Y J F V N * * a I [ ] ! ! ! ! ! ` ` ! ! ` ! ! ` ! ` gXgXgXgX[ [ gX[ [ ",
"gX[ [ [ [ [ ` [ ` [ ! ! ! ! ! ! ! ! ` ! ` ! ` ! ` C 3 q 9 9 7 7 0 ..+.+.*.9.5.5.5.4.&.8 A.1Xv a V B : ; p v fX] ! ! Q ! ! ! ! ! ` ! ` ! ` ! ` gXgXgXgXgX[ [ [ [ ",
"gX[ gX[ gX[ [ ] [ [ ` ! ! ! ! ` ` ` ` ` ! ` ` ` ` C 3 0 0 9 9 7 0 ..+.+.>.9.5.5.4.2.| s 1X5Xz p V Z N ; % r ] ] ! ! ! ! ! ` ` ` ` ] ` ! ` ` ` [ gXgX[ [ [ [ ] ] ",
"gXgXgXgX[ gX[ gX[ gX[ [ [ [ [ gX[ [ [ [ [ [ [ [ ` G 1 6 6 6 9 7 0 +.+.+.*.5.5.0.>.+.t v F.1Xx , Z A V ; @ + ) ) ! Q ! ! ! jXjXjXjXjX] ] ` ] ] ` ` ` ` ] ` ! ` ` ",
"gXgXgX[ gXgXgX[ gXgXgXgX[ [ [ [ [ gX[ [ [ [ [ ! T & % + + 1 9 9 0 ..+.@.:.9.5.0.>.| w v P K z p V Z V N @ @ ) ) ! ! ! ! ! jXjXjXjXgX] D.[ ] [ ` ` D.` ` ` ` ! ` ",
"gXgXgXgXgXgXgX[ gXgX[ [ [ [ [ [ [ [ [ gX[ [ [ E   ; = $ $ @ 2 2 3 { ..@.3.q.4.3.#.0 4 v P P c c V V V B = & Q ` ! ! ! W ! jXjXjXjXgX[ [ ] [ ` ` ` ` ] ` ` ` ! ` ",
"gX[ gX[ [ gXgXgX[ gX[ [ [ [ gX[ [ gX[ [ [ [ [ ! . > , ; ; * @ o + 3 0 ..&.4.0.*...0 w J P L c N V V B B , * G Q ! ! W ! ` jXjXgXjXjX` ` ` [ [ ` ] ` ` ` ! ! ` ! ",
"gXgX[ gX[ [ [ gX[ gX[ [ [ [ [ [ [ [ [ [ [ [ [ E o , M > ; * * = = + + 1 7 &.8.2.+.9 y 1XL z ; N V V B : * * B Q E E E ! ` jXjXjXjXgX[ [ [ [ [ ` ` ` ` ` ` ` ! ` ",
"` ` ` ` ` ` ` ` ` ` ` [ ` ` ` ` ! ! ! ! ` gX[ [ Q S : , > : : N , = o o + 6 o.| 0 9 ,.6XL p - , , , > > M V Q W B i E ! ` lXlXlXlXlXjXlXjXlXjXjXjXjXjXjXjXlXlXlX",
"` ` ` ` ` ! ` ! ` ` ` ` ` [ ` ! Q ! ! ~ ] [ [ [ fXS & , , > > > > , * . o O + @ < 6 ,.5XK - > : ; * > V ! D.fX` S a Q ! [ lXlXlXlXlXlXlXlXlXlXjXjXjXgXjXjXlXlXlX",
"` ` ` ! ` ! ! ` ` ! ` ` ` ` ` ` ~ ! ! ! ` gX[ [ [ ` T $ $ $ $ $ . $ E ` ) ! ! ! ' D 4 b z - : : : a V T ! ` ] ! V = S ! ` lXjXlXlXlXlXlXjXlXlXjXjXjXjXjXlXlXlXlX",
"` ! ! ` ! ` ` ! ! ` ` ` ` ` ` ! ! ! ! ! ] [ [ gX[ ` Q A S S R S S S ! ) ` ` ) ! [ fX~ ] [ * * : , A E S V B B M = S E ! ` lXlXlXlXlXlXlXlXlXlXjXjXjXjXjXlXlXlXlX",
"` ` ` ! ` ! ` ` ` ` ` [ [ ` ` ` Q ! ! ! ] [ [ [ gX` ! ! Q ! / / ` ! ) ` ` ! ) ! [ lXjXlXgXE = , , A E B * . .   V Q ! ` ` lXlXlXlXlXjXlXlXlXlXjXjXjXjXgXjXlXlXlX",
"lXjXjXjXjXjXgXgXgXgX[ [ [ [ [ ` ` ` ` [ ` ! ! ! ! ` ] ] ] ` [ gXgXgXjX[ ` ` ` ` [ jXjXjXjX` ! & & - = $ ! ] ] ) ) ] ] ] ` ] [ ` ` ` gXgXgXgXgXjXjXgXjXjXjXjXjXjX",
"zXlXlXlXlXjXjXjXjXjXgX[ gX[ [ [ [ ] ] [ ) ! ! ! ! ` ] ] ] ] gXjXjXjXjXgX` ` ` ` [ jXjXjXjXjX` E . . . T ] fXgX[ ] ] ] ] ] ! ! ! ` ` [ [ [ [ [ jXjXjXgXjXjXjXjXjX",
"lXlXlXlXlXjXjXjXjXjX[ [ [ [ [ [ [ ` ` [ ` W Q ! W ` D.] ` ] gXjXjXhXjXgX] ` ] ` [ jXjXjXjXjXjXjXjXjXhX[ gX[ gXgX] ] ] D.` ! ` ` ` ` [ [ [ [ [ jXjXgXjXjXjXjXjXgX",
"lXlXlXlXlXjXjXjXjXjXgX[ [ [ gX[ ] [ ` [ ` ~ ! ! ! ] ] ] ] ] gXjXjXhXhXJ./ ` / _ ' hXgXfXjXjXgXjXjXjXhXgXgXgXgX] ` ] [ ` ] ` ` ! ! ` [ [ [ [ [ jXjXjXjXjXgXjXjXjX"
};
