/* XPM */
static char *result[] = {
/* columns rows colors chars-per-pixel */
"80 80 252 2 ",
"   c #191313",
".  c #2D0202",
"X  c #280305",
"o  c #340101",
"O  c #3A0101",
"+  c #370C0B",
"@  c #340F10",
"#  c #26191A",
"$  c #361413",
"%  c #392918",
"&  c #1F232B",
"*  c #292525",
"=  c #2C2C2D",
"-  c #332929",
";  c #38382A",
":  c #2D3434",
">  c #383535",
",  c #3B3B3C",
"<  c #450101",
"1  c #4B0100",
"2  c #430B08",
"3  c #520100",
"4  c #5D0000",
"5  c #57050B",
"6  c #46140D",
"7  c #4F1A13",
"8  c #630000",
"9  c #6B0000",
"0  c #6A060A",
"q  c #740000",
"w  c #7C0000",
"e  c #7B070A",
"r  c #552A05",
"t  c #4C2419",
"y  c #542A1B",
"u  c #702315",
"i  c #453B23",
"p  c #593C28",
"a  c #4D3536",
"s  c #6D392E",
"d  c #3F4637",
"f  c #5F450F",
"g  c #795B06",
"h  c #72500B",
"j  c #7C6207",
"k  c #796315",
"l  c #51442F",
"z  c #5B5837",
"x  c #6D593B",
"c  c #6E6C33",
"v  c #786737",
"b  c #2A3D40",
"n  c #374547",
"m  c #384E5B",
"M  c #454747",
"N  c #584947",
"B  c #4D5152",
"V  c #585454",
"C  c #5D5C5D",
"Z  c #644747",
"A  c #70504C",
"S  c #655A59",
"D  c #58605E",
"F  c #6C6B47",
"G  c #736D48",
"H  c #767649",
"J  c #69695A",
"K  c #697359",
"L  c #767956",
"P  c #586363",
"I  c #646464",
"U  c #686765",
"Y  c #666B69",
"T  c #6D6D6D",
"R  c #6A7369",
"E  c #727B68",
"W  c #706F71",
"Q  c #6E7171",
"!  c #727272",
"~  c #737B75",
"^  c #767979",
"/  c #7C7C7C",
"(  c #830000",
")  c #8C0001",
"_  c #860E09",
"`  c #950001",
"'  c #9D0100",
"]  c #980709",
"[  c #940B16",
"{  c #A30000",
"}  c #AA0000",
"|  c #A9030B",
" . c #B50002",
".. c #AA0C15",
"X. c #B40313",
"o. c #B80519",
"O. c #A42814",
"+. c #A80726",
"@. c #B90826",
"#. c #90362A",
"$. c #B43A24",
"%. c #C5072B",
"&. c #C4082D",
"*. c #D10D2B",
"=. c #C90931",
"-. c #CD1533",
";. c #D51A38",
":. c #E21838",
">. c #DD273E",
",. c #C63D37",
"<. c #855B03",
"1. c #925606",
"2. c #876806",
"3. c #956802",
"4. c #8D7200",
"5. c #8E7509",
"6. c #947602",
"7. c #957A01",
"8. c #9B7C02",
"9. c #98790B",
"0. c #866915",
"q. c #8D7013",
"w. c #977915",
"e. c #A47B03",
"r. c #A97906",
"t. c #A6760A",
"y. c #875036",
"u. c #B94130",
"i. c #897928",
"p. c #987729",
"a. c #8E7231",
"s. c #AA7A2E",
"d. c #8A384D",
"f. c #DE2A40",
"g. c #E42D45",
"h. c #8D5A44",
"j. c #A3585A",
"k. c #946A46",
"l. c #AA7249",
"z. c #996F6C",
"x. c #CE5B57",
"c. c #C56B57",
"v. c #77836D",
"b. c #788277",
"n. c #9D8208",
"m. c #9E8214",
"M. c #A58607",
"N. c #A1850C",
"B. c #B58604",
"V. c #AF9302",
"C. c #B99A08",
"Z. c #A68717",
"A. c #AB8C1C",
"S. c #B38C18",
"D. c #AE9218",
"F. c #B89816",
"G. c #B3941D",
"H. c #BB9C1C",
"J. c #BFA009",
"K. c #BFA11E",
"L. c #9E8222",
"P. c #A88A26",
"I. c #B38C26",
"U. c #AE9127",
"Y. c #B39423",
"T. c #B89A26",
"R. c #B2942B",
"E. c #AA8E34",
"W. c #B68A34",
"Q. c #BEA128",
"!. c #C49910",
"~. c #C6A40A",
"^. c #C3A40C",
"/. c #CAAB0C",
"(. c #C3A413",
"). c #C9A917",
"_. c #D4AD11",
"`. c #CEB017",
"'. c #D3B518",
"]. c #D3B41C",
"[. c #E3B817",
"{. c #C7972E",
"}. c #C5A626",
"|. c #CFAD2F",
" X c #D6A929",
".X c #D2B422",
"XX c #D7B727",
"oX c #DABD2D",
"OX c #D3B635",
"+X c #DBBE32",
"@X c #DCC22B",
"#X c #DEC133",
"$X c #DFC339",
"%X c #E6CB30",
"&X c #E2C53A",
"*X c #898A54",
"=X c #B8894B",
"-X c #B2A65D",
";X c #838561",
":X c #B18B6B",
">X c #9CA972",
",X c #C88B51",
"<X c #CFAD4B",
"1X c #E2A459",
"2X c #CC946A",
"3X c #D5AB75",
"4X c #E7AA66",
"5X c #EEB473",
"6X c #E8CA47",
"7X c #F0D054",
"8X c #F3D359",
"9X c #F0CF69",
"0X c #FDFA68",
"qX c #7B7E82",
"wX c #8A7D92",
"eX c #7C8382",
"rX c #818181",
"tX c #858888",
"yX c #898989",
"uX c #869393",
"iX c #919191",
"pX c #9C959E",
"aX c #999C9C",
"sX c #A7BC82",
"dX c #ABB3B3",
"fX c #D7AE84",
"gX c #EAB287",
"hX c #E5B68A",
"jX c #E8BA97",
"kX c #C9B0A5",
"lX c #DCCD9B",
"zX c #F7C68A",
"xX c #F5CF8D",
"cX c #ECC29A",
"vX c #F5CA99",
"bX c #EBC5A2",
"nX c #F7C9A6",
"mX c #FBD4A9",
"MX c #F9D5B4",
"NX c #FFDBBC",
"BX c #FFE3BC",
"VX c #B0BDC1",
"CX c #BBC6C8",
"ZX c #D2CFD0",
"AX c #F5D8C1",
"SX c #FEDDC2",
"DX c #FFE2C4",
"FX c #FFE9C7",
"GX c #FFE3CB",
"HX c #FFE8D9",
"JX c #DDE4E3",
"KX c #F3F3F3",
/* pixels */
"rX/ ;XqXz.eXeXqX/ qX/ ;XqXrXrXrXeXeXqXeX^ T Q ! T ^ / z.z.eXeXeX^ eXb./ / ^ ^ ^ / z.eXeXeXqX~ / ^ / ^ ! ^ ! ! ~ ! W W W ! eXeXeXeXeXeXrXrXrXeXrXrXrXtXrXeXqX/ eX",
"/ / qXqX^ / qX^ / / / / qXqXqXqXqXeX/ / ! T T T T ^ ~ v.~ ~ b.b.b.v.v.v.~ ~ E R R E v.R ^ ^ ! ! ! ! ! W ! T W T T T T T T z./ qXeXeXqXrXrXrXeXeXeXrXrXrXqXqX/ / ",
"z./ qX/ / / / / / / / / qX^ / z.z.eX/ eX! T T T T ~ v.7.8.N.R.R.Y.)./.).T.I.R.N.6.8.8.8.E E Q ~ ! ~ ! W T ! ! T T T T U ! / / qX/ z.qXqXrXrXrXeXeXeXqXrXeXeXqX/ ",
"qX/ / ^ / / ^ / / / / / / qXqXqX/ / / / ! Y T F G L m.~._. XXXXXXX[.[.[.[.XX X.X/.~.B.Z.a.v.H R ~ ! ! W ! T ! W T U T T T / / / / qXrXeXqXrXz.eXeXz.qXrXz./ / / ",
"qXqX/ / ^ / / / / / eXz./ eX/ / z.eXqX/ ! U R 9.F. XXX'.@X#XOXOX|.oX+X+X+XoX+X&X#X].).T.S.r.r.i.W ! ! W T ! W T T T T T T / / / qXz.eXqXqXrXqX;XqXeXrXqXz.eXqXqX",
"tXeXtXtXyXyXyXyXyXuXuXyXiXyXyXeX^ ^ ^ ^ ! K 5.Z.<X8X6X].`.(.R.R.H.(..X+X+X+XoX@X#X+X.XK.~.~.F.N.i.v.rXtXrXtXrXrXrXrXrXtXrX! T ! T T Q ~ ! ! ^ ! ! ! ! ! ~ ~ ! ^ ",
"yXyXtXyXyXiXiXiXiXiXiXiXiXiXiXtX^ ^ / / E i.B.H.+X6X|.G.F.D.D.Y.Q.(./..X&X8X6X&XoX+X@X'./.~.K.F.B.a.b.uXyXyXyXyXyXyXyXyXrXT T Y T T W T W W W W T W T T Q ! ^ ! ",
"yXtXyXyXyXiXiXiXiXiXiXiXiXiXiXrX^ ^ ^ E U.S.Y.J._.!.M.7.P.H./.XX$X#X`./.6X9X9X6X+XoX+X#X].~./.K.Y.M.i.eXyXyXyXyXyXyXyXyXrXT T T T T W ! T ! W W ! T ! ! ^ ! ! ! ",
"yXyXyXyXyXiXiXiXiXiXiXiXiXiXiXrX^ ^ v.U.~.!.K.K.V.n.M.F.|.OX@X@X6X8X$X`..XOX<XOX$XoXoX#X#X.X/.J.).B.5.tXtXyXtXyXyXyXyXyXrXT T T T T W W W ! W W W W W ! ! ! ! ~ ",
"yXyXyXyXyXiXiXiXiXiXiXiXiXiXiXrX^ ~ G.~._._.}.R.w.7.V.].XX.X.X].#X8X8X6X`.C.N.T.OX#X#X+X$XOX.X)./.V.n.b.tXyXyXyXyXyXyXyXrXT U T U T W W T T T T W W T T ! ! ! ~ ",
"z.Q ~ ^ ~ ^ ^ ^ ^ / ^ ! ! ! ^ ! R R C.[.oX%XXXR.w.6.D.Y.N.n.N.C.`.$X7X8X&X`.J.G.R.OX%X$X}.R..XXX/.F.A.p.L qXqX/ ! ! ! ! ! / / ^ ^ / / / / / / ^ ^ ^ ! ^ / / ^ ^ ",
"Q Q W T W T T T T T T U T T Y T K *X).%X6X<XK.N.7.4.5.0.j g j Z.(.`.$X7X8X&X].H.P.Y.)..XK.Y.Q.|./.T.Y.B.v / / ^ T U T T W rXrXrXrXrXrXrXrXrXrX/ z.^ / ^ / qX^ qX",
"~ ! Q W W W W W W W Q Y T T T T v.J.oX7X8X<Xm.3.7.5.2.k k k 2.m.Y.(.`.+X8X8X&X}.P.9.n.~./.^.Y.R.(.K.I.e.H ^ ^ ^ T T T Y T z.eXeXwXqXeXrXeXeXqX^ ~ ^ ^ ^ / / qXqX",
"! T T ! W W W W W W T Q T T U T k. X7X8X<XR.E.s.s.W.W.=X2X,XW.m.n.D.(.].&X6X$X.XF.7.7.~././.J.F.H.R.S.e.H qXb.^ T T T T W rXeXeX;XqXqXrXeXeXz.^ ^ ^ ^ ^ / rXz.eX",
"! T W T T W W T W T Y Y U T T T L |.8X7XXXF.W.2X2X2X5XzXmXnX5XI.5.m.D.(.`.XX#XXXJ.n.N.F.).J./.^.U.E.U.M.a.b./ ^ T T T Y T rXqXqXqXqXeXz.eXeXqX~ ^ ^ ^ ^ / b./ / ",
"/ / / / / / rXrXeXqXeXz.qX/ / ^ *X}.&X&X].n.t.1XgXjXmXNXDXGXMX2Xs.4.n.Y.(.].+X].J.D.P.R.Y.G.(.).U.P.U.I.Z.i.R W U T T T ! yXyXyXtXuXeXrXrXqXeXeXz./ / / / / qXeX",
"tXrXrXrXrXyXyXyXyXyXyXyXyXyXyXrX;X!.].@XXXn.9.4XvXMXSXSXSXGXSXgXl.s.w.Z.D.(..X].`.K.Y.Z.A.Q.K.H.H.Y.U.R.B.r.K T T T T T W iXiXiXiXiXrXrXz.eXeXeXeXrXrXrXz.eXeX^ ",
"rXqXqXeXrXtXyXyXyXyXyXyXtXyXyXrX;X!.~.XXXXn.m.hXNXDXSXNXSXGXMXzX4X,Xs.7.Z.T.^.XX+X].V.7.M.^.G.Y.^.H.U.E.S.e.K T U T T U W iXiXiXiXyXrXqXeXeXeXeXeXqXrXrXqX/ qX^ ",
"rXz.eXeXz.tXyXtXtXyXtXtXyXtXyXrX;X!.~._.J.n.E.bXGXDXNXNXNXNXSXBXmX9X{.M.m.R.^.].$X].C.7.n.n.P.T./.F.U.R.Z.2.I T T T T T ! yXiXiXiXiXqX;XeXrXqXz.eXz.rX/ rX/ / / ",
"tXrXeXeXeXtXyXyXyXtXtXuXyXyXyXrXv.!.(.).C.7.E.MXHXSXNXSXDXGXDXMXjX4Xp.j w.Y.F.`.oX`.V.7.4.9.Z.H.(.H.R.R.Z.2.J T T T T U ! iXiXiXiXuXwXrXqXqXrXrXeXqXrXrX/ / rXqX",
"rX/ / qXqXeXeXrXrXrXrXeXqXeXeXqXH M.Y.K.J.7.E.MXHXSXNXSXFXFXvX:Xh.s t y j N.Y.}././.C.7.s.l.W.G.Y.R.U.R.P.7.i.K T T T T T rXtXrXeXeXqXqX^ eXz.qXeXeXrXrX/ ^ ^ ^ ",
"/ / / ^ qX^ qX/ b./ qXz./ / qXQ G e.U.(.J.n.E.cXSXMXMXbXfX:Xz.s + o t y.q.9.P.H.^./.C.n.=XhX2XP.m.A.U.A.N.8.3.j Y T Y T W / eXz.qXeX/ / qXqXeXrXeXqXqXeX^ ^ ^ ~ ",
"b.qX/ / ^ qX/ / / / ^ qX/ / eXQ H e.A.}.C.n.P.hXnXnXvXfXh.y 7 7 7 - h.c.Z.6.P.H.^./.F.U.fXAXgXs.9.m.U.m.7.7.3.k Y T T Y T qXqXqXz.eXqX/ / / / rXrXz.eXeX/ ^ ^ z.",
"z./ / ^ ^ eXeXz.qX^ eXeXeXz.z.! H e.N.D.D.5.L.fXnXjXjXfXj.h h h v :XwXk.5.4.n.A.H.(.C.G.hXGXjXs.7.N.R.n.4.6.3.k Y T T T T qXb.^ / / / qXb./ / rXrXqXeXeX^ ^ ^ ^ ",
"eXqX^ ^ / / / z.eXqXqX^ qX/ rX! F 6.6.Z.P.j a.hXnXcXcXjX2XW.e.6.=XCXwXs 1.Z.8.w.R.K.J.U.hXBXfXy.2.n.P.n.7.n.3.k Y T T U W z.eXeXqX/ qXz.eXeX/ rXqXeXrXrX^ ^ ^ / ",
"qXQ ~ ^ ! ^ ^ ^ ^ ^ ~ Q ! ! ! W F 4.6.A.P.j p.hXnXcXcXhX4X XC.6.*XCXwXx ,X{.N.n.R.(.J.G.lXAXz.r h 2.0.4.n.A.9.k Q ! ! ! ! ! Q Q ! ! ^ ! ~ Q ^ ^ ^ ~ z.! ! ^ ! ^ ",
"^ T T T T ^ ! ^ ! ! T T U T U T F 3.6.M.m.j a.hXnXjXjXhX9X9X%X/.-XVXaXW.1X1XN.6.Z.J.J.N.<XjXh.r 0.0.g 2.M.T.s.k ~ ^ ^ ^ ^ T T T T T W Q Q W Q T T T W T ! ^ ! ! ",
"! T ! W ! ! ! ! ^ ! T T T T T T J 2.6.8.4.j p.hXmXcXcXjXlXxX0X%X<XVXkX4X5X<X9.4.n.J.C.7.s.:X0.0.P.m.j 2.N.Y.t.k ~ ^ ^ ^ ! Y T T T T T W Q W T ! W ! ! ! ! ! ! ^ ",
"! ! W ! ! ! ^ Q ! ! Q Y T T T T T c 5.e.4.g a.jXMXMXmXMXMX9X@X/.<XVXCXzXgX3Xq.2.7.D.G.n.0.0.5.n.R.Z.4.j 5.N.t.g Q z.^ ^ ^ T Y T Y Q Q Q ! W W T ! ! T ! ~ ! ! ! ",
"! W T T T ! ! Q ! ^ Q Y T T T Y Y Y 5.r.4.g p.hXMXGXDXGXGXhX).).-XkXZXnXmX3X0.g n.P.A.6.2.j 4.9.A.A.n.k g 4.0.L ~ ^ ^ ^ ^ T T T Y Y T T T W T T T T T T ! ! ! ! ",
"/ ^ ! ^ ^ ^ ~ ~ ^ ^ ! Q ! ! ! W Q T v e.6.j 0.,XnXDXGXDXSXMXvXvXmXBXAXDXMX3X0.g n.D.P.2.2.4.2.2.6.D.P.q.g 2.R ! Q ~ W ! ! ! ! ! ~ qX/ / / / / / / / / / ^ ^ ~ eX",
"/ / / / / / z.qX/ / z.eXqX/ rX^ Q Q R c 7.4.h y.2XmXBXNXDXGXHXHXFXMXNXDXmX3XE.q.5.m.w.0.2.6.2.k 4.n.A.9.<.g Y Q T Y T T W rXrXrXz.rXyXyXyXyXyXyXtXyXyXyXeXqXqXz.",
"/ / / / / ^ ^ / / / / / qXeXrX! Q Q Q K 8.3.f t y.4XgXbXNXSXNXSXMXcXcXcX4X1X,Xs.j 4.4.g k k k 2.9.8.7.7.3.2.Y R T T T U T eXeXeXz.eXeXtXtXyXyXtXtXtXyXyXrX/ / qX",
"/ / / ^ / / / / / / / / qXz./ ^ Q Q Q R 3.3.K / ^ h.#.l.3XxXxXxXxX3Xc.u.$.$.$.O.O.<.g r d ~ c 5.Z.w.j 4.N.Z.v R T T T T ! z.eXeXrXrXuXyXyXtXtXyXyXyXyXtX/ / / / ",
"/ / / / ^ z./ / / ^ / / ^ eX/ ! Y Q Q Y v 1.L rX;XT S S k.c.,XW.,Xc.$.{ { { { ' { 1.h O m z.R 3.A.L.0.2.Z.R.t.k Y U T U T / qXqXqXrXtXtXyXyXyXyXrXyXtXtXqX/ eXz.",
"tXrXtXeXeXeXrXtXrXrX/ ^ ^ ^ ^ / / / z.qXb.v H rXrXyXyXrXJ r 7 u _ O.} } } ' w e w g h O m / E 2.8.A.P.2.q.W.t.k ~ ^ ^ / / yXtXtXtXyXyXyXyXyXyXyXyXyXwXtXeXeXeXrX",
"iXiXiXiXiXiXiXiXiXiX/ T T T T tXiXiXiXaXyXqX^ yXyXiXiXiXqXX X 3 q 9 9 q q 9 3 1 3 r r + m ! T c 2.r.D.w.w.Z.t.<.yXiXiXiXiXiXiXiXiXiXiXiXiXiXiXyXyXyXyXyXyXyXyXyX",
"iXiXiXiXiXiXiXiXiXiX/ W Q W T tXiXiXiXiXyXyXtXyXyXiXiXiXqX  o 4 8 O o o o o o o o O O O , T T T k 3.8.P.P.9.2.H yXiXiXiXiXiXiXiXiXiXiXiXiXiXiXyXyXyXyXyXyXrXrXyX",
"iXiXiXiXiXiXiXiXiXiX^ T W Q ~ eXiXiXiXiXyXyXyXyXyXyXiXiXqX# . o < 3 3 1 1 1 3 O . < 4 8 6 n W ! Y c j 9.9.2.L tXiXiXiXiXiXiXiXiXiXiXiXiXiXiXiXyXrXyXyXyXyXyXyXyX",
"aXiXiXiXiXiXiXiXiXiX/ T W W Q eXiXiXiXiXyXyXyXyXyXiXiXiXqX+ 1 1 3 9 w w w ( ( 4 < 8 w q 3 + T ! Q R j g <.j v.yXiXiXiXiXiXiXiXiXiXiXiXiXiXiXiXtXyXyXyXrXyXyXyXyX",
"tXrXyXrXrXyXrXtXtXtX! T T W T z.yXyXtXyXtXtXrXrXeXeXeXqXI 4 ' { ( 9 ( ' { { { w 8 9 w q 3 @ T Q T Y <.2.4.4.a.E yXiXiXyXyXyXyXyXyXyXyXtXyXyXeXtXrXtXtXeXqXqXeXz.",
"W W T T T T T T T T T T T T W ! eX/ / / / / eXz.z.W Q Y s `  .{ ) w ` X.X.o.X.| ( q q ( 4 @ T ! ! R 4.e.D.V.r.g tXtXyXyXtX/ / / / / / / ^ / ^ eXqXqXeXeXT Y Y U ",
"! W W ! W W ! T ! T T T T T Y ^ z.qX^ qX/ qXeXqXqX! Y N [  .{ w q ` o.%.=.%.%.o.' w w { q @ Q W W K 6.S.T.~.B.j eXyXtXyXeXeXqX/ / / qX^ / ^ / eXrXrXz.eXQ Y T T ",
"! ! ! T W ! T ! W ! T T T T T ! eXeXeX^ / ^ eX^ qX! C e { ' w w ] *.;.;.=.=.=.o.' w ( { q @ W W T K 3.e.D.}.Z.2.H b.yXtXuXz./ / / / / / / / / z.rXrXrXeXT T T T ",
"! T T T T W T W T T T T T T T ^ qXb.qX^ / / / / z.Q V ` } ) 9 ) o.>.g.g.-.%.%.o.' w w { q @ Y W ! T G 2.8.A.A.8.1.L yXiXtX/ / qXz.eXqX^ / / / eXrXrXrXz.T T U T ",
"^ ^ ! ~ ^ ~ ! ! ! ~ Q T T T T ^ rX/ / eXeX/ / rXqX~ V ) } ) 9 [ -.>.g.f.-.%.%.o.{ w w { q X I ! ^ ! ^ H 3.6.A.S.t.G qX;XqX^ ^ / ^ / ~ ^ ^ ^ ^ ^ ^ ^ ^ qX! W ! ! ",
"rX/ / / / / z.eXqXqX~ W T W W / / / qX^ / rXrXrXrX! Z w w q ) @.>.>.>.-.&.&.&.X.) q ( { ( 1 X T qXtX^ U F 4.t.Z.G T R T W W T T T ! ! T W W T T T Y Y Y ^ / / / ",
"/ / / / / / qXeXeXz.! T W W T ^ rX/ eXeXz.rXrXrXrX^ Z 8 O 4 } ;.g.>.-.%.@.=.=.[ 9 8 ( ' ` 8 < T qX;X/ T Y v 1.k T W W W W W W W ! T W ! T T W T T T T Y ^ / / / ",
"/ / / / ^ qX/ / / b.! T ! W T / z.eXeX^ eXeXeXeXeX^ V O X 8 @.:.g.f.-.%.%.=.=.[ O 3 ( { ` 8 < U rXrXqXT T Y v <.R Q W W W W W W ! W W T W W Q T T T T T ^ / / ^ ",
"/ / / ^ ~ qXqX/ qXrX! T T W T ^ / / qX^ / qXeXz.eX! V o o [ *.:.f.f.-.%.=.=.@.0 O 4 ` { ' q 1 T rXrX^ U T Y I F R T W ! T W W W W W W W W T Q Y T Y U T / / / / ",
"rXeXz.eXz.eX^ / / ^ / ^ ^ ^ ^ z.rXtXrXrXtXrXtXrXyX/ C O 8 ..:.:.f.f.-.=.=.+.5 < 8 ) { } } ` 3 Y rXrXqXW ! ! ! ! ! ^ ! ! ! ~ ^ ~ ^ ! ^ ! ^ ^ ~ Q ! ! W W / / / / ",
"iXtXuXeXyX! T W W T yXiXiXiXiXuXyXiXiXiXiXiXiXiXiXyXW O u j.x.g.:.:.*.=.*.[ o < ` { { { } { 9 S / yXyXrXrXrXqXrXqX/ / / z.yXyXyXyXyXyXyXyXyXyXz./ / / qXrX/ rXrX",
"yXtXyXyXyX! W T ! Q yXiXiXiXiXiXiXiXiXiXiXiXiXiXiXyXI 2 v >XsXx.:.f.;.%.X.( O 8 { } { { } { ( 4 A qXtXeXqXrXeXqXqX/ / eXeXtXtXtXyXrXyXyXtXtXeXeX/ / qX/ rXz./ rX",
"yXtXrXyXyX! W W W T yXiXiXiXiXiXiXiXiXiXiXiXiXiXiXW Z _ x.x.x.2X:X2X,.| q 1 3 q } o.X.{ { ' ( 4 o qXeXz.rXrXqXeX/ / / ^ eXtXyXyXyXyXyXyXtXtXuXz./ qX/ qXeXeXrXrX",
"yXyXyXyXyX! W W W T tXiXiXiXiXiXiXiXiXiXiXiXiXiXtXO 3 e @.*.*.l.sX>Xl.O.1 o 9 ` | &.@.X.{ { ) 9 2 ! tXrXrXrXqXeX/ / qX^ qXyXyXtXyXyXyXtXyXyXyX/ / eXqXb.eXeXqXrX",
"yXyXtXtXyXW W W ! T tXiXiXiXyXiXiXyXyXiXiXyXyXyXrXo O O < q  .*.u.v.>X:Xy < ) X.%.&.=.@.X.{ { ) 9 Z U rXqXrXz.eXrXb.qXeXz.tXyXtXrXyXtXyXtXtXtX/ z.eXqX^ eXqXrX/ ",
"eXeXz.rXz.! T T W W rXyXyXyXtXrXz.eXeXqXqXqXqX^ Y y Z S U z.x.O._ #.:X>Xi 1 | %.=.&.=.=.@.{ } ' w 1 Z / / / / / / / / / / qXqX^ / rXrXrXrX/ / rXeXeXqXrX/ rX/ rX",
"tXeXeXqXeX! ! ! W W rXyXyXyXyXrXqXrXeXeXeXz./ N $ S pXZXJXKXJXS 5 @.j.G % 4 @.=.=.@.=.@.X.{ { ' w 3 @ ^ ^ / / ^ / ^ / / ^ z.^ eX/ / / rXrXrXrXrXeXz.rXeXrXrXrXrX",
"eXqXrXrXeXQ ! W W ! rXyXyXyXyXrXqXrXwX;XeX^ qX+ @ V uXVXJXKXJXdXz.d.s % O e @.=.&.=.%.X.| { { ' ` w 7 / / / / / / / / ^ / / qX/ / rXrXrXrX/ rXrXeXqXeXqXrXz.qXqX",
"rXrXqXqXeX~ T T W T rXyXyXyXyXrXrXeXeXrXeXqX~ o . - B z.dXdXdXZXdXm * < 9 ` o.=.&.&.X.' ' { { | } ` 0 T / / ^ qX/ / / / / qXrXb./ / rXrXrXrXrX/ rXeXeXeXeXeXeXqX",
"rXrXrXz.eXQ Q ! ! ! eXrXrXrXyXz./ / qX/ z.T N O o . - V b.yXyXaXeXn 7 ` { ' | o.&.X.] { ' { { } } ` 9 Z T ^ z.^ ^ ^ ^ ~ ^ / / / / / / / qXeXeXeXqXz.eXeXrXqXrXeX",
"rXqXeXeXqX^ ^ ^ ^ ^ T T R T Y Q ! T ! W Q V O O 7 y ; , B D V a B D #.{ | { ' | X.| ' { { { { { { ' w 1 I / eX^ T T T T W T W T T ! ! W T Q Q z.rXrXeXeXqXqXz.qX",
"rXqXqX^ qX^ ! ^ ^ ^ T T T T Y Q T ! Q Q Q C o o l H z % * = # X y *Xh.e ` } { { { { { { { { { { {  .' 4 I / ^ qXU T T T T ! W ! ! W ! W Q Q W rX/ rXqXeXqXrX/ / ",
"rXb.^ qXz./ / / ! / W T Y T Y Q ! ! T Q Q D o o p L z = * & * # $ p x x O.} { { ' { { { { { { { { } { 9 N Y qXz.T T T W T T ! T T ! T Q ! T W rXrXrXrXqXqX;X/ / ",
"qX/ / / / ^ / ! ^ ^ T T T U Y T Q T W T T V O 6 p z ; = = = = : # X x >X#.{ { { { { { { { { { { { { { ` 8 < Q / T T T T T T T W W T W W W W ! z.rXrXrXrX/ / / / ",
"eXz.rXqXrX^ / / / ^ ! T W T Y Q ! ! ! Q V o 7 x x i = & : = : :   X x >X#.( ' { { { { { { { { { { { } } ( < Q / T T T T T ! ! ! ^ ! W W ! ! ~ b.rXqX/ / / / / / ",
"eXeXrXeXqXeXz.eXeXeXz./ qX/ z.qXz.qXqXQ o o y H F i * = = = = : * @ p x x #.' } { { { { { { { { { ' }  .] 1 I Q T U W U T yXyXtXyXyX^ ^ ^ ^ ^ ! ! ! ~ Q ! W W W ",
"eXeXrXrXrXqXeXeXeXeXeXqX/ / eXeXeX/ / Q o o t z z l ; = = = = = = = @ $ z y.] { { { { { { { { { { } } } ) a Y T T T T T W yXyXyXyXrX^ ^ ! ^ ^ ~ ! ! ~ z.W ! W W ",
"rXrXrXqXrXrXrXrXeXeXqX/ / / ^ qXeXqX/ Q o o 6 l l : = = = = = = : : X o z v _ ' { { { { { { { {  . .} e N Y W T T T T T W yXyXrXyXrX! / / / ! ! ! ! ! ! W W W W ",
"rXqXrXeXrX/ rX/ eXeX/ / / / eXqX^ ^ / Q O O + i ; = = = = = = = = = I S J l u _ } } { ' { } } { ` ` ) 1 S ! ! W U T T U W yXyXyXyXtX/ ! / ! / ! ^ ! ^ ! W W W W ",
"rXrXeXeXeXz./ rXz.eX/ qX/ / z.eXeX/ / Q O o + l d = = = ; = = = - U ^ / I t x #.} { { { {  . .` 3 < 1 6 T ! ! W T T T T W yXyXyXyXrX/ / / ! / ! ^ ! ^ ! ! W ! W ",
"! ! Q Q Q W ! W W W ^ ! ! ~ ! ! T T T T U S $ % ; = = = = = = = * V W T S 6 H y.' {  . .` w ( 8 @ # # > ^ rXyXrXW W W T ! iXiXiXiXiXyXiXiXiXiXyXrXyXyXyXyXiXyXiX",
"! ! T ! T ! ! T ! T ^ ! ! ^ ! T Y T T U ^ Q - = & = = = = = = = * C W W C N z s q '  .} 9 o X @ > n M , # I eXtXW ! T T ! iXiXiXiXiXiXiXiXiXiXyXtXtXyXyXiXiXiXiX",
"^ T ! T Q W T ! W ! ^ ! ! ! ! ! T T T T ! qXV M d = = = = = * - I T W W W I N 1 1 4 8 9 2 # * a M M M , #   / rXW W ! ! ! iXiXiXiXiXiXiXyXiXiXyXyXyXyXtXyXiXiXiX",
"! ! W ! T ! W Q ! W ! ! ! ^ ~ Q U T T Y C N Y I B , : = = : = # Y Q Q Q W ! V N S U . X # : n B M , , , -   qXrX! T T T ^ iXiXiXiXiXiXiXiXiXiXyXyXtXtXtXiXiXyXiX",
"^ T ! T Q W Q ~ W T ^ ! ! ! ! Q T T T C   - B I Y C d : > , a   P Q Q Q W W T T / rX# = , M B M , > , n = S / rXT ! W ! ! iXiXiXiXiXiXyXiXiXiXyXyXyXtXyXiXiXiXiX",
"iXyXyXiXyXyXz.eXrXyX/ / / / ^ ^ ! ^ ! ^ I V * a a > a > > - * W qXrXtXz.! ! ! ! / qX> M C T T C B l , - I ! rXrX/ ^ ^ ^ ^ ^ ~ ! ! ^ eXeXrXqXeXyXrXyXyXyXyXyXyXyX",
"iXiXiXiXiXyXyXyXyXyXeXqXb./ eX^ qX^ ^ ^ W C M     & = , , # I yXyXyXyXrX! ! ^ Q C = M V T qXrX! D M : S T rXrXrX^ ^ ^ ^ ^ T ! T W W / / / / qXtXyXyXyXrXrXyXyXyX",
"iXiXiXiXiXyXyXyXyXtXz.^ qX/ z.^ ^ ^ ^ z.W T Y Y Y Q ^ ^ ^ ^ / yXyXtXyXrX! ~ ! Y X # , M M V V N >   I ~ qXrX/ / ^ ^ ! ^ ! ! T ! W ! z.^ / z.eXtXyXyXyXyXyXyXyXyX",
"iXiXiXiXiXyXtXtXyXyXeXqX/ qXeXqX! ^ ! qXW Y T Q Y ~ ^ ^ ^ qX;XyXyXtXyXrX! ! ~ ~ & b n n n n n b & & ! eXrXrXrX/ ~ ^ z.^ ^ T ! T W ! eXqX/ / eXeXyXrXyXyXyXyXrXyX"
};
