/* XPM */
static char *result[] = {
/* columns rows colors chars-per-pixel */
"80 80 67 1 ",
"  c #140C07",
". c #1B0D07",
"X c #1C0E09",
"o c #1E120D",
"O c #1F1511",
"+ c #210F0D",
"@ c #22130E",
"# c #231511",
"$ c #291614",
"% c #251A14",
"& c #291A16",
"* c #271D19",
"= c #2C1E1A",
"- c #311E1A",
"; c #2D211C",
": c #32231D",
"> c #2E2620",
", c #2F2821",
"< c #342621",
"1 c #392622",
"2 c #352923",
"3 c #3A2B25",
"4 c #362C28",
"5 c #3C2E29",
"6 c #373029",
"7 c #3D312B",
"8 c #402E2A",
"9 c #42332E",
"0 c #42382F",
"q c #453631",
"w c #483631",
"e c #463A34",
"r c #4A3C36",
"t c #4C3E39",
"y c #503C37",
"u c #513E3A",
"i c #4A4137",
"p c #4C413A",
"a c #52433D",
"s c #58473F",
"d c #4F4842",
"f c #554641",
"g c #594742",
"h c #564943",
"j c #5B4B45",
"k c #564D48",
"l c #5E4E49",
"z c #5E5047",
"x c #5E514A",
"c c #614E4A",
"v c #63534D",
"b c #68554F",
"n c #665651",
"m c #695651",
"M c #665951",
"N c #6B5B55",
"B c #6D5D59",
"V c #725B57",
"C c #715E59",
"Z c #6D6057",
"A c #6F615A",
"S c #73635D",
"D c #79655E",
"F c #75685F",
"G c #746661",
"H c #766860",
"J c #7B6A64",
/* pixels */
"ybmjjcvMvvcgjvNSDSSvsjNZzw:wnBNmmcjgjmMxsszbMzjxmMr:-qphnNBCJJJm9:wjcvMbvxhjlBVt",
"wgsapasshssuaakxNNvsiaszsw:9fkgcvjptahksapiaaptw93<%*<7raglNCGCc5:0ssaaapapakMNt",
"89rrireeittriirpssatrraap938rrwugfrtipieir05375:%@O%#$<8qrujlnng5;6iirriieiifvmr",
":20rpiiirrrrerriyrrrriaay0:8qeqyppiitiiipir6:11*%;*%#%-5qrtuagja:%2rrrreeiepfcnr",
"&-<7eipprrreeriierrretghi8::3779wrrree7e0r0:;====:;%#&2qrrrertjf:%;3rrtrierttfjq",
"#%%;6eppprriititiiteethja8;%;<479we076222::;%%*;1-%%;<7erierrukf3%%;5rtitrrrere1",
"###%;60iippirrreeiteealns3%@%=<158764;%%%%%O##;<<&##;7iitrrephlf5@@&:8rirrrq557<",
"%*;<;;;:7pdptr77qeeeeknMs5%@*=:=-:2:;;%#@o%;;%;=;%#%;7iitterfcMk5@&=&:5weeq1-<q1",
";<73<*#$4epie52<40errhMna5$&154433336553:%%:577333<*<wtyreqeaxmh1%=2-&::552-&1r5",
";3794<=$*2qt0<==17errgvvu5:4taufjsapsjMMa2&0gjkfhct::watq58wraka4&499:--=::;1ef7",
";,5341<=#%<71=$*-5qretgft4<qhjjvNmzjzMHJm8;rmCNcmJc3:9r95<38wrap4*5tr5-&:;=1qgcw",
"%*-;::-&#X%;<:--215538974110aapkvjapasbBv8-8ccjfvSc2=251<:8wrtfa3>qptr93::25rjvr",
"%O%;=-=*%@@&*1<<1<43122<;=:8rrrrparer9avx5-8aarehmj1&=:=*<3wwetr419pttt7999rrlNr",
"%%*:<1<<<:*#*:1124424431-::8riiiirrewwtvj5;7treefva<%%*-:<358585<19ttptpierrtlNr",
"%-39qq07rp5$=17qq77qwer93:-3ipirriterrhMc5-9trwrkmg<O#*==:::<=-*=2qrtrrpipiiplmr",
"*3rygcgavNt=1qtauafjjxvjt4&2rpptrirergNGm7=qarepxAj<###%%$&*#*%%#47ttrrppiiifvvw",
"-9aavBcgNSu<1rsgggcbbNNbh7O;7iirrtrwtjCJm8=8treavGk4#%%&%%@@@#@@&10trrrritepkvv9",
":9tpgjgulvr<1qruaajjjjcch7%%47rtttttpjvBj:$:9rraxBk2O%,::;;%%%@@&:0ttrrrteipfvme",
"<qerrrwwpf7;:3889wrrrwaui7%@&:99qrreryyht=@%5wrakMd<*;:90:::>=###;7trrrrerippvmr",
"3eireeewpaq<<:--1859900w7:;@@&=:28q858rw8%+@:9rtdxp<*;39889742-#@%4qittttirppxve",
"0tprtrrtggr11:=$;14333774:%@##$#&<3<;275-$+@;3wrskp<;;;,215774-#+#<7rrrrriiipxvw",
"7ipierphclr<--$$*;112342:&%###@@#&;%%;41-$@$:259hxh2OoO%&&*<1<=*+@$1wr9wtpptpkcw",
"9rpierajmmp<-1<<357077751*%%**$$%&%%%*:<-$%:1::9hnk4%%%;&%$=<22=###-8833wtrrtgjq",
"7eprrtrpNCf<15qrtjxzaphar4%%*111;*;;&&*=$&:993:5ana<;;6009q9errq:#@#=-=<45778ee4",
"0etrirwwxAf<4etkvNSNcjbmj9&%>454314<1-&$%-:rr059fxp<:0aaafjlllla1%O#O%&=:<<<144-",
"0rpiirwqhle:4edffxvvaazja8%%<435q54353:=&&8wpw99fxf1:0rttglmvllf2**:;=>15544<<1:",
"7tprrrrratq<4errrrrrrraat3;O;;-472>4991-&-:9pprrfxa1-:215tgcgggp4*4qe99qtr979q93",
"7eiirrerfje><5qrweew0iaja7%o%***>*#>63:%@$:0rpiikva1&:-:5raautua4>qfcvjgkfuacnj9",
"<7ertrqelNt<><qrrrreepxvj9#oO***#oo%::;o.+:5etppkMp<%&-17eieergg8<ycBBnnclfcGJB9",
",7rttrqwnGk>*-5erriredxbj8%O*>>*&%*;2:;;$$=5eiipxva:#=18eeeethvj81qglccccgugnVN9",
";5rtrrqqnGk>$*4qiiieepvMa5&&4744459957574*;3ipidxMa:$:8rteerhMBc8-8rrrtuauyracvq",
"*39rtreqgNf4%#:5eittepkhr5-3qttdgjjaaaszf=#,eephxma:-5etpteijMma5-3ererrtrrqtjMe",
"&:5wrrrrflt4%#;6errretppr5<5pfhbBNvlljmCc<+-qruhccy<-qrrrrrdgclu:-:wrrtrrrrrtlBt",
"=-18etrrjct2**20wrrrrtaiq4130rajvcjghjmSm1@1ettfjky-:qtttrtpufgt:$:9wiirittewhNt",
"1;15qtercnu<=47itrrrrtgfe5:=:3wtaurwwpkBv5=5yurraje:;5ertittrrap:$-5wiirite95tvr",
"135qqq9wgvr2;3eptrrrrahja5&#19errtw539hmv8-9ttq5yjy:$19rtptretua3-;20aprqq311tmr",
"27er7347afq:-3ertittrahxa3#&5rtrrre3<3pvj5-3qq449gu>$=49rreq9eya9::30t0061:-:avr",
";2501&%;5e3#%=25777750er0:o#:99977:%;<ipe2==;:*&1q7*O$=15q4>1589::-:89:;&&%=:9y3",
"%*<<&#O#>3-#+@&::24122242*@@=:134;%o%,76<=&####=:4:#O%$=<1-O*:1:-=::2:%@#%&-::8=",
"*;<1-&**<31-;=1256443354-*;;::433:;;;;,<1<<==*><111;*#%*22<*=:<<:15552==:22288:-",
"<498555709990wwwrr009et5*>37qqwq9wr03>=49q597q97q9qq2#=5q9789955qqweq770rr999qq<",
"qufffgfttphjgaagjhaaaghw--qttagjccMcp3<3tutfggftugjlq*1dftttafffaaufajzvnluyugc8",
"rjmnvnjfpkxvjahjjchkkljw:<qyfcvmNDDSl8<qfjjlllhffnBNp;4kvgagkvclhhhjvNDDBngugVCu",
"rgljlnjdpsjzhaaaaaaarw7<&=3effjcmDDSj8:qkjffhjppjvGAp;<flhafjlkjhfffjbNCmlatfmGa",
"8rutdffrrrrrrreq77eq1$#@##*49rrasvbva1=8pprtrrerygNNr==qttittrrttptredhkfyrerjBa",
"5qwerudtrrerrreq4<41%#$@##&29w9risjja:#<rtreeeeersvbr%#19ettrewrrrreerttrtrqrfnr",
"558eerttrrrrreeq4<;*==:-%#;3rrrerrrsa1#=8rrrtttryycce#o&17eitrrrrrirtretwrrrrglq",
"-<45qerew9956673>%%$-1:=#%29rttrr0rsa2@#17rtptrrwwas3@X#&:7tttrrteiipptrerrralvq",
"#*<2300951<=*;*;%O#=<<*%#*3eiiirrrscg4oo&20iprryrww01#o###-8rtttirpppritrertfvne",
"%&--<1222<=#%%%%##$=<>%O%<9rpppriasvh2o#;:30wyw93:382@@###=<30errptee7eerrralNNe",
";><<;<><<>=>;%%*$=&=->;;&2qtttiiiacvg>O*2;;:9ww3:&2r4#O*22:$%;7eppie7437eeealNnq",
"<7q7qew7qqtte6>;4qwq7q7711wtir00ipjva<%<02;:::3:==8aq#X-5q3=%%;7rte3<><3errglNnw",
"qdkkkmnkfjMSMf7<rlNmkjvj32qte0380iisa4&7ri3;&--::8asw@o>5974:;;;7q3:;;:3wttaavve",
"efkhvNmgggmSZh74tbNNcvBc3<7q71:30eeap7:7ap03--::8wsvr@X;12442&#O;1;;=;;27q99wta5",
"qrppdhftreugjp329gjausvg4;24:--5eiisp5<qpdiw8329wrcmtO #$*;>*%oo@&*::1:23411245:",
"5eiretreqwetut319itt9yca<;;;==:27q7e034qppitr99rrrcmp# @$*<<:&%%##&=144341:21<1-",
"3ipirrrreeipgp51qiiiepka1##*==<142::3:30tpttrrteralMpO %45555555:;&-88573595558-",
"4epprrrrrikxxg717iiethnh1#O#==**;;%%;;70ttrrttirtsvmeO ;7taauuhhr2-:9rrrqtffyaa4",
"2eaptrrrepxZmj81qprrpcBk2OO#$%##@@@@#*3errrrtrrrajbvqOO<ehnnvcNMa5:8ysjagcNMcvnq",
">5etirrrrrxZba3=3ieifxBh<%%=*=&%@%$@O;4ettrtrpeepjmvq#O7tklMlkmma829ysssjnMmcNBr",
"**7qr9rrreaja9:%<7erpjxp,;;23331;-=%#%<7rrtpiieryavbr**7iiaaptggr5:289rtufggacbe",
"##;2520r95qw92%@&10rpahi,;;28983352*##;7wrttpttrralbr**wiiierett932::::5qq979rp5",
"#OO*&&191-185>#o#-3rrahi;;;;::33995:%o%<qepdpprrtflje=>epieittuuy0:-%@@&::2:<23;",
"####@@=:&@-<<*%%&=150php6%%%#%;:334;%oO;47ei7itrtfcce;,epprrtallsw::&&%=112211:&",
"%*%$&&&%#@$-=&%:::-:5tlf<#@ooOO%**;*$%##-8953eppppjcr=>eprerijMvs0:;:535qqwq998<",
"&*<21:;&#$$$$$:232:-1rlg4%&;:;;;><42>*OO$::::8wwweuaq&2rprriisNZz9::9aasllguajg5",
"*<4552::--&$#%:78q5<3rjt1;0rieipffhue;OX+@%&=:111334<;4rpireravZs0:3efvNABvhjNBr",
"*255956333<=&&:3er899tjt21wahhkxnnnca<++@$&-<22<1<1:=>6eptrt0izcs838rhvZANlkgNSt",
"*<1259513982-*<3eyrwwrjp5<380rajbljja2%::82289811595<;4rttrttisse747raagkftptcNe",
"&=*;:2:&:881=%;49rytraja5---14wagarua5=3isapyutwraai3;:qrrrteipaq323wreqeeeergme",
"###$%$@.&::=#@&<8rtrysja4$$-15rrtr0sg91ecNNMcjhjvNAv0%&9rrriiihlp5<<0rreeeetalNr",
"%#&$%@@@%--&%#%:8rreyjja<&-<50re9wycc82rcmNmvjjlbSFZr#%3eepirpcMh7;*3rttttepfnVt",
"<<<>:::32331::=:7eeitjna<%:8erreqalmgq19ajsjhhapsxNMe@#3etirepvZl9*%4rrrretpjnmw",
"4qqqerparrruw8-;3ripajvu:=5rppiergmnf418rr9rtpiripzMe+@2qipiepvMj9*O-8wrteipflc9",
"7tfaxMMljjlcgw-$<erpfjju119rtiiepkcct1;3rrrwrrriiaMZt+.;7irpipjch7*o#3etrrrethj9",
"qrfhvBMlkjvbbs:$2etdfgjr23wttripffggt<%:9rwrrtrtrpxMu#.;47epiihjfq*X&3qtrtirrajw",
"43qphkkfapgvva8-5idpaaar119tpprdapaat:@=3wrrwrrw09fny&@:<5qtrtkvf7;%29tiprpirkce",
";17eieew98ygjg8:7dpe0tat<-8eippitwrua3&&19ryrr9833tct=&1347wwrjvf5;:0ttipppppjle",
":3eriie01:8uja3:3e7769pi<;29edte98wpa8-=19rw054<<3acy$$5w09739aht3::9pprpdiddjle",
"*30weq71--1wr9:-<224;3e7;#*,4e75118we51-1995::=;;3rf8##1qq3;*<5w5:&:7ww07e77eau5"
};
